<svg id="svg" version="1.1" xmlns="http://www.w3.org/2000/svg" xmlns:xlink="http://www.w3.org/1999/xlink" width="400" height="400" viewBox="0, 0, 400,400"><g id="svgg"><path id="path0" d="M51.660 156.543 C 60.200 156.602,74.175 156.602,82.715 156.543 C 91.255 156.484,84.268 156.436,67.188 156.436 C 50.107 156.436,43.120 156.484,51.660 156.543 M33.398 157.623 C 31.502 158.313,31.528 158.311,31.873 157.752 C 32.047 157.470,31.980 157.407,31.695 157.584 C 31.443 157.739,31.323 158.005,31.427 158.173 C 31.531 158.342,31.166 158.901,30.615 159.416 C 28.415 161.471,28.516 159.705,28.516 196.087 C 28.516 225.093,28.596 229.905,29.102 231.115 C 29.806 232.801,29.819 232.940,29.237 232.580 C 28.948 232.402,28.892 232.473,29.080 232.778 C 29.242 233.040,29.475 233.155,29.597 233.033 C 29.908 232.722,31.275 234.019,31.039 234.400 C 30.933 234.571,31.052 234.839,31.304 234.994 C 31.606 235.181,31.656 235.107,31.451 234.775 C 31.243 234.439,31.320 234.339,31.684 234.471 C 31.982 234.579,32.185 234.859,32.134 235.093 C 32.080 235.339,32.313 235.414,32.686 235.271 C 33.093 235.115,33.235 235.179,33.071 235.444 C 32.903 235.716,33.109 235.787,33.654 235.644 C 34.118 235.523,34.399 235.583,34.278 235.778 C 33.929 236.343,99.952 235.851,101.226 235.280 C 101.793 235.026,102.866 234.283,103.611 233.629 C 104.356 232.975,105.041 232.515,105.134 232.607 C 105.226 232.700,105.321 232.476,105.345 232.110 C 105.369 231.745,105.585 230.391,105.824 229.102 C 106.339 226.330,106.384 161.590,105.871 161.907 C 105.695 162.016,105.444 161.828,105.314 161.489 C 104.953 160.548,105.043 160.285,105.504 160.938 C 105.873 161.458,105.901 161.458,105.759 160.938 C 105.671 160.615,105.350 160.351,105.046 160.351 C 104.741 160.350,104.490 160.049,104.488 159.682 C 104.485 159.315,104.230 158.788,103.921 158.511 C 103.437 158.078,103.430 158.103,103.875 158.691 C 104.160 159.067,104.222 159.375,104.015 159.375 C 103.436 159.375,102.305 157.982,102.624 157.662 C 102.779 157.507,102.575 157.508,102.170 157.663 C 101.674 157.853,101.522 157.803,101.704 157.509 C 102.159 156.773,35.431 156.884,33.398 157.623 M27.478 169.727 C 27.479 171.445,27.548 172.100,27.630 171.181 C 27.713 170.262,27.712 168.856,27.628 168.056 C 27.544 167.256,27.476 168.008,27.478 169.727 M70.416 170.947 C 70.795 171.059,71.006 171.311,70.884 171.508 C 70.762 171.705,70.963 171.751,71.333 171.609 C 71.785 171.435,71.912 171.499,71.723 171.804 C 71.546 172.091,71.647 172.179,71.998 172.044 C 72.771 171.747,75.885 175.341,75.646 176.255 C 75.546 176.639,75.603 176.868,75.773 176.763 C 75.944 176.657,76.189 176.965,76.317 177.446 C 76.669 178.758,76.610 180.935,76.228 180.699 C 76.044 180.585,75.982 180.953,76.090 181.515 C 76.223 182.214,76.145 182.451,75.842 182.264 C 75.563 182.091,75.481 182.203,75.620 182.566 C 75.917 183.340,75.071 184.856,74.529 184.521 C 74.274 184.363,74.208 184.433,74.368 184.691 C 74.720 185.260,73.151 186.829,72.582 186.477 C 72.313 186.312,72.254 186.385,72.429 186.667 C 72.810 187.283,70.131 188.390,69.014 188.078 C 68.342 187.889,68.287 187.925,68.750 188.250 C 69.207 188.570,69.036 188.661,67.969 188.664 C 66.133 188.669,63.597 187.937,63.877 187.483 C 64.004 187.278,63.810 187.231,63.433 187.376 C 62.942 187.564,62.848 187.494,63.082 187.115 C 63.299 186.764,63.251 186.691,62.934 186.887 C 62.349 187.249,61.247 186.385,61.588 185.833 C 61.726 185.609,61.656 185.539,61.433 185.678 C 60.908 186.002,60.009 184.930,60.347 184.382 C 60.489 184.153,60.372 184.013,60.088 184.072 C 59.776 184.137,59.582 183.837,59.599 183.320 C 59.615 182.847,59.456 182.567,59.245 182.698 C 59.017 182.839,58.951 182.593,59.082 182.092 C 59.203 181.628,59.143 181.347,58.948 181.468 C 58.554 181.711,58.472 178.422,58.839 177.055 C 58.968 176.574,59.256 176.294,59.480 176.432 C 59.704 176.570,59.771 176.496,59.629 176.267 C 59.265 175.678,59.765 174.563,60.258 174.867 C 60.506 175.021,60.551 174.931,60.371 174.641 C 59.988 174.021,61.697 172.174,62.404 172.445 C 62.694 172.556,62.829 172.482,62.705 172.281 C 62.400 171.788,63.976 170.977,64.699 171.255 C 65.016 171.376,65.175 171.314,65.053 171.116 C 64.620 170.416,68.222 170.302,70.416 170.947 M139.711 177.644 C 139.960 177.803,140.241 178.459,140.336 179.103 C 140.492 180.164,140.513 180.137,140.566 178.809 C 140.613 177.650,140.482 177.345,139.941 177.350 C 139.498 177.354,139.417 177.457,139.711 177.644 M246.484 178.184 C 245.303 178.347,243.984 178.388,243.555 178.276 C 242.995 178.131,242.921 178.176,243.294 178.436 C 243.714 178.727,243.689 178.846,243.165 179.047 C 242.236 179.404,242.104 179.361,242.422 178.809 C 242.586 178.525,242.554 178.457,242.348 178.646 C 242.152 178.825,241.989 179.089,241.986 179.232 C 241.975 179.734,241.356 180.469,240.945 180.469 C 240.692 180.469,240.733 180.202,241.051 179.785 C 241.337 179.409,241.007 179.618,240.317 180.249 C 239.048 181.410,238.696 181.913,239.504 181.414 C 239.774 181.247,239.869 181.352,239.748 181.684 C 239.640 181.982,239.397 182.197,239.209 182.161 C 238.849 182.093,238.796 182.369,238.441 186.168 C 238.281 187.874,238.393 188.964,238.836 190.024 C 239.573 191.789,239.588 191.926,239.002 191.564 C 238.714 191.386,238.658 191.458,238.846 191.763 C 239.008 192.025,239.242 192.138,239.366 192.015 C 239.828 191.552,241.415 193.464,240.992 193.974 C 240.709 194.315,240.728 194.549,241.057 194.752 C 241.344 194.930,241.425 194.878,241.265 194.619 C 240.796 193.860,241.745 193.703,242.969 194.336 C 243.626 194.676,245.697 195.397,247.570 195.938 C 254.622 197.976,257.066 201.638,254.199 205.869 C 253.369 207.094,251.843 208.157,252.545 207.022 C 252.750 206.690,252.700 206.616,252.398 206.803 C 252.146 206.958,252.036 207.240,252.153 207.430 C 252.526 208.033,249.397 208.709,247.528 208.429 C 245.097 208.064,243.325 206.776,242.294 204.623 C 241.472 202.905,239.210 202.257,237.926 203.372 C 237.599 203.655,238.703 206.577,239.692 208.049 L 240.715 209.570 239.735 208.662 C 239.092 208.067,238.663 207.902,238.489 208.183 C 238.340 208.425,238.450 208.566,238.740 208.506 C 239.027 208.446,239.200 208.660,239.128 208.984 C 239.056 209.307,239.130 209.438,239.291 209.276 C 239.453 209.115,239.937 209.291,240.367 209.667 C 240.798 210.044,241.021 210.132,240.864 209.863 C 240.464 209.179,240.672 209.238,242.744 210.396 C 245.116 211.722,250.067 212.118,252.708 211.195 C 253.661 210.862,254.611 210.695,254.819 210.824 C 255.046 210.964,255.070 210.850,254.879 210.541 C 254.639 210.153,254.744 210.094,255.295 210.306 C 255.700 210.461,255.902 210.459,255.744 210.302 C 255.350 209.907,257.446 207.781,257.933 208.082 C 258.148 208.215,258.218 208.153,258.090 207.945 C 257.961 207.736,258.102 206.874,258.403 206.029 C 259.129 203.991,259.127 200.315,258.398 198.573 C 257.694 196.887,257.681 196.748,258.263 197.108 C 258.552 197.286,258.608 197.214,258.420 196.909 C 258.258 196.647,258.023 196.534,257.898 196.659 C 257.585 196.972,255.450 194.877,255.689 194.491 C 255.795 194.320,255.481 193.986,254.991 193.748 C 254.117 193.324,254.115 193.328,254.883 193.976 C 255.699 194.666,255.581 194.645,252.930 193.626 C 252.070 193.295,250.106 192.641,248.564 192.170 C 245.130 191.123,243.209 190.017,243.502 189.254 C 243.620 188.948,243.521 188.576,243.282 188.429 C 242.998 188.253,242.956 188.350,243.161 188.709 C 243.400 189.127,243.360 189.153,242.995 188.817 C 241.795 187.711,242.377 183.216,243.684 183.496 C 243.935 183.550,244.097 183.374,244.043 183.105 C 243.989 182.837,244.251 182.641,244.625 182.671 C 244.998 182.700,245.218 182.585,245.113 182.416 C 244.863 182.010,247.077 181.250,248.508 181.250 C 249.825 181.250,252.211 182.181,253.208 183.083 C 254.004 183.803,254.155 184.564,253.418 184.140 C 253.134 183.977,253.066 184.008,253.255 184.215 C 253.434 184.410,253.775 184.570,254.012 184.570 C 254.249 184.570,254.591 185.142,254.771 185.840 C 255.295 187.860,258.818 187.803,259.055 185.770 C 259.141 185.033,259.085 184.508,258.931 184.603 C 258.545 184.842,258.093 183.306,258.402 182.806 C 258.540 182.584,258.507 182.443,258.330 182.493 C 257.910 182.612,254.497 179.200,254.616 178.780 C 254.666 178.602,254.525 178.570,254.303 178.707 C 254.081 178.844,253.526 178.838,253.070 178.693 C 252.613 178.548,252.421 178.318,252.642 178.180 C 253.208 177.828,249.061 177.831,246.484 178.184 M117.578 179.900 C 117.578 181.015,117.754 181.652,118.066 181.673 C 118.335 181.691,120.488 181.735,122.852 181.771 L 127.148 181.836 127.251 196.387 L 127.353 210.938 129.497 210.938 L 131.641 210.938 131.641 196.387 L 131.642 181.836 134.864 181.848 C 139.835 181.868,139.902 181.842,139.724 179.934 L 139.574 178.320 128.576 178.240 L 117.578 178.159 117.578 179.900 M27.231 180.946 C 27.340 184.070,27.734 184.377,27.734 181.338 C 27.734 180.026,27.603 178.871,27.441 178.771 C 27.280 178.671,27.186 179.650,27.231 180.946 M49.609 182.170 C 50.361 182.437,50.933 182.866,50.879 183.125 C 50.825 183.383,50.913 183.573,51.074 183.547 C 51.917 183.414,52.356 183.716,53.121 184.954 C 53.583 185.702,53.834 186.520,53.678 186.772 C 53.512 187.041,53.563 187.126,53.803 186.978 C 54.043 186.829,54.316 187.284,54.466 188.084 C 54.777 189.741,54.056 192.717,53.437 192.334 C 53.175 192.172,53.115 192.245,53.285 192.520 C 53.674 193.151,51.995 195.412,51.328 195.156 C 51.032 195.043,50.832 195.163,50.884 195.424 C 50.935 195.687,50.593 195.886,50.117 195.870 C 49.644 195.854,49.342 195.977,49.444 196.143 C 49.547 196.309,49.039 196.556,48.315 196.692 C 46.691 196.997,43.615 196.237,43.994 195.625 C 44.161 195.354,44.082 195.303,43.781 195.488 C 43.157 195.875,41.546 194.366,40.587 192.496 C 39.551 190.476,39.609 185.505,40.661 186.155 C 40.851 186.273,40.911 186.119,40.794 185.815 C 39.950 183.614,46.291 180.992,49.609 182.170 M89.063 182.049 C 88.627 182.344,88.748 182.383,89.539 182.199 C 91.376 181.773,95.481 185.108,94.691 186.386 C 94.528 186.650,94.580 186.735,94.817 186.588 C 95.303 186.288,95.693 187.565,95.692 189.453 C 95.691 190.503,95.599 190.684,95.295 190.234 C 94.998 189.795,94.958 189.907,95.137 190.681 C 95.588 192.630,92.366 196.546,90.804 195.946 C 90.468 195.817,90.292 195.872,90.413 196.066 C 90.736 196.590,88.558 196.962,86.945 196.660 C 83.824 196.074,80.852 192.539,80.865 189.427 C 80.872 187.647,81.257 186.286,81.681 186.548 C 81.869 186.664,81.907 186.458,81.765 186.089 C 81.577 185.598,81.646 185.504,82.025 185.738 C 82.381 185.958,82.450 185.908,82.246 185.578 C 81.836 184.915,83.443 183.260,85.352 182.379 C 87.037 181.601,90.131 181.326,89.063 182.049 M27.450 185.547 C 27.450 186.514,27.526 186.909,27.619 186.426 C 27.713 185.942,27.713 185.151,27.619 184.668 C 27.526 184.185,27.450 184.580,27.450 185.547 M315.525 185.104 C 315.376 185.675,315.562 185.909,316.271 186.045 C 317.194 186.221,317.199 186.206,316.522 185.398 C 316.141 184.943,315.805 184.519,315.776 184.457 C 315.748 184.395,315.635 184.686,315.525 185.104 M150.098 185.426 C 150.474 185.524,151.089 185.524,151.465 185.426 C 151.841 185.327,151.533 185.247,150.781 185.247 C 150.029 185.247,149.722 185.327,150.098 185.426 M207.329 185.433 C 207.815 185.526,208.518 185.522,208.891 185.425 C 209.265 185.327,208.867 185.250,208.008 185.255 C 207.148 185.259,206.843 185.339,207.329 185.433 M265.234 185.573 C 265.234 185.773,265.762 185.938,266.406 185.938 C 267.570 185.938,267.578 185.952,267.578 188.151 C 267.578 189.368,267.701 190.242,267.851 190.091 C 268.184 189.759,268.013 186.240,267.646 185.863 C 267.212 185.418,265.234 185.180,265.234 185.573 M276.079 185.433 C 276.565 185.526,277.268 185.522,277.641 185.425 C 278.015 185.327,277.617 185.250,276.758 185.255 C 275.898 185.259,275.593 185.339,276.079 185.433 M332.520 185.426 C 332.896 185.524,333.511 185.524,333.887 185.426 C 334.263 185.327,333.955 185.247,333.203 185.247 C 332.451 185.247,332.144 185.327,332.520 185.426 M199.939 187.305 C 200.016 188.271,200.194 189.063,200.335 189.063 C 200.476 189.063,200.529 188.271,200.452 187.305 C 200.375 186.338,200.197 185.547,200.056 185.547 C 199.914 185.547,199.862 186.338,199.939 187.305 M237.606 187.109 C 237.606 188.076,237.683 188.472,237.776 187.988 C 237.869 187.505,237.869 186.714,237.776 186.230 C 237.683 185.747,237.606 186.143,237.606 187.109 M259.292 186.719 C 259.197 187.363,259.265 187.891,259.443 187.891 C 259.620 187.891,259.766 187.363,259.766 186.719 C 259.766 186.074,259.698 185.547,259.615 185.547 C 259.532 185.547,259.386 186.074,259.292 186.719 M303.320 185.952 C 301.816 186.116,300.091 186.444,299.486 186.680 C 298.101 187.221,297.934 187.218,298.279 186.658 C 298.454 186.377,298.386 186.314,298.101 186.490 C 297.849 186.646,297.752 186.948,297.884 187.162 C 298.017 187.377,297.883 187.497,297.586 187.428 C 297.290 187.360,297.000 187.480,296.943 187.695 C 296.764 188.366,294.423 190.604,294.106 190.408 C 293.940 190.306,293.677 190.427,293.521 190.679 C 293.345 190.965,293.408 191.032,293.690 190.858 C 294.308 190.475,294.275 190.623,293.198 193.019 C 292.012 195.662,291.626 199.160,292.213 201.953 C 292.849 204.979,292.857 205.681,292.256 205.557 C 291.972 205.498,291.855 205.638,291.998 205.869 C 292.181 206.165,292.410 206.161,292.781 205.853 C 293.306 205.418,294.298 206.558,294.048 207.308 C 293.992 207.478,294.059 207.617,294.197 207.617 C 294.665 207.617,296.077 209.086,295.894 209.383 C 295.794 209.545,296.017 209.917,296.391 210.210 C 297.006 210.692,297.019 210.677,296.534 210.059 C 296.239 209.683,296.174 209.375,296.389 209.375 C 296.841 209.375,297.727 210.346,297.490 210.583 C 297.402 210.670,297.712 210.768,298.177 210.799 C 298.643 210.831,299.727 211.033,300.586 211.249 C 302.153 211.643,307.298 212.145,306.309 211.808 C 306.015 211.707,306.509 211.303,307.426 210.892 C 309.348 210.032,309.515 210.004,309.142 210.607 C 308.968 210.889,309.035 210.952,309.321 210.776 C 309.573 210.620,309.695 210.358,309.593 210.193 C 309.491 210.028,310.139 209.205,311.033 208.364 C 311.927 207.524,312.438 207.128,312.170 207.485 C 311.839 207.924,311.813 208.215,312.090 208.387 C 312.316 208.526,312.500 209.157,312.500 209.789 C 312.500 210.907,312.552 210.938,314.459 210.938 L 316.417 210.938 316.314 198.772 L 316.211 186.606 314.453 186.565 L 312.695 186.523 312.577 188.584 C 312.508 189.780,312.300 190.548,312.082 190.413 C 311.875 190.285,311.824 189.990,311.968 189.756 C 312.112 189.523,312.054 189.441,311.839 189.574 C 311.443 189.819,309.239 187.797,309.369 187.309 C 309.408 187.163,309.309 186.927,309.150 186.784 C 308.990 186.641,308.986 186.743,309.140 187.012 C 309.510 187.654,309.367 187.633,307.426 186.764 C 306.440 186.323,305.993 185.944,306.309 185.818 C 306.945 185.565,306.796 185.572,303.320 185.952 M146.962 186.488 C 146.044 186.788,144.863 187.314,144.339 187.657 C 143.194 188.407,142.825 188.451,143.201 187.793 C 143.355 187.524,142.932 187.815,142.262 188.439 C 141.592 189.062,141.140 189.729,141.258 189.921 C 141.542 190.379,140.635 191.458,140.195 191.186 C 140.007 191.070,139.968 191.277,140.110 191.645 C 140.283 192.097,140.220 192.224,139.915 192.036 C 139.610 191.847,139.546 191.975,139.719 192.427 C 139.862 192.797,139.816 192.998,139.617 192.876 C 139.180 192.608,138.976 194.424,138.947 198.828 C 138.919 202.989,139.153 205.063,139.617 204.779 C 139.816 204.658,139.861 204.859,139.719 205.230 C 139.546 205.681,139.610 205.809,139.915 205.620 C 140.216 205.434,140.285 205.556,140.120 205.986 C 139.977 206.358,140.052 206.592,140.297 206.538 C 140.531 206.487,140.811 206.690,140.920 206.988 C 141.052 207.352,140.952 207.429,140.615 207.221 C 140.277 207.011,140.209 207.066,140.408 207.388 C 140.571 207.650,140.799 207.769,140.916 207.652 C 141.155 207.413,143.945 209.757,143.945 210.198 C 143.945 210.354,144.105 210.628,144.301 210.807 C 144.512 211.000,144.525 210.907,144.334 210.578 C 144.085 210.148,144.180 210.090,144.760 210.322 C 149.378 212.166,152.445 212.171,156.802 210.338 C 157.386 210.093,157.479 210.145,157.228 210.578 C 157.037 210.907,157.051 211.000,157.262 210.807 C 157.457 210.628,157.618 210.277,157.618 210.026 C 157.619 209.775,157.911 209.568,158.267 209.565 C 158.623 209.562,159.252 209.254,159.664 208.881 C 160.077 208.507,160.561 208.334,160.739 208.495 C 160.917 208.657,160.935 208.566,160.778 208.294 C 160.621 208.022,160.306 207.915,160.079 208.056 C 159.838 208.205,159.747 208.084,159.861 207.769 C 159.970 207.471,160.250 207.268,160.484 207.320 C 160.730 207.373,160.805 207.140,160.662 206.767 C 160.497 206.337,160.565 206.215,160.867 206.402 C 161.172 206.590,161.235 206.463,161.062 206.011 C 160.867 205.504,160.940 205.422,161.359 205.675 C 161.837 205.963,161.838 205.915,161.363 205.331 C 160.755 204.581,156.813 204.483,156.366 205.206 C 156.234 205.419,156.329 205.466,156.580 205.311 C 157.371 204.822,157.064 205.693,156.152 206.527 C 154.809 207.755,152.913 208.594,151.484 208.592 C 149.703 208.589,147.198 207.848,147.471 207.405 C 147.595 207.204,147.417 207.147,147.076 207.278 C 146.382 207.545,144.820 206.340,145.155 205.797 C 145.274 205.606,145.157 205.498,144.896 205.557 C 144.139 205.728,142.933 203.331,142.850 201.490 L 142.773 199.805 152.493 199.700 L 162.213 199.595 162.025 196.959 C 161.860 194.656,161.498 193.519,159.833 190.082 C 159.740 189.891,159.890 189.875,160.166 190.045 C 160.497 190.250,160.572 190.200,160.385 189.898 C 160.229 189.646,159.959 189.529,159.783 189.638 C 159.418 189.863,158.498 188.897,158.795 188.601 C 158.902 188.494,158.606 188.071,158.138 187.660 C 157.670 187.250,157.416 187.134,157.573 187.402 C 157.971 188.082,157.639 188.018,155.746 187.048 C 153.680 185.988,149.341 185.712,146.962 186.488 M173.828 186.531 C 171.686 187.222,171.767 187.217,172.110 186.621 C 172.273 186.337,172.242 186.269,172.035 186.458 C 171.840 186.637,171.680 186.901,171.680 187.044 C 171.679 187.480,168.104 190.630,167.872 190.398 C 167.754 190.280,167.524 190.397,167.362 190.659 C 167.173 190.964,167.230 191.036,167.518 190.858 C 168.106 190.494,168.115 190.452,167.035 193.103 C 166.524 194.359,166.041 195.193,165.963 194.957 C 165.495 193.548,166.154 202.099,166.631 203.629 C 166.951 204.659,167.093 205.696,166.945 205.936 C 166.770 206.219,166.856 206.260,167.194 206.051 C 167.581 205.811,167.640 205.916,167.429 206.467 C 167.273 206.872,167.271 207.078,167.424 206.925 C 167.742 206.607,168.750 207.335,168.750 207.883 C 168.750 208.085,168.530 208.117,168.262 207.956 C 167.872 207.722,167.872 207.784,168.258 208.262 C 168.525 208.591,168.657 208.977,168.551 209.118 C 168.446 209.259,168.478 209.286,168.623 209.176 C 168.769 209.067,169.340 209.374,169.893 209.858 C 170.698 210.564,170.665 210.476,169.727 209.417 L 168.555 208.096 170.634 209.506 C 173.970 211.769,177.476 212.326,180.859 211.133 C 182.871 210.423,182.932 210.420,182.578 211.035 C 182.414 211.319,182.446 211.387,182.652 211.198 C 182.848 211.019,183.008 210.751,183.008 210.602 C 183.008 210.453,183.799 209.640,184.766 208.797 C 185.732 207.953,186.317 207.496,186.066 207.781 C 185.814 208.065,185.713 208.572,185.841 208.906 C 186.037 209.415,186.122 209.392,186.369 208.761 C 186.587 208.205,186.671 208.391,186.691 209.473 L 186.719 210.938 188.677 210.938 L 190.636 210.938 190.533 198.759 L 190.430 186.581 189.258 186.598 C 186.665 186.635,186.719 186.593,186.713 188.574 C 186.709 189.595,186.578 190.254,186.420 190.039 C 186.262 189.824,185.884 189.648,185.579 189.648 C 185.275 189.648,184.945 189.404,184.845 189.106 C 184.721 188.735,184.834 188.662,185.203 188.876 C 185.500 189.048,185.316 188.721,184.795 188.149 C 183.839 187.099,183.344 186.780,183.789 187.500 C 184.149 188.083,183.756 187.978,182.334 187.111 C 180.970 186.279,181.120 186.034,182.545 186.767 C 183.228 187.118,183.306 187.107,182.935 186.713 C 182.229 185.965,175.972 185.839,173.828 186.531 M204.883 186.573 C 204.023 186.903,203.027 187.214,202.669 187.262 C 201.821 187.377,200.737 188.284,200.979 188.675 C 201.083 188.844,200.823 189.395,200.402 189.901 L 199.635 190.820 199.622 188.770 L 199.609 186.719 197.656 186.719 L 195.703 186.719 195.703 198.828 L 195.703 210.938 197.656 210.938 L 199.609 210.938 199.631 203.027 C 199.653 195.210,200.047 192.271,201.047 192.465 C 201.279 192.510,201.798 192.159,202.200 191.684 L 202.930 190.820 202.051 191.564 C 201.567 191.974,201.172 192.143,201.172 191.942 C 201.172 191.367,203.466 190.157,203.967 190.467 C 204.239 190.635,204.312 190.574,204.151 190.314 C 202.881 188.259,209.353 189.764,211.097 191.930 L 212.305 193.430 212.429 202.184 L 212.554 210.938 214.480 210.938 L 216.406 210.938 216.406 202.962 C 216.406 195.092,216.546 193.549,217.224 193.968 C 217.414 194.085,217.474 193.933,217.358 193.630 C 217.070 192.880,219.098 190.525,219.800 190.794 C 220.104 190.911,220.256 190.850,220.138 190.659 C 219.867 190.220,222.014 189.453,223.511 189.453 C 224.829 189.453,227.734 190.835,227.734 191.462 C 227.734 191.763,227.568 191.755,227.183 191.435 C 226.806 191.122,226.552 191.107,226.379 191.387 C 226.100 191.839,226.165 191.872,227.441 191.943 C 228.932 192.026,229.251 193.916,229.275 202.832 L 229.297 210.938 231.287 210.938 L 233.276 210.938 233.134 201.855 C 232.999 193.184,232.950 192.685,232.044 190.820 C 231.522 189.746,231.019 188.711,230.926 188.520 C 230.834 188.329,231.001 188.310,231.297 188.477 C 231.593 188.645,231.524 188.452,231.143 188.048 C 230.761 187.644,230.146 187.311,229.776 187.309 C 229.405 187.307,229.131 187.129,229.167 186.914 C 229.202 186.699,228.851 186.487,228.385 186.442 C 227.920 186.397,226.465 186.246,225.153 186.106 C 223.137 185.891,222.472 185.991,220.856 186.754 C 219.805 187.250,218.770 187.737,218.555 187.837 C 218.340 187.936,218.428 187.681,218.750 187.271 C 219.291 186.581,219.284 186.564,218.657 187.056 C 218.283 187.349,218.061 187.724,218.164 187.891 C 218.365 188.216,217.217 189.319,216.839 189.163 C 216.713 189.112,216.608 189.360,216.606 189.716 C 216.598 190.901,215.751 190.669,214.633 189.174 C 213.885 188.173,213.791 187.924,214.342 188.404 C 214.873 188.866,215.246 188.968,215.414 188.697 C 215.555 188.468,215.573 188.259,215.453 188.232 C 215.333 188.206,215.103 188.159,214.941 188.129 C 214.780 188.099,214.429 187.934,214.160 187.764 C 213.892 187.593,213.672 187.547,213.672 187.661 C 213.672 187.775,212.855 187.434,211.856 186.903 C 209.742 185.779,207.252 185.661,204.883 186.573 M272.852 186.716 C 270.561 187.634,270.575 187.632,270.936 187.049 C 271.114 186.761,271.042 186.704,270.737 186.893 C 270.475 187.055,270.364 187.291,270.490 187.417 C 270.745 187.672,267.991 190.625,267.499 190.625 C 267.328 190.625,267.188 189.695,267.188 188.559 L 267.188 186.492 265.332 186.566 L 263.477 186.639 263.375 202.890 L 263.273 219.141 265.220 219.141 L 267.167 219.141 267.286 213.379 L 267.405 207.617 267.492 213.546 C 267.557 218.003,267.457 219.515,267.090 219.638 C 266.809 219.732,266.850 219.784,267.188 219.759 C 267.673 219.724,267.792 218.779,267.883 214.261 C 267.944 211.192,268.168 208.631,268.394 208.406 C 268.669 208.134,268.706 208.244,268.511 208.755 C 268.308 209.290,268.362 209.420,268.701 209.210 C 269.237 208.879,270.410 209.683,270.107 210.174 C 269.998 210.349,270.115 210.620,270.366 210.776 C 270.673 210.965,270.718 210.888,270.504 210.541 C 270.262 210.149,270.365 210.098,270.932 210.332 C 274.745 211.906,277.890 212.102,280.916 210.952 C 282.026 210.530,283.087 210.280,283.274 210.395 C 283.460 210.510,283.566 210.460,283.509 210.283 C 283.358 209.820,285.597 207.407,285.965 207.634 C 286.135 207.739,286.401 207.619,286.557 207.368 C 286.744 207.066,286.669 207.016,286.338 207.221 C 286.003 207.427,285.896 207.350,286.017 206.988 C 286.117 206.690,286.388 206.445,286.621 206.445 C 286.854 206.445,287.191 206.285,287.370 206.090 C 287.563 205.879,287.470 205.865,287.141 206.056 C 286.722 206.299,286.650 206.211,286.848 205.696 C 286.992 205.321,287.109 204.930,287.109 204.828 C 287.109 204.725,287.312 204.767,287.560 204.920 C 287.846 205.097,287.905 205.027,287.721 204.729 C 287.562 204.471,287.612 203.433,287.833 202.423 C 288.054 201.413,288.303 199.268,288.385 197.656 C 288.468 196.045,288.460 195.061,288.368 195.469 C 288.252 195.986,287.994 195.630,287.520 194.297 C 287.145 193.244,286.693 192.046,286.517 191.635 C 286.265 191.051,286.316 190.958,286.750 191.209 C 287.079 191.400,287.172 191.387,286.979 191.176 C 286.800 190.980,286.463 190.820,286.230 190.820 C 285.998 190.820,285.726 190.576,285.626 190.278 C 285.522 189.966,285.622 189.844,285.860 189.991 C 286.088 190.132,286.377 190.081,286.503 189.877 C 286.629 189.674,286.565 189.404,286.361 189.278 C 286.158 189.153,285.874 189.240,285.730 189.472 C 285.556 189.754,285.225 189.674,284.736 189.231 C 284.333 188.866,284.085 188.435,284.185 188.273 C 284.285 188.112,284.061 187.740,283.687 187.447 C 283.072 186.965,283.059 186.979,283.544 187.598 C 283.839 187.974,283.904 188.281,283.689 188.281 C 283.122 188.281,282.380 187.281,282.706 186.955 C 282.859 186.802,282.653 186.805,282.248 186.960 C 281.828 187.121,281.608 187.088,281.735 186.883 C 281.972 186.498,281.745 186.458,277.539 186.140 C 275.366 185.975,274.404 186.094,272.852 186.716 M329.492 186.646 C 328.418 187.050,327.203 187.525,326.791 187.702 C 326.222 187.947,326.120 187.900,326.363 187.506 C 326.582 187.152,326.533 187.082,326.206 187.283 C 325.944 187.446,325.826 187.675,325.945 187.794 C 326.180 188.029,322.985 191.645,322.642 191.532 C 322.527 191.493,322.404 191.757,322.369 192.118 C 322.334 192.478,322.019 194.004,321.668 195.508 C 320.921 198.717,321.148 202.040,322.294 204.639 C 323.173 206.636,323.198 206.780,322.596 206.408 C 322.308 206.230,322.251 206.301,322.440 206.606 C 322.602 206.869,322.834 206.983,322.957 206.861 C 323.236 206.582,324.609 207.798,324.609 208.324 C 324.609 208.539,324.214 208.383,323.730 207.977 C 323.186 207.519,323.270 207.701,323.953 208.454 C 324.559 209.123,325.350 209.647,325.711 209.620 C 326.072 209.593,326.325 209.784,326.274 210.045 C 326.217 210.337,326.429 210.424,326.827 210.271 C 327.257 210.106,327.379 210.174,327.192 210.476 C 327.004 210.781,327.131 210.845,327.583 210.671 C 327.953 210.529,328.155 210.575,328.034 210.773 C 327.275 212.015,336.525 211.734,338.819 210.445 C 340.944 209.251,341.185 209.175,340.783 209.826 C 340.609 210.108,340.676 210.171,340.962 209.994 C 341.213 209.839,341.332 209.571,341.227 209.400 C 341.121 209.229,341.400 208.758,341.847 208.353 C 342.294 207.948,342.715 207.705,342.782 207.813 C 342.849 207.920,343.050 207.848,343.229 207.652 C 343.421 207.442,343.334 207.425,343.016 207.609 C 342.645 207.824,342.538 207.752,342.674 207.379 C 342.782 207.080,343.025 206.865,343.213 206.901 C 343.401 206.937,343.569 206.585,343.586 206.120 C 343.602 205.654,343.690 205.010,343.781 204.688 C 344.102 203.545,341.103 203.690,340.181 204.862 C 339.746 205.414,339.241 205.774,339.058 205.661 C 338.875 205.548,338.599 205.662,338.443 205.913 C 338.250 206.226,338.334 206.266,338.709 206.040 C 339.178 205.758,339.177 205.809,338.707 206.388 C 338.404 206.761,337.923 206.977,337.637 206.868 C 337.352 206.758,337.161 206.873,337.212 207.122 C 337.359 207.840,334.373 208.681,332.639 208.410 C 330.970 208.150,327.344 206.345,327.344 205.774 C 327.344 205.581,327.547 205.548,327.795 205.701 C 328.076 205.875,328.140 205.808,327.963 205.523 C 327.808 205.271,327.529 205.159,327.344 205.273 C 326.734 205.650,326.484 204.667,327.017 203.987 C 327.482 203.393,327.468 203.376,326.883 203.834 C 326.318 204.275,326.159 204.221,325.744 203.445 C 324.634 201.371,325.021 193.625,326.199 194.353 C 326.394 194.473,326.458 194.324,326.342 194.020 C 326.054 193.270,328.082 190.916,328.784 191.185 C 329.096 191.305,329.231 191.225,329.094 191.003 C 328.717 190.394,331.401 189.452,333.484 189.462 C 336.041 189.473,338.485 190.653,339.494 192.365 C 340.228 193.608,340.483 193.750,341.983 193.750 C 343.569 193.750,344.986 192.902,344.392 192.308 C 344.254 192.170,344.134 192.306,344.125 192.611 C 344.103 193.383,342.845 190.996,342.770 190.039 C 342.736 189.609,342.460 189.250,342.155 189.240 C 341.851 189.230,341.640 189.027,341.687 188.789 C 341.734 188.551,341.480 188.120,341.123 187.830 C 340.577 187.387,340.526 187.390,340.800 187.844 C 341.024 188.216,340.957 188.327,340.582 188.202 C 340.283 188.102,340.039 187.830,340.039 187.598 C 340.039 187.365,339.879 187.028,339.683 186.849 C 339.477 186.660,339.446 186.728,339.609 187.012 C 339.981 187.658,339.661 187.628,338.216 186.880 C 336.306 185.893,331.816 185.772,329.492 186.646 M355.859 186.695 C 353.275 187.632,353.404 187.613,353.751 187.012 C 353.914 186.728,353.883 186.660,353.676 186.849 C 353.480 187.028,353.320 187.365,353.320 187.598 C 353.320 187.830,353.076 188.102,352.778 188.202 C 352.408 188.325,352.333 188.211,352.543 187.844 C 352.713 187.547,352.210 187.910,351.426 188.651 C 350.024 189.974,349.621 190.515,350.391 190.039 C 350.933 189.704,350.882 190.368,350.322 190.928 C 349.970 191.280,349.719 191.280,349.248 190.928 C 348.734 190.543,348.713 190.557,349.121 191.015 C 349.702 191.667,349.772 192.334,349.223 191.995 C 348.994 191.853,348.942 192.028,349.094 192.427 C 349.237 192.798,349.191 192.998,348.992 192.875 C 348.795 192.753,348.600 193.119,348.560 193.690 C 348.520 194.260,348.367 196.148,348.221 197.885 C 348.008 200.404,348.099 201.511,348.670 203.354 C 349.063 204.624,349.368 205.877,349.348 206.137 C 349.327 206.397,349.488 206.573,349.704 206.528 C 349.921 206.482,350.186 206.690,350.295 206.988 C 350.432 207.365,350.328 207.432,349.953 207.206 C 349.497 206.931,349.496 206.982,349.947 207.538 C 350.240 207.899,350.612 208.113,350.773 208.013 C 351.099 207.812,352.291 208.990,352.283 209.505 C 352.281 209.684,352.409 209.948,352.569 210.091 C 352.729 210.234,352.719 210.109,352.547 209.813 C 352.376 209.516,352.391 209.349,352.582 209.442 C 356.830 211.500,356.827 211.499,360.156 211.475 C 364.011 211.446,366.003 211.237,365.785 210.883 C 365.637 210.640,367.313 209.375,367.783 209.375 C 367.910 209.375,367.888 209.595,367.734 209.863 C 367.579 210.132,367.920 209.925,368.492 209.405 C 369.587 208.407,369.948 207.762,368.945 208.594 C 368.102 209.294,368.221 208.449,369.075 207.677 C 369.468 207.321,369.917 207.156,370.072 207.311 C 370.227 207.467,370.227 207.262,370.071 206.858 C 369.893 206.393,369.937 206.213,370.190 206.369 C 370.437 206.522,370.521 206.256,370.410 205.674 C 370.222 204.693,366.554 204.362,365.741 205.252 C 365.569 205.441,365.648 205.469,365.918 205.313 C 366.731 204.845,366.465 205.669,365.527 206.527 C 360.664 210.974,351.953 207.385,351.953 200.934 C 351.953 200.504,353.849 200.384,362.012 200.300 L 372.070 200.195 372.109 198.532 L 372.147 196.869 371.989 198.435 L 371.830 200.000 361.989 199.909 L 352.148 199.819 361.872 199.707 L 371.597 199.595 371.371 196.906 C 371.224 195.156,370.796 193.526,370.143 192.239 C 369.012 190.007,368.932 189.672,369.629 190.091 C 369.965 190.293,369.951 190.179,369.585 189.728 C 369.292 189.367,368.916 189.155,368.750 189.258 C 368.392 189.479,367.494 188.496,367.786 188.203 C 367.897 188.093,367.686 187.757,367.317 187.458 C 366.874 187.098,366.746 187.079,366.940 187.402 C 367.349 188.083,367.013 188.018,365.121 187.048 C 362.754 185.834,358.661 185.679,355.859 186.695 M126.501 187.207 C 126.417 187.690,126.462 188.701,126.600 189.453 C 126.812 190.612,126.858 190.479,126.902 188.574 C 126.954 186.270,126.772 185.647,126.501 187.207 M27.434 188.672 C 27.434 189.424,27.515 189.731,27.613 189.355 C 27.711 188.979,27.711 188.364,27.613 187.988 C 27.515 187.612,27.434 187.920,27.434 188.672 M150.648 189.355 C 150.549 189.517,151.217 189.652,152.131 189.657 C 154.419 189.669,156.404 191.087,157.414 193.432 C 158.969 197.039,159.303 196.875,150.391 196.875 C 145.152 196.875,142.578 196.739,142.578 196.461 C 142.578 196.234,142.761 196.161,142.984 196.299 C 143.246 196.460,143.304 196.205,143.148 195.583 C 142.795 194.176,143.880 192.274,145.002 192.335 C 145.703 192.373,145.895 192.176,145.896 191.417 C 145.898 190.634,146.230 190.325,147.656 189.778 C 149.512 189.067,150.949 188.864,150.648 189.355 M361.932 189.498 C 362.950 189.755,363.559 190.101,363.411 190.340 C 363.260 190.585,363.352 190.627,363.645 190.446 C 364.355 190.008,366.731 192.472,367.189 194.123 C 368.001 197.044,368.443 196.875,359.984 196.875 C 352.130 196.875,351.704 196.785,352.318 195.251 C 352.520 194.748,352.699 194.512,352.716 194.727 C 352.754 195.210,353.504 194.095,353.504 193.555 C 353.504 193.340,353.333 193.428,353.125 193.750 C 352.363 194.930,352.760 193.606,353.553 192.322 C 355.124 189.780,358.514 188.638,361.932 189.498 M180.630 189.689 C 180.968 189.819,181.158 190.067,181.052 190.239 C 180.945 190.411,181.181 190.468,181.576 190.364 C 182.598 190.097,184.742 192.036,185.620 194.020 C 187.050 197.252,186.744 204.340,185.190 203.994 C 184.925 203.935,184.826 204.078,184.970 204.312 C 185.774 205.613,181.376 208.334,178.512 208.307 C 176.206 208.285,173.229 207.294,173.611 206.676 C 173.737 206.471,173.635 206.177,173.384 206.021 C 173.098 205.845,173.031 205.908,173.205 206.190 C 173.615 206.854,173.021 206.738,172.199 205.994 C 171.414 205.284,171.216 204.475,171.935 204.920 C 172.217 205.094,172.280 205.027,172.104 204.741 C 171.948 204.490,171.654 204.388,171.449 204.514 C 170.784 204.925,169.818 201.829,169.798 199.219 C 169.778 196.623,170.515 193.588,171.081 193.938 C 171.254 194.045,171.372 193.914,171.343 193.648 C 171.313 193.382,171.402 193.164,171.541 193.164 C 171.680 193.164,172.133 192.856,172.549 192.480 C 172.965 192.103,173.418 191.907,173.555 192.044 C 173.692 192.181,173.729 191.906,173.638 191.433 C 173.356 189.968,178.205 188.759,180.630 189.689 M279.206 190.058 C 284.122 192.111,286.238 200.816,282.778 204.748 C 282.334 205.252,282.101 205.400,282.260 205.078 C 282.418 204.756,282.085 204.913,281.520 205.428 C 280.955 205.943,280.588 206.517,280.704 206.706 C 281.081 207.315,278.210 208.203,275.891 208.195 C 272.483 208.182,268.086 205.687,268.965 204.265 C 269.147 203.971,269.100 203.886,268.842 204.045 C 268.383 204.328,267.782 202.726,267.387 200.166 C 267.120 198.430,267.851 194.803,268.400 195.142 C 268.588 195.258,268.642 195.094,268.520 194.777 C 268.257 194.093,269.041 192.471,269.499 192.753 C 269.910 193.007,271.177 191.620,270.841 191.284 C 269.628 190.071,276.743 189.028,279.206 190.058 M307.645 190.193 C 309.529 191.048,311.584 193.402,312.115 195.313 C 312.968 198.378,312.363 204.351,311.269 203.674 C 310.977 203.494,310.923 203.567,311.116 203.880 C 311.507 204.511,309.198 206.949,307.532 207.664 C 305.263 208.638,299.609 208.023,299.609 206.803 C 299.609 206.688,299.829 206.727,300.098 206.888 C 300.429 207.087,300.414 206.969,300.050 206.520 C 299.469 205.805,299.021 205.614,299.414 206.250 C 299.873 206.993,298.961 206.638,298.161 205.762 C 295.914 203.304,295.133 198.616,296.387 195.117 C 296.772 194.043,297.278 193.200,297.512 193.243 C 297.745 193.287,298.444 192.776,299.066 192.109 C 299.687 191.441,299.948 191.037,299.647 191.211 C 299.262 191.433,299.188 191.381,299.401 191.037 C 300.372 189.466,305.001 188.992,307.645 190.193 M222.363 190.113 C 222.739 190.211,223.354 190.211,223.730 190.113 C 224.106 190.015,223.799 189.934,223.047 189.934 C 222.295 189.934,221.987 190.015,222.363 190.113 M333.594 190.252 C 333.166 190.542,333.324 190.578,334.180 190.387 C 335.616 190.065,335.928 189.842,334.928 189.850 C 334.517 189.853,333.916 190.034,333.594 190.252 M354.468 191.895 L 353.320 193.164 354.590 192.017 C 355.288 191.386,355.859 190.814,355.859 190.747 C 355.859 190.445,355.537 190.711,354.468 191.895 M145.573 191.536 C 145.573 191.823,145.339 192.057,145.052 192.057 C 144.491 192.057,144.371 191.697,144.792 191.276 C 145.212 190.856,145.573 190.976,145.573 191.536 M172.849 191.799 C 172.459 192.230,172.055 192.498,171.952 192.395 C 171.689 192.132,172.664 191.016,173.155 191.016 C 173.377 191.016,173.239 191.368,172.849 191.799 M337.764 191.504 C 337.934 191.772,338.077 192.151,338.080 192.346 C 338.083 192.540,338.412 192.747,338.811 192.805 C 339.456 192.900,339.438 192.808,338.645 191.964 C 337.681 190.938,337.267 190.722,337.764 191.504 M298.631 192.190 C 298.241 192.621,297.837 192.889,297.733 192.785 C 297.471 192.523,298.445 191.406,298.936 191.406 C 299.158 191.406,299.021 191.759,298.631 192.190 M183.817 192.923 C 183.687 193.133,183.760 193.416,183.978 193.551 C 184.196 193.686,184.378 193.654,184.381 193.480 C 184.384 193.306,184.557 193.428,184.766 193.750 C 184.974 194.072,185.147 194.138,185.150 193.895 C 185.159 193.237,184.101 192.464,183.817 192.923 M70.648 193.212 C 71.316 193.345,71.777 193.592,71.673 193.761 C 71.569 193.930,71.863 193.969,72.326 193.847 C 72.954 193.683,73.088 193.758,72.852 194.139 C 72.650 194.466,72.688 194.558,72.957 194.391 C 73.461 194.080,75.444 194.910,75.187 195.326 C 75.089 195.485,75.314 195.591,75.688 195.561 C 76.064 195.532,76.319 195.739,76.260 196.025 C 76.201 196.310,76.337 196.428,76.563 196.289 C 77.136 195.935,79.817 198.692,79.461 199.269 C 79.298 199.534,79.343 199.627,79.568 199.488 C 79.784 199.354,80.192 199.679,80.476 200.209 C 80.982 201.154,81.083 201.172,85.906 201.174 C 91.006 201.176,93.974 201.665,93.504 202.425 C 93.343 202.686,93.418 202.744,93.697 202.572 C 94.678 201.966,98.759 205.413,98.177 206.356 C 98.039 206.579,98.111 206.647,98.336 206.508 C 98.828 206.204,99.329 207.319,98.964 207.908 C 98.817 208.146,98.891 208.210,99.137 208.058 C 99.938 207.563,100.386 210.664,100.388 216.725 C 100.391 222.815,100.070 224.479,98.973 224.058 C 98.649 223.934,98.501 224.006,98.636 224.223 C 98.957 224.743,97.026 224.718,96.038 224.189 C 95.575 223.941,95.343 223.531,95.473 223.192 C 95.603 222.853,95.527 222.719,95.289 222.866 C 95.014 223.036,94.921 221.111,95.001 216.868 C 95.069 213.194,94.971 210.711,94.763 210.840 C 94.568 210.961,94.507 210.680,94.629 210.217 C 94.750 209.753,94.708 209.461,94.536 209.568 C 94.209 209.769,93.573 208.637,93.698 208.076 C 93.737 207.899,93.633 207.835,93.467 207.934 C 93.132 208.133,90.554 206.841,90.800 206.598 C 90.885 206.514,89.210 206.501,87.079 206.569 L 83.203 206.693 83.203 214.747 C 83.203 222.479,83.169 222.837,82.354 223.705 L 81.504 224.609 67.682 224.609 C 58.674 224.609,53.943 224.475,54.099 224.223 C 54.232 224.008,54.087 223.933,53.772 224.054 C 52.294 224.621,51.953 222.847,51.953 214.587 L 51.953 206.693 48.083 206.569 C 45.954 206.501,44.277 206.548,44.355 206.674 C 44.434 206.800,43.881 207.197,43.127 207.556 C 40.790 208.671,40.253 210.487,40.243 217.308 C 40.238 220.572,40.083 223.000,39.888 222.879 C 39.697 222.761,39.565 222.962,39.595 223.324 C 39.627 223.717,39.213 224.141,38.574 224.372 C 37.199 224.869,35.330 224.251,35.405 223.324 C 35.435 222.962,35.303 222.761,35.112 222.879 C 34.727 223.117,34.635 211.270,35.011 209.868 C 35.140 209.387,35.428 209.106,35.652 209.244 C 35.889 209.391,35.941 209.306,35.777 209.041 C 35.429 208.477,35.877 206.948,36.312 207.217 C 36.487 207.325,36.606 207.108,36.577 206.734 C 36.548 206.360,36.737 206.097,36.998 206.148 C 37.258 206.199,37.381 206.003,37.269 205.712 C 37.020 205.064,39.357 203.019,39.937 203.378 C 40.169 203.522,40.242 203.454,40.102 203.226 C 39.797 202.734,40.912 202.234,41.502 202.598 C 41.740 202.745,41.804 202.671,41.652 202.425 C 41.181 201.664,44.154 201.176,49.285 201.174 L 54.233 201.172 55.022 199.902 C 56.171 198.052,58.843 195.570,59.349 195.883 C 59.597 196.036,59.739 195.929,59.678 195.635 C 59.618 195.348,59.874 195.141,60.250 195.171 C 60.636 195.201,60.819 195.046,60.674 194.811 C 60.513 194.552,60.667 194.494,61.089 194.656 C 61.458 194.797,61.660 194.752,61.538 194.555 C 61.251 194.091,62.745 193.614,63.338 193.980 C 63.640 194.167,63.687 194.090,63.476 193.749 C 63.229 193.349,63.450 193.293,64.490 193.493 C 65.427 193.673,65.647 193.635,65.234 193.365 C 64.558 192.921,68.621 192.806,70.648 193.212 M339.552 193.750 C 339.722 194.378,344.921 194.868,344.923 194.256 C 344.923 194.085,343.845 194.006,342.527 194.080 C 340.837 194.175,340.023 194.060,339.762 193.690 C 339.466 193.268,339.425 193.280,339.552 193.750 M211.808 203.027 L 211.719 211.719 213.594 211.719 C 214.625 211.719,215.705 211.938,215.995 212.207 C 216.333 212.521,216.430 212.533,216.266 212.240 C 216.126 211.990,216.232 211.696,216.501 211.588 C 216.771 211.479,215.897 211.376,214.558 211.359 L 212.125 211.328 212.011 202.832 L 211.898 194.336 211.808 203.027 M228.614 196.289 C 228.618 197.148,228.698 197.454,228.792 196.968 C 228.885 196.482,228.882 195.779,228.784 195.406 C 228.686 195.032,228.610 195.430,228.614 196.289 M200.000 203.320 L 200.000 211.328 197.656 211.328 C 195.513 211.328,195.313 211.256,195.313 210.482 C 195.313 210.016,195.203 209.744,195.070 209.878 C 193.980 210.968,195.348 211.910,197.834 211.783 L 200.391 211.652 200.391 203.482 C 200.391 198.989,200.303 195.313,200.195 195.313 C 200.088 195.313,200.000 198.916,200.000 203.320 M138.016 198.828 C 138.016 200.225,138.087 200.796,138.173 200.098 C 138.260 199.399,138.260 198.257,138.173 197.559 C 138.087 196.860,138.016 197.432,138.016 198.828 M162.566 198.138 L 162.500 199.987 152.637 200.098 L 142.773 200.209 152.649 200.300 C 163.578 200.400,163.069 200.526,162.787 197.795 C 162.639 196.359,162.628 196.375,162.566 198.138 M347.387 198.633 C 347.389 199.922,347.462 200.402,347.549 199.700 C 347.636 198.998,347.634 197.943,347.545 197.356 C 347.456 196.769,347.384 197.344,347.387 198.633 M283.715 199.023 C 283.717 200.312,283.790 200.793,283.877 200.091 C 283.964 199.389,283.962 198.334,283.873 197.747 C 283.784 197.160,283.713 197.734,283.715 199.023 M186.055 199.219 C 186.055 200.400,186.128 200.884,186.217 200.293 C 186.307 199.702,186.307 198.735,186.217 198.145 C 186.128 197.554,186.055 198.037,186.055 199.219 M296.200 198.828 C 296.200 199.795,296.276 200.190,296.369 199.707 C 296.463 199.224,296.463 198.433,296.369 197.949 C 296.276 197.466,296.200 197.861,296.200 198.828 M27.442 199.023 C 27.447 199.883,27.527 200.188,27.620 199.702 C 27.713 199.217,27.710 198.513,27.612 198.140 C 27.514 197.767,27.438 198.164,27.442 199.023 M64.869 198.867 C 64.346 199.076,63.678 199.155,63.384 199.042 C 63.051 198.914,62.955 199.007,63.130 199.290 C 63.318 199.595,63.191 199.658,62.739 199.485 C 62.360 199.340,62.167 199.387,62.295 199.594 C 62.534 199.981,61.177 200.890,60.849 200.563 C 60.744 200.458,60.436 200.640,60.164 200.967 C 59.892 201.295,59.786 201.563,59.927 201.563 C 60.068 201.563,59.993 201.919,59.760 202.355 C 59.527 202.790,59.142 203.027,58.904 202.880 C 58.667 202.734,58.574 202.778,58.698 202.978 C 58.822 203.178,58.591 204.304,58.185 205.480 C 57.600 207.176,57.445 208.766,57.435 213.184 L 57.422 218.750 67.559 218.750 L 77.697 218.750 77.813 212.537 C 77.881 208.947,77.782 206.415,77.580 206.540 C 77.388 206.659,77.318 206.296,77.426 205.734 C 77.549 205.093,77.472 204.804,77.221 204.959 C 76.975 205.111,76.920 204.947,77.078 204.536 C 77.251 204.084,77.187 203.957,76.882 204.145 C 76.577 204.334,76.514 204.206,76.687 203.755 C 76.840 203.357,76.787 203.181,76.558 203.323 C 76.188 203.552,75.992 202.974,76.158 202.148 C 76.202 201.934,76.103 201.892,75.939 202.056 C 75.611 202.384,73.372 200.423,73.618 200.024 C 73.702 199.888,73.476 199.756,73.116 199.731 C 72.756 199.706,71.758 199.413,70.898 199.079 C 69.140 198.396,66.299 198.296,64.869 198.867 M259.500 201.953 C 259.500 203.350,259.571 203.921,259.658 203.223 C 259.744 202.524,259.744 201.382,259.658 200.684 C 259.571 199.985,259.500 200.557,259.500 201.953 M228.516 205.078 C 228.257 211.032,228.350 211.717,229.420 211.725 C 230.114 211.730,230.164 211.801,229.688 212.109 C 229.171 212.443,229.174 212.489,229.707 212.494 C 230.040 212.497,230.523 212.289,230.781 212.031 C 231.146 211.667,231.250 211.684,231.250 212.109 C 231.250 212.535,231.354 212.552,231.719 212.188 C 231.977 211.930,232.372 211.721,232.598 211.725 C 232.823 211.728,232.746 211.896,232.427 212.098 C 231.967 212.389,232.022 212.452,232.693 212.402 C 233.159 212.367,233.460 212.209,233.363 212.052 C 233.266 211.895,233.452 211.619,233.775 211.437 C 234.121 211.244,233.243 211.171,231.646 211.261 L 228.929 211.415 228.820 206.000 L 228.711 200.586 228.516 205.078 M242.061 202.685 C 242.187 203.164,242.481 203.379,242.829 203.245 C 243.139 203.126,243.342 203.000,243.279 202.966 C 243.216 202.932,242.870 202.680,242.511 202.406 C 241.946 201.975,241.886 202.013,242.061 202.685 M341.699 203.408 C 342.397 203.494,343.540 203.494,344.238 203.408 C 344.937 203.321,344.365 203.250,342.969 203.250 C 341.572 203.250,341.001 203.321,341.699 203.408 M309.546 205.566 L 308.398 206.836 309.668 205.689 C 310.366 205.058,310.938 204.486,310.938 204.419 C 310.938 204.117,310.615 204.383,309.546 205.566 M47.949 206.145 C 48.862 206.228,50.356 206.228,51.270 206.145 C 52.183 206.063,51.436 205.996,49.609 205.996 C 47.783 205.996,47.036 206.063,47.949 206.145 M83.887 206.142 C 84.585 206.229,85.728 206.229,86.426 206.142 C 87.124 206.055,86.553 205.984,85.156 205.984 C 83.760 205.984,83.188 206.055,83.887 206.142 M329.124 206.677 C 329.233 206.853,329.609 206.887,329.959 206.752 C 330.386 206.589,330.503 206.659,330.314 206.965 C 330.159 207.216,330.233 207.422,330.478 207.422 C 331.297 207.422,330.613 206.446,329.763 206.401 C 329.303 206.377,329.016 206.502,329.124 206.677 M52.509 214.453 C 52.509 218.857,52.565 220.659,52.635 218.457 C 52.705 216.255,52.705 212.651,52.635 210.449 C 52.565 208.247,52.509 210.049,52.509 214.453 M126.653 208.203 C 126.653 208.955,126.734 209.263,126.832 208.887 C 126.930 208.511,126.930 207.896,126.832 207.520 C 126.734 207.144,126.653 207.451,126.653 208.203 M150.488 208.082 C 150.864 208.180,151.479 208.180,151.855 208.082 C 152.231 207.984,151.924 207.903,151.172 207.903 C 150.420 207.903,150.112 207.984,150.488 208.082 M359.473 208.082 C 359.849 208.180,360.464 208.180,360.840 208.082 C 361.216 207.984,360.908 207.903,360.156 207.903 C 359.404 207.903,359.097 207.984,359.473 208.082 M185.991 210.645 L 185.938 211.719 188.574 211.643 L 191.211 211.568 188.794 211.430 C 186.668 211.309,186.358 211.189,186.211 210.431 C 186.072 209.715,186.035 209.751,185.991 210.645 M316.797 210.776 C 316.797 211.290,316.374 211.373,314.306 211.264 C 312.755 211.182,311.873 211.280,311.966 211.523 C 312.273 212.322,317.188 211.739,317.188 210.904 C 317.188 210.493,317.100 210.156,316.992 210.156 C 316.885 210.156,316.797 210.435,316.797 210.776 M126.913 211.446 C 127.086 211.618,128.353 211.704,129.727 211.637 L 132.227 211.515 129.412 211.324 C 127.864 211.219,126.740 211.274,126.913 211.446 M150.103 212.390 C 150.697 212.479,151.576 212.477,152.056 212.384 C 152.537 212.292,152.051 212.218,150.977 212.221 C 149.902 212.224,149.509 212.300,150.103 212.390 M176.660 212.379 C 177.036 212.477,177.651 212.477,178.027 212.379 C 178.403 212.280,178.096 212.200,177.344 212.200 C 176.592 212.200,176.284 212.280,176.660 212.379 M247.168 212.392 C 247.866 212.479,249.009 212.479,249.707 212.392 C 250.405 212.305,249.834 212.234,248.438 212.234 C 247.041 212.234,246.470 212.305,247.168 212.392 M276.079 212.386 C 276.565 212.479,277.268 212.476,277.641 212.378 C 278.015 212.280,277.617 212.204,276.758 212.208 C 275.898 212.212,275.593 212.292,276.079 212.386 M302.832 212.379 C 303.208 212.477,303.823 212.477,304.199 212.379 C 304.575 212.280,304.268 212.200,303.516 212.200 C 302.764 212.200,302.456 212.280,302.832 212.379 M332.525 212.390 C 333.119 212.479,333.998 212.477,334.478 212.384 C 334.958 212.292,334.473 212.218,333.398 212.221 C 332.324 212.224,331.931 212.300,332.525 212.390 M359.478 212.390 C 360.072 212.479,360.951 212.477,361.431 212.384 C 361.912 212.292,361.426 212.218,360.352 212.221 C 359.277 212.224,358.884 212.300,359.478 212.390 M62.012 219.432 C 64.644 219.500,68.950 219.500,71.582 219.432 C 74.214 219.365,72.061 219.310,66.797 219.310 C 61.533 219.310,59.380 219.365,62.012 219.432 M35.616 236.527 C 35.725 236.637,47.742 236.732,62.319 236.738 C 82.470 236.747,88.964 236.863,89.409 237.222 C 89.867 237.593,89.932 237.593,89.708 237.220 C 89.492 236.859,90.537 236.714,94.028 236.620 C 96.560 236.552,84.409 236.458,67.025 236.412 C 49.640 236.366,35.506 236.418,35.616 236.527 " stroke="none" fill="#3c2b80" fill-rule="evenodd"></path><path id="path1" d="M63.625 172.185 C 55.839 176.252,58.771 187.891,67.581 187.891 C 76.562 187.891,78.946 175.179,70.618 171.700 C 68.384 170.767,66.026 170.931,63.625 172.185 M43.929 183.150 C 37.708 186.943,40.103 196.094,47.316 196.094 C 52.229 196.094,55.333 190.695,53.087 186.055 C 51.527 182.832,46.871 181.355,43.929 183.150 M85.203 183.090 C 79.014 186.139,81.352 196.094,88.258 196.094 C 95.148 196.094,97.519 186.322,91.389 183.194 C 89.550 182.256,86.984 182.213,85.203 183.090 M65.129 193.760 C 61.430 194.391,56.913 197.490,55.284 200.516 L 54.545 201.887 48.464 202.018 C 37.645 202.250,35.595 204.582,35.564 216.685 C 35.546 223.822,35.653 224.219,37.595 224.219 C 39.408 224.219,39.639 223.429,39.844 216.536 C 40.119 207.281,41.031 206.192,48.730 205.926 L 52.734 205.788 52.734 214.339 C 52.734 220.470,52.867 223.023,53.203 223.359 C 53.550 223.706,57.298 223.828,67.647 223.828 L 81.623 223.828 82.240 222.886 C 82.764 222.087,82.839 220.711,82.737 213.855 L 82.617 205.766 86.757 205.937 C 94.451 206.255,95.652 207.912,95.686 218.248 C 95.704 223.697,95.889 224.219,97.798 224.219 C 100.074 224.219,100.623 211.404,98.518 207.376 C 96.287 203.104,93.660 201.959,86.090 201.955 L 80.970 201.953 79.531 199.785 C 76.570 195.326,70.600 192.828,65.129 193.760 M71.843 198.673 C 76.531 200.624,78.216 204.281,78.439 212.988 L 78.606 219.531 67.577 219.531 L 56.549 219.531 56.726 213.184 C 57.070 200.895,63.152 195.057,71.843 198.673 " stroke="none" fill="#faf9fa" fill-rule="evenodd"></path><path id="path2" d="M50.684 156.933 C 59.761 156.992,74.614 156.992,83.691 156.933 C 92.769 156.875,85.342 156.827,67.188 156.827 C 49.033 156.827,41.606 156.875,50.684 156.933 M31.391 158.146 C 30.545 158.759,29.552 159.719,29.184 160.281 C 28.067 161.986,28.438 161.979,29.693 160.271 C 30.341 159.390,31.616 158.301,32.525 157.851 C 33.435 157.400,33.898 157.032,33.555 157.032 C 33.211 157.031,32.237 157.533,31.391 158.146 M100.781 157.310 C 101.104 157.430,101.719 157.689,102.148 157.887 C 102.917 158.240,102.918 158.237,102.171 157.639 C 101.754 157.305,101.139 157.045,100.804 157.062 C 100.278 157.089,100.275 157.123,100.781 157.310 M103.764 159.248 C 104.223 159.640,104.876 160.488,105.214 161.133 C 105.552 161.777,105.835 162.111,105.844 161.874 C 105.868 161.195,104.164 158.866,103.516 158.693 C 103.163 158.598,103.261 158.819,103.764 159.248 M27.825 195.925 C 27.718 234.348,27.559 233.127,32.975 235.586 C 35.582 236.770,98.940 236.703,101.563 235.514 C 102.529 235.075,103.408 234.702,103.516 234.685 C 103.757 234.645,105.469 232.348,105.469 232.064 C 105.469 231.950,104.945 232.431,104.305 233.132 C 101.616 236.076,103.683 235.920,67.188 235.920 C 30.978 235.920,32.924 236.056,30.396 233.350 C 28.253 231.056,28.336 232.378,28.118 196.680 L 27.915 163.477 27.825 195.925 M106.437 196.680 C 106.437 214.727,106.484 222.052,106.543 212.959 C 106.601 203.866,106.601 189.100,106.543 180.147 C 106.484 171.193,106.437 178.633,106.437 196.680 M247.949 177.619 C 248.433 177.713,249.224 177.713,249.707 177.619 C 250.190 177.526,249.795 177.450,248.828 177.450 C 247.861 177.450,247.466 177.526,247.949 177.619 M117.188 180.078 L 117.188 182.422 121.777 182.338 L 126.367 182.255 121.973 182.130 L 117.578 182.006 117.578 180.071 L 117.578 178.137 129.004 178.027 L 140.430 177.917 128.809 177.826 L 117.188 177.734 117.188 180.078 M257.158 181.587 C 257.948 182.739,258.594 183.867,258.594 184.093 C 258.594 184.320,258.703 184.396,258.837 184.262 C 259.140 183.958,257.311 180.794,256.399 180.047 C 256.027 179.742,256.368 180.435,257.158 181.587 M136.133 182.031 L 132.227 182.271 136.230 182.346 C 138.690 182.393,140.234 182.271,140.234 182.031 C 140.234 181.816,140.190 181.675,140.137 181.716 C 140.083 181.758,138.281 181.900,136.133 182.031 M244.654 182.402 C 243.490 183.112,242.558 184.302,242.594 185.033 C 242.602 185.208,242.879 184.854,243.209 184.245 C 243.541 183.633,244.538 182.808,245.440 182.398 C 246.336 181.991,246.807 181.655,246.484 181.651 C 246.162 181.647,245.338 181.985,244.654 182.402 M248.079 181.782 C 248.169 181.860,249.024 182.024,249.980 182.146 C 251.104 182.290,251.518 182.242,251.152 182.010 C 250.630 181.680,247.713 181.463,248.079 181.782 M131.641 196.484 L 131.641 210.938 129.497 210.938 L 127.353 210.938 127.246 196.582 L 127.139 182.227 127.046 196.777 L 126.953 211.328 129.492 211.328 L 132.031 211.328 132.031 196.680 C 132.031 188.623,131.943 182.031,131.836 182.031 C 131.729 182.031,131.641 188.535,131.641 196.484 M251.953 182.556 C 251.953 182.617,252.505 183.183,253.179 183.814 C 254.399 184.956,254.402 184.957,253.741 183.920 C 253.202 183.073,251.953 182.121,251.953 182.556 M238.016 186.719 C 238.016 188.115,238.087 188.687,238.173 187.988 C 238.260 187.290,238.260 186.147,238.173 185.449 C 238.087 184.751,238.016 185.322,238.016 186.719 M149.512 185.829 C 150.210 185.916,151.353 185.916,152.051 185.829 C 152.749 185.743,152.178 185.672,150.781 185.672 C 149.385 185.672,148.813 185.743,149.512 185.829 M204.053 186.368 C 203.167 186.798,202.024 187.616,201.514 188.185 L 200.586 189.220 201.931 188.126 C 203.507 186.845,204.626 186.366,207.031 185.946 L 208.789 185.639 207.227 185.612 C 206.367 185.598,204.939 185.938,204.053 186.368 M222.754 185.816 C 223.130 185.914,223.745 185.914,224.121 185.816 C 224.497 185.718,224.189 185.638,223.438 185.638 C 222.686 185.638,222.378 185.718,222.754 185.816 M274.805 185.741 C 275.693 186.042,280.613 186.213,279.883 185.918 C 279.453 185.744,278.047 185.603,276.758 185.605 C 275.469 185.607,274.590 185.668,274.805 185.741 M299.288 186.330 C 296.941 187.396,295.491 188.489,294.480 189.957 C 293.762 191.001,293.874 190.941,295.148 189.602 C 297.277 187.366,299.661 186.240,302.930 185.925 L 305.664 185.661 303.320 185.613 C 301.739 185.580,300.427 185.813,299.288 186.330 M330.273 185.914 C 329.830 186.090,330.760 186.150,332.422 186.050 C 336.238 185.822,336.798 185.609,333.594 185.605 C 332.197 185.603,330.703 185.742,330.273 185.914 M358.887 185.829 C 359.585 185.916,360.728 185.916,361.426 185.829 C 362.124 185.743,361.553 185.672,360.156 185.672 C 358.760 185.672,358.188 185.743,358.887 185.829 M154.928 186.569 C 157.944 187.639,160.690 190.689,161.744 194.141 C 161.944 194.796,162.053 194.888,162.076 194.421 C 162.214 191.558,156.588 185.798,153.821 185.968 C 153.546 185.985,154.044 186.256,154.928 186.569 M171.504 187.207 C 170.353 187.905,168.962 189.092,168.413 189.844 C 167.484 191.117,167.521 191.101,168.962 189.604 C 170.483 188.023,172.288 186.889,174.216 186.302 C 175.039 186.052,175.068 185.999,174.397 185.971 C 173.958 185.953,172.656 186.509,171.504 187.207 M190.113 186.245 C 190.369 186.408,190.644 187.503,190.725 188.680 L 190.871 190.820 190.943 188.379 C 191.005 186.285,190.918 185.938,190.332 185.943 C 189.873 185.947,189.801 186.046,190.113 186.245 M195.313 198.633 L 195.313 211.328 197.656 211.328 C 199.640 211.328,199.995 211.223,199.969 210.645 C 199.951 210.236,199.859 210.158,199.741 210.449 C 199.621 210.747,198.795 210.938,197.624 210.938 L 195.703 210.938 195.703 198.597 L 195.703 186.256 197.815 186.390 C 198.977 186.463,199.845 186.392,199.745 186.230 C 199.645 186.069,198.607 185.938,197.438 185.938 L 195.313 185.938 195.313 198.633 M220.094 186.545 C 219.348 187.143,219.348 187.147,220.117 186.793 C 220.547 186.595,221.162 186.336,221.484 186.216 C 221.991 186.029,221.987 185.995,221.461 185.968 C 221.126 185.951,220.511 186.211,220.094 186.545 M262.984 202.637 L 262.891 219.531 265.234 219.531 L 267.578 219.531 267.493 214.355 L 267.408 209.180 267.286 214.160 L 267.164 219.141 265.227 219.141 L 263.290 219.141 263.183 202.441 L 263.077 185.742 262.984 202.637 M267.309 188.086 C 267.311 189.375,267.384 189.855,267.471 189.153 C 267.558 188.451,267.556 187.396,267.467 186.809 C 267.377 186.222,267.306 186.797,267.309 188.086 M312.265 186.486 C 312.149 186.788,312.116 187.623,312.191 188.342 C 312.311 189.487,312.351 189.420,312.514 187.793 C 312.706 185.890,312.635 185.521,312.265 186.486 M316.319 198.437 L 316.427 210.938 314.491 210.938 C 312.793 210.938,312.533 210.829,312.385 210.059 C 312.240 209.305,312.208 209.333,312.163 210.254 C 312.110 211.312,312.144 211.328,314.453 211.328 L 316.797 211.328 316.797 198.633 C 316.797 191.650,316.665 185.937,316.504 185.937 C 316.343 185.937,316.260 191.562,316.319 198.437 M354.297 186.896 C 353.330 187.404,352.012 188.406,351.368 189.124 L 350.197 190.430 351.563 189.204 C 352.972 187.940,354.925 186.824,356.638 186.302 C 357.418 186.065,357.458 186.002,356.836 185.989 C 356.406 185.981,355.264 186.389,354.297 186.896 M228.711 186.784 C 230.181 187.597,231.353 188.867,232.074 190.430 C 232.471 191.289,232.799 191.764,232.804 191.485 C 232.828 190.064,229.617 186.310,228.404 186.340 C 228.143 186.347,228.281 186.546,228.711 186.784 M182.617 186.967 C 182.832 187.156,183.622 187.837,184.374 188.480 L 185.739 189.648 184.764 188.538 C 184.228 187.928,183.438 187.247,183.008 187.026 C 182.578 186.804,182.402 186.778,182.617 186.967 M213.696 188.116 C 214.435 188.992,215.118 189.645,215.215 189.568 C 215.312 189.490,214.707 188.774,213.872 187.975 L 212.354 186.523 213.696 188.116 M366.211 187.449 C 367.754 188.408,368.862 189.651,370.083 191.797 C 371.251 193.847,371.439 193.614,370.345 191.471 C 369.531 189.874,366.336 186.718,365.536 186.720 C 365.263 186.721,365.566 187.049,366.211 187.449 M284.544 189.080 C 285.603 190.252,286.526 191.284,286.594 191.374 C 286.663 191.463,286.719 191.453,286.719 191.352 C 286.719 190.909,284.789 188.609,283.752 187.817 C 283.052 187.282,283.356 187.766,284.544 189.080 M325.129 188.575 C 323.619 189.932,321.905 192.188,322.384 192.188 C 322.499 192.188,322.967 191.581,323.426 190.839 C 323.884 190.098,324.988 188.955,325.878 188.300 C 326.769 187.645,327.331 187.110,327.128 187.110 C 326.924 187.111,326.025 187.770,325.129 188.575 M341.406 188.867 C 342.135 189.619,342.819 190.234,342.927 190.234 C 343.034 190.234,342.526 189.619,341.797 188.867 C 341.068 188.115,340.384 187.500,340.276 187.500 C 340.169 187.500,340.677 188.115,341.406 188.867 M141.776 189.355 L 140.430 190.820 141.895 189.474 C 142.700 188.734,143.359 188.075,143.359 188.009 C 143.359 187.711,143.029 187.992,141.776 189.355 M274.251 189.596 C 274.341 189.674,275.557 189.831,276.953 189.944 C 278.444 190.065,279.170 190.017,278.711 189.829 C 277.955 189.518,273.922 189.308,274.251 189.596 M303.423 189.729 C 303.908 189.823,304.612 189.819,304.985 189.722 C 305.358 189.624,304.961 189.547,304.102 189.552 C 303.242 189.556,302.937 189.636,303.423 189.729 M332.520 189.733 C 333.110 189.822,334.077 189.822,334.668 189.733 C 335.259 189.643,334.775 189.570,333.594 189.570 C 332.412 189.570,331.929 189.643,332.520 189.733 M202.886 190.588 C 201.460 191.457,200.000 193.377,200.000 194.381 C 200.000 194.770,200.396 194.303,200.879 193.344 C 201.521 192.071,202.227 191.365,203.501 190.723 C 204.459 190.239,204.987 189.844,204.673 189.845 C 204.359 189.846,203.555 190.180,202.886 190.588 M280.046 190.759 C 280.605 191.455,282.031 192.370,282.031 192.033 C 282.031 191.932,281.460 191.449,280.762 190.960 C 279.861 190.328,279.653 190.270,280.046 190.759 M299.022 191.460 C 298.254 192.134,297.443 193.057,297.219 193.511 C 296.995 193.965,297.268 193.777,297.826 193.094 C 298.385 192.411,299.322 191.494,299.909 191.056 C 300.496 190.618,300.851 190.254,300.697 190.247 C 300.544 190.240,299.790 190.786,299.022 191.460 M155.854 191.604 C 157.409 193.478,157.540 193.599,157.115 192.769 C 156.894 192.337,156.301 191.635,155.798 191.209 C 154.915 190.463,154.917 190.476,155.854 191.604 M172.436 191.895 L 171.289 193.164 172.559 192.017 C 173.257 191.386,173.828 190.814,173.828 190.747 C 173.828 190.445,173.506 190.711,172.436 191.895 M210.546 191.699 C 211.057 192.397,211.536 192.969,211.611 192.969 C 211.907 192.969,210.939 191.504,210.298 190.983 C 209.876 190.641,209.971 190.914,210.546 191.699 M239.036 191.274 C 239.490 192.214,242.505 194.922,243.098 194.922 C 243.306 194.922,242.776 194.415,241.921 193.795 C 241.065 193.175,239.974 192.164,239.497 191.549 C 238.939 190.830,238.775 190.732,239.036 191.274 M308.711 191.058 C 309.098 191.283,309.933 192.183,310.566 193.058 C 311.200 193.933,311.719 194.478,311.719 194.270 C 311.719 193.682,308.980 190.624,308.466 190.637 C 308.214 190.643,308.324 190.833,308.711 191.058 M338.586 191.857 C 339.228 192.642,339.838 193.520,339.940 193.810 C 340.043 194.099,340.243 194.230,340.383 194.101 C 340.524 193.972,339.914 193.093,339.028 192.148 C 337.936 190.983,337.794 190.889,338.586 191.857 M354.883 190.924 C 354.668 191.082,354.234 191.563,353.918 191.992 C 353.494 192.569,353.622 192.526,354.406 191.826 C 355.362 190.974,355.653 190.614,355.371 190.631 C 355.317 190.634,355.098 190.766,354.883 190.924 M365.116 191.412 C 365.588 191.949,366.240 193.002,366.565 193.753 C 366.891 194.503,367.164 194.889,367.172 194.610 C 367.197 193.798,366.174 192.057,365.177 191.213 L 364.258 190.435 365.116 191.412 M139.630 192.224 C 139.286 192.888,139.074 193.501,139.159 193.586 C 139.244 193.671,139.605 193.127,139.963 192.378 C 140.766 190.693,140.488 190.564,139.630 192.224 M247.461 191.797 C 247.891 191.982,248.506 192.133,248.828 192.133 C 249.197 192.133,249.125 192.008,248.633 191.797 C 248.203 191.612,247.588 191.461,247.266 191.461 C 246.896 191.461,246.969 191.585,247.461 191.797 M348.892 192.400 C 348.237 193.836,348.362 194.142,349.070 192.837 C 349.400 192.227,349.597 191.655,349.508 191.565 C 349.419 191.476,349.141 191.851,348.892 192.400 M287.175 192.989 C 287.403 193.644,287.663 194.108,287.751 194.019 C 287.945 193.826,287.208 191.797,286.944 191.797 C 286.842 191.797,286.946 192.333,287.175 192.989 M216.972 193.933 C 216.542 194.963,216.406 197.163,216.406 203.112 L 216.406 210.938 214.461 210.938 L 212.516 210.938 212.402 202.832 L 212.288 194.727 212.199 203.027 L 212.109 211.328 214.453 211.328 L 216.797 211.328 216.797 203.308 C 216.797 197.188,216.931 194.966,217.363 193.933 C 217.674 193.188,217.841 192.578,217.734 192.578 C 217.626 192.578,217.284 193.188,216.972 193.933 M282.947 194.226 C 283.822 195.990,284.095 200.165,283.491 202.539 C 283.247 203.495,283.273 203.578,283.629 202.990 C 284.844 200.982,284.196 194.279,282.664 193.008 C 282.332 192.732,282.443 193.211,282.947 194.226 M66.504 193.249 C 67.095 193.338,68.062 193.338,68.652 193.249 C 69.243 193.159,68.760 193.086,67.578 193.086 C 66.396 193.086,65.913 193.159,66.504 193.249 M253.926 193.932 C 254.904 194.441,256.300 195.444,257.028 196.159 C 258.088 197.201,258.233 197.266,257.753 196.484 C 257.161 195.519,253.346 192.952,252.556 192.987 C 252.332 192.997,252.948 193.422,253.926 193.932 M371.393 196.680 C 371.502 198.398,371.655 199.878,371.733 199.967 C 372.004 200.278,371.796 195.503,371.496 194.531 C 371.331 193.994,371.284 194.961,371.393 196.680 M138.528 195.348 C 138.392 196.027,138.308 197.834,138.341 199.365 C 138.399 202.024,138.414 201.973,138.678 198.242 C 138.971 194.106,138.931 193.332,138.528 195.348 M233.203 202.539 L 233.203 210.938 231.258 210.938 L 229.313 210.938 229.199 203.027 L 229.084 195.117 228.995 203.223 L 228.906 211.328 231.250 211.328 L 233.594 211.328 233.594 202.734 C 233.594 198.008,233.506 194.141,233.398 194.141 C 233.291 194.141,233.203 197.920,233.203 202.539 M162.234 197.656 C 162.234 199.053,162.305 199.624,162.392 198.926 C 162.479 198.228,162.479 197.085,162.392 196.387 C 162.305 195.688,162.234 196.260,162.234 197.656 M325.250 196.176 C 325.118 196.668,325.034 198.037,325.063 199.219 C 325.112 201.255,325.129 201.214,325.393 198.438 C 325.687 195.349,325.646 194.698,325.250 196.176 M288.413 198.828 C 288.413 200.439,288.482 201.099,288.566 200.293 C 288.650 199.487,288.650 198.169,288.566 197.363 C 288.482 196.558,288.413 197.217,288.413 198.828 M347.768 197.852 C 347.771 198.926,347.847 199.319,347.937 198.725 C 348.026 198.131,348.024 197.252,347.931 196.772 C 347.839 196.292,347.765 196.777,347.768 197.852 M147.168 196.775 C 149.155 196.846,152.407 196.846,154.395 196.775 C 156.382 196.705,154.756 196.647,150.781 196.647 C 146.807 196.647,145.181 196.705,147.168 196.775 M356.543 196.775 C 358.530 196.846,361.782 196.846,363.770 196.775 C 365.757 196.705,364.131 196.647,360.156 196.647 C 356.182 196.647,354.556 196.705,356.543 196.775 M251.367 197.720 C 252.227 198.166,253.278 198.817,253.704 199.168 C 254.437 199.770,254.449 199.766,253.926 199.093 C 253.384 198.394,250.722 196.858,250.113 196.892 C 249.944 196.902,250.508 197.274,251.367 197.720 M320.880 199.852 C 321.128 205.779,325.816 211.815,330.078 211.695 C 330.400 211.685,329.714 211.313,328.553 210.867 C 324.234 209.209,321.682 205.453,321.088 199.882 L 320.747 196.680 320.880 199.852 M186.435 199.219 C 186.435 200.186,186.511 200.581,186.604 200.098 C 186.697 199.614,186.697 198.823,186.604 198.340 C 186.511 197.856,186.435 198.252,186.435 199.219 M190.716 198.828 C 190.716 199.580,190.796 199.888,190.894 199.512 C 190.993 199.136,190.993 198.521,190.894 198.145 C 190.796 197.769,190.716 198.076,190.716 198.828 M291.513 199.219 C 291.513 200.186,291.589 200.581,291.682 200.098 C 291.775 199.614,291.775 198.823,291.682 198.340 C 291.589 197.856,291.513 198.252,291.513 199.219 M66.706 198.330 C 67.408 198.417,68.463 198.415,69.050 198.326 C 69.637 198.237,69.063 198.166,67.773 198.168 C 66.484 198.170,66.004 198.243,66.706 198.330 M258.870 200.020 C 258.992 200.976,259.156 201.831,259.233 201.921 C 259.552 202.287,259.335 199.370,259.005 198.848 C 258.774 198.482,258.726 198.896,258.870 200.020 M73.047 199.717 C 73.047 199.792,73.618 200.271,74.316 200.782 C 75.102 201.358,75.375 201.452,75.032 201.030 C 74.512 200.389,73.047 199.421,73.047 199.717 M80.130 200.488 L 80.594 201.563 85.317 201.479 L 90.039 201.396 85.547 201.273 C 81.451 201.161,80.993 201.074,80.360 200.282 L 79.666 199.414 80.130 200.488 M60.006 201.564 C 59.229 202.424,58.594 203.250,58.594 203.400 C 58.594 203.549,58.726 203.505,58.888 203.301 C 59.050 203.097,59.787 202.271,60.527 201.465 C 61.267 200.659,61.770 200.000,61.646 200.000 C 61.521 200.000,60.783 200.704,60.006 201.564 M311.815 202.099 C 311.555 203.069,310.776 204.531,310.084 205.349 L 308.824 206.836 310.069 205.695 C 311.309 204.559,312.719 201.633,312.435 200.782 C 312.353 200.536,312.074 201.129,311.815 202.099 M190.716 201.953 C 190.716 202.705,190.796 203.013,190.894 202.637 C 190.993 202.261,190.993 201.646,190.894 201.270 C 190.796 200.894,190.716 201.201,190.716 201.953 M296.100 201.400 C 296.103 201.812,296.284 202.412,296.502 202.734 C 296.792 203.162,296.828 203.004,296.637 202.148 C 296.315 200.712,296.092 200.400,296.100 201.400 M47.183 201.461 C 48.534 201.538,50.644 201.537,51.871 201.460 C 53.098 201.383,51.992 201.320,49.414 201.321 C 46.836 201.322,45.832 201.385,47.183 201.461 M185.983 201.628 C 185.958 201.987,185.836 202.602,185.713 202.995 C 185.500 203.674,185.511 203.675,185.934 203.015 C 186.180 202.632,186.301 202.017,186.204 201.648 C 186.046 201.043,186.024 201.041,185.983 201.628 M254.738 202.539 C 254.708 203.398,254.419 204.608,254.096 205.226 C 253.584 206.208,253.583 206.289,254.088 205.870 C 254.763 205.311,255.223 203.243,254.970 201.907 C 254.856 201.307,254.774 201.532,254.738 202.539 M325.399 201.871 C 325.385 202.723,326.819 205.230,327.790 206.052 L 328.711 206.830 327.856 205.857 C 327.386 205.321,326.643 204.092,326.205 203.125 C 325.766 202.158,325.404 201.594,325.399 201.871 M287.932 202.539 C 287.796 204.707,285.268 208.527,282.813 210.276 C 281.889 210.933,281.908 210.933,283.144 210.271 C 285.443 209.039,288.598 204.101,288.157 202.425 C 288.014 201.882,287.972 201.903,287.932 202.539 M239.445 202.635 C 240.622 202.715,241.717 202.991,241.880 203.246 C 242.079 203.558,242.178 203.487,242.182 203.027 C 242.187 202.441,241.840 202.354,239.746 202.416 L 237.305 202.488 239.445 202.635 M267.984 202.774 C 267.963 203.649,269.534 205.853,270.703 206.589 C 271.446 207.057,271.375 206.911,270.406 205.980 C 269.705 205.307,268.877 204.170,268.566 203.453 C 268.254 202.735,267.992 202.430,267.984 202.774 M352.359 202.773 C 352.338 203.631,354.463 206.493,355.554 207.077 C 356.100 207.369,355.880 207.020,354.985 206.177 C 354.182 205.419,353.266 204.203,352.950 203.474 C 352.633 202.745,352.367 202.430,352.359 202.773 M143.359 203.713 C 143.359 204.837,147.302 208.297,147.900 207.699 C 147.995 207.604,147.518 207.298,146.842 207.018 C 146.166 206.737,145.105 205.808,144.486 204.953 C 143.866 204.098,143.359 203.540,143.359 203.713 M296.875 203.767 C 296.875 204.369,299.888 207.422,300.482 207.422 C 300.748 207.422,300.427 207.040,299.770 206.572 C 299.112 206.105,298.192 205.185,297.725 204.527 C 297.257 203.869,296.875 203.527,296.875 203.767 M339.339 205.191 L 338.249 206.836 339.534 205.371 C 340.888 203.829,343.802 203.229,344.273 204.395 C 344.390 204.686,344.482 204.608,344.500 204.199 C 344.574 202.559,340.574 203.327,339.339 205.191 M139.080 204.019 C 139.043 204.680,140.589 207.266,141.462 208.005 L 142.383 208.783 141.549 207.810 C 141.090 207.274,140.351 206.133,139.906 205.273 C 139.461 204.414,139.089 203.850,139.080 204.019 M281.862 205.371 C 281.018 206.450,280.950 206.631,281.605 206.059 C 282.388 205.375,283.421 203.906,283.119 203.906 C 283.058 203.906,282.492 204.565,281.862 205.371 M348.455 204.019 C 348.421 204.628,349.957 207.290,350.655 207.832 C 351.329 208.355,351.333 208.343,350.730 207.610 C 350.380 207.184,349.728 206.133,349.282 205.273 C 348.837 204.414,348.464 203.850,348.455 204.019 M166.411 204.513 C 166.403 205.204,168.570 208.338,169.769 209.371 C 170.827 210.282,170.819 210.257,169.656 208.981 C 168.972 208.231,167.964 206.826,167.414 205.859 C 166.865 204.893,166.414 204.287,166.411 204.513 M171.622 205.114 C 171.936 205.563,172.606 206.206,173.109 206.543 C 173.713 206.947,173.567 206.670,172.677 205.726 C 171.169 204.125,170.765 203.890,171.622 205.114 M369.922 204.688 C 370.679 205.177,371.094 205.177,371.094 204.688 C 371.094 204.473,370.698 204.300,370.215 204.303 C 369.504 204.308,369.448 204.381,369.922 204.688 M237.891 205.405 C 237.891 206.785,241.485 210.938,242.679 210.938 C 242.872 210.938,242.269 210.364,241.339 209.662 C 240.409 208.961,239.253 207.605,238.770 206.650 C 238.286 205.694,237.891 205.134,237.891 205.405 M343.546 205.887 C 343.145 207.151,340.404 209.991,339.040 210.556 C 338.394 210.824,337.943 211.120,338.037 211.214 C 338.375 211.552,340.456 210.193,341.848 208.724 C 343.340 207.150,344.336 205.533,344.013 205.211 C 343.907 205.105,343.697 205.410,343.546 205.887 M365.102 206.251 C 364.493 206.896,364.263 207.320,364.591 207.194 C 365.087 207.004,366.657 205.078,366.316 205.078 C 366.257 205.078,365.710 205.606,365.102 206.251 M82.978 214.453 C 82.978 219.072,83.035 220.962,83.104 218.652 C 83.173 216.343,83.173 212.563,83.104 210.254 C 83.035 207.944,82.978 209.834,82.978 214.453 M88.770 206.519 C 89.146 206.618,89.761 206.618,90.137 206.519 C 90.513 206.421,90.205 206.341,89.453 206.341 C 88.701 206.341,88.394 206.421,88.770 206.519 M160.246 207.186 C 160.011 207.701,159.148 208.614,158.327 209.216 C 156.192 210.780,155.857 211.160,157.362 210.309 C 158.740 209.531,160.938 207.267,160.938 206.627 C 160.938 206.002,160.696 206.197,160.246 207.186 M369.222 207.641 C 368.730 208.400,367.509 209.541,366.509 210.175 C 364.599 211.386,364.513 211.721,366.357 210.767 C 367.542 210.155,370.313 207.264,370.313 206.639 C 370.313 206.038,370.185 206.156,369.222 207.641 M251.953 207.286 C 251.415 207.570,251.240 207.801,251.563 207.801 C 252.236 207.801,253.388 207.148,253.114 206.923 C 253.012 206.840,252.490 207.003,251.953 207.286 M256.348 208.855 C 254.329 210.950,254.314 211.087,256.250 209.739 C 257.017 209.205,259.022 206.504,258.518 206.683 C 258.452 206.707,257.476 207.684,256.348 208.855 M57.156 209.766 C 57.156 211.162,57.227 211.733,57.314 211.035 C 57.400 210.337,57.400 209.194,57.314 208.496 C 57.227 207.798,57.156 208.369,57.156 209.766 M183.789 209.637 C 182.930 210.407,182.578 210.855,183.008 210.633 C 183.732 210.258,185.889 208.183,185.517 208.219 C 185.426 208.228,184.648 208.866,183.789 209.637 M296.076 209.549 C 296.758 210.370,298.823 211.463,299.125 211.162 C 299.248 211.038,299.168 210.938,298.948 210.938 C 298.727 210.938,297.868 210.477,297.038 209.914 C 296.208 209.350,295.775 209.186,296.076 209.549 M270.508 210.366 C 272.620 211.674,274.360 212.115,277.148 212.051 C 279.406 211.999,279.376 211.987,276.310 211.719 C 273.963 211.514,272.644 211.170,271.281 210.408 C 268.954 209.107,268.428 209.079,270.508 210.366 M190.625 210.332 C 190.625 210.745,190.016 210.937,188.379 211.039 L 186.133 211.180 188.574 211.254 C 190.780 211.321,191.016 211.253,191.016 210.547 C 191.016 210.117,190.928 209.766,190.820 209.766 C 190.713 209.766,190.625 210.021,190.625 210.332 M307.227 211.147 C 306.245 211.619,306.213 211.673,307.031 211.476 C 307.568 211.346,308.175 211.084,308.379 210.894 C 308.885 210.421,308.607 210.482,307.227 211.147 M95.078 216.602 C 95.079 219.824,95.139 221.091,95.213 219.416 C 95.286 217.741,95.286 215.104,95.212 213.556 C 95.138 212.009,95.078 213.379,95.078 216.602 M100.157 216.797 C 100.157 220.127,100.217 221.489,100.290 219.824 C 100.364 218.159,100.364 215.435,100.290 213.770 C 100.217 212.104,100.157 213.467,100.157 216.797 M146.094 211.310 C 146.416 211.528,147.017 211.709,147.428 211.713 C 148.428 211.721,148.116 211.497,146.680 211.176 C 145.824 210.984,145.666 211.021,146.094 211.310 M355.469 211.310 C 355.791 211.528,356.392 211.709,356.803 211.713 C 357.803 211.721,357.491 211.497,356.055 211.176 C 355.199 210.984,355.041 211.021,355.469 211.310 M174.023 211.743 C 174.453 211.914,175.947 212.053,177.344 212.051 C 180.548 212.047,179.988 211.834,176.172 211.606 C 174.510 211.507,173.580 211.566,174.023 211.743 M244.922 211.738 C 245.852 212.017,252.183 212.192,251.367 211.915 C 251.152 211.843,249.395 211.707,247.461 211.614 C 245.527 211.520,244.385 211.576,244.922 211.738 M333.594 211.719 L 330.664 211.969 333.398 212.012 C 334.902 212.035,336.484 211.903,336.914 211.719 C 337.347 211.533,337.434 211.402,337.109 211.426 C 336.787 211.450,335.205 211.581,333.594 211.719 M149.503 212.001 C 150.196 212.087,151.427 212.088,152.237 212.004 C 153.048 211.919,152.480 211.849,150.977 211.847 C 149.473 211.845,148.810 211.914,149.503 212.001 M302.441 211.999 C 303.032 212.088,303.999 212.088,304.590 211.999 C 305.181 211.909,304.697 211.836,303.516 211.836 C 302.334 211.836,301.851 211.909,302.441 211.999 M359.082 212.003 C 359.888 212.088,361.206 212.088,362.012 212.003 C 362.817 211.919,362.158 211.850,360.547 211.850 C 358.936 211.850,358.276 211.919,359.082 212.003 M39.998 217.383 C 39.998 220.391,40.060 221.569,40.134 220.002 C 40.208 218.435,40.208 215.974,40.133 214.534 C 40.058 213.093,39.997 214.375,39.998 217.383 M34.919 217.578 C 34.919 220.479,34.980 221.665,35.055 220.215 C 35.130 218.765,35.130 216.392,35.055 214.941 C 34.980 213.491,34.919 214.678,34.919 217.578 M57.165 215.430 C 57.167 217.148,57.235 217.803,57.318 216.884 C 57.400 215.965,57.399 214.559,57.315 213.759 C 57.231 212.959,57.164 213.711,57.165 215.430 M53.466 223.926 C 53.961 224.557,55.055 224.602,67.724 224.517 L 81.445 224.425 67.807 224.317 C 57.709 224.237,54.008 224.083,53.549 223.725 C 53.002 223.298,52.992 223.321,53.466 223.926 M37.500 224.219 L 36.133 224.507 37.379 224.558 C 38.065 224.586,38.734 224.434,38.867 224.219 C 39.000 224.004,39.054 223.851,38.988 223.880 C 38.922 223.908,38.252 224.060,37.500 224.219 " stroke="none" fill="#0f0928" fill-rule="evenodd"></path><path id="path3" d="M66.895 197.926 C 67.271 198.024,67.886 198.024,68.262 197.926 C 68.638 197.827,68.330 197.747,67.578 197.747 C 66.826 197.747,66.519 197.827,66.895 197.926 M46.777 201.852 C 48.120 201.928,50.317 201.928,51.660 201.852 C 53.003 201.775,51.904 201.713,49.219 201.713 C 46.533 201.713,45.435 201.775,46.777 201.852 M83.511 201.852 C 84.863 201.929,86.972 201.928,88.199 201.851 C 89.426 201.773,88.320 201.711,85.742 201.712 C 83.164 201.712,82.160 201.776,83.511 201.852 M56.796 214.063 C 56.796 217.178,56.857 218.452,56.931 216.895 C 57.005 215.337,57.005 212.788,56.931 211.230 C 56.857 209.673,56.796 210.947,56.796 214.063 M99.767 216.797 C 99.767 220.127,99.827 221.489,99.900 219.824 C 99.973 218.159,99.973 215.435,99.900 213.770 C 99.827 212.104,99.767 213.467,99.767 216.797 M35.311 217.188 C 35.311 220.303,35.372 221.577,35.446 220.020 C 35.520 218.462,35.520 215.913,35.446 214.355 C 35.372 212.798,35.311 214.072,35.311 217.188 M95.466 217.578 C 95.466 220.479,95.527 221.665,95.602 220.215 C 95.677 218.765,95.677 216.392,95.602 214.941 C 95.527 213.491,95.466 214.678,95.466 217.578 M60.815 224.120 C 64.507 224.185,70.659 224.185,74.487 224.121 C 78.314 224.057,75.293 224.004,67.773 224.004 C 60.254 224.004,57.122 224.056,60.815 224.120 " stroke="none" fill="#a69cbe" fill-rule="evenodd"></path><path id="path4" d="M105.859 163.672 C 105.859 164.401,105.964 164.505,106.328 164.141 C 106.693 163.776,106.693 163.568,106.328 163.203 C 105.964 162.839,105.859 162.943,105.859 163.672 M28.028 184.277 C 28.082 195.825,28.173 210.547,28.229 216.992 C 28.286 223.438,28.373 213.989,28.424 195.996 C 28.474 178.003,28.384 163.281,28.223 163.281 C 28.062 163.281,27.974 172.729,28.028 184.277 M65.504 170.727 C 63.782 171.149,62.346 171.851,62.628 172.134 C 62.736 172.241,63.234 172.108,63.736 171.838 C 65.119 171.095,67.476 170.762,68.973 171.100 C 69.726 171.270,70.313 171.249,70.313 171.053 C 70.313 170.860,70.071 170.703,69.775 170.703 C 69.480 170.703,68.733 170.627,68.115 170.533 C 67.498 170.440,66.323 170.527,65.504 170.727 M60.906 173.297 C 60.005 174.277,60.001 174.304,60.818 173.879 C 61.725 173.408,62.300 172.717,62.020 172.436 C 61.928 172.344,61.427 172.731,60.906 173.297 M75.000 175.293 C 75.000 175.479,75.255 175.973,75.567 176.390 C 76.113 177.122,76.125 177.117,75.910 176.263 C 75.688 175.382,75.000 174.648,75.000 175.293 M58.730 177.553 C 58.371 178.488,58.802 182.396,59.321 182.915 C 59.682 183.275,59.688 183.096,59.348 182.121 C 59.106 181.429,58.970 179.982,59.044 178.907 C 59.186 176.862,59.114 176.552,58.730 177.553 M75.977 179.492 C 75.977 180.633,76.106 181.363,76.264 181.115 C 76.641 180.522,76.645 177.832,76.270 177.599 C 76.108 177.500,75.977 178.352,75.977 179.492 M246.484 177.734 C 246.484 177.949,246.968 178.113,247.559 178.098 C 248.510 178.073,248.544 178.032,247.852 177.734 C 246.785 177.276,246.484 177.276,246.484 177.734 M139.710 179.850 C 139.850 181.188,139.752 181.617,139.273 181.763 C 138.801 181.908,138.819 181.937,139.348 181.890 C 140.099 181.824,140.646 178.125,139.904 178.125 C 139.696 178.125,139.610 178.888,139.710 179.850 M246.875 181.598 C 246.875 181.789,247.534 181.858,248.340 181.752 C 250.370 181.484,250.446 181.250,248.503 181.250 C 247.607 181.250,246.875 181.406,246.875 181.598 M45.557 181.952 C 45.451 182.123,46.056 182.255,46.900 182.245 C 47.744 182.235,48.436 182.095,48.436 181.934 C 48.438 181.540,45.801 181.557,45.557 181.952 M86.523 182.031 C 86.238 182.493,86.620 182.493,87.695 182.031 C 88.449 181.708,88.446 181.695,87.621 181.668 C 87.150 181.653,86.656 181.816,86.523 182.031 M120.987 181.923 C 121.681 182.009,122.911 182.010,123.722 181.926 C 124.532 181.841,123.965 181.771,122.461 181.769 C 120.957 181.767,120.294 181.836,120.987 181.923 M135.059 181.916 C 135.542 182.009,136.333 182.009,136.816 181.916 C 137.300 181.823,136.904 181.747,135.938 181.747 C 134.971 181.747,134.575 181.823,135.059 181.916 M43.578 182.630 C 43.161 182.945,42.995 183.203,43.210 183.203 C 43.425 183.203,43.942 182.945,44.359 182.630 C 44.776 182.314,44.941 182.056,44.727 182.056 C 44.512 182.056,43.995 182.314,43.578 182.630 M91.434 182.665 C 91.450 182.853,92.094 183.534,92.866 184.176 C 93.637 184.819,94.186 185.098,94.086 184.796 C 93.871 184.152,91.393 182.160,91.434 182.665 M75.123 183.496 C 74.989 183.872,74.806 184.355,74.715 184.570 C 74.625 184.785,74.828 184.620,75.166 184.203 C 75.780 183.445,75.966 182.813,75.574 182.813 C 75.460 182.813,75.257 183.120,75.123 183.496 M83.008 183.984 C 82.390 184.629,82.067 185.156,82.288 185.156 C 82.689 185.156,83.614 184.232,84.143 183.301 C 84.599 182.500,84.200 182.740,83.008 183.984 M61.129 185.933 C 61.744 186.576,62.328 187.021,62.427 186.922 C 62.663 186.686,60.847 184.781,60.376 184.772 C 60.175 184.769,60.514 185.291,61.129 185.933 M242.188 186.328 C 242.188 186.973,242.255 187.500,242.338 187.500 C 242.422 187.500,242.567 186.973,242.661 186.328 C 242.756 185.684,242.688 185.156,242.510 185.156 C 242.333 185.156,242.188 185.684,242.188 186.328 M187.173 186.281 C 186.837 186.493,187.222 186.612,188.247 186.612 C 189.125 186.612,189.844 186.460,189.844 186.275 C 189.844 185.842,187.858 185.846,187.173 186.281 M197.656 186.328 L 195.508 186.591 197.538 186.655 L 199.569 186.719 199.717 188.574 C 199.853 190.276,199.866 190.244,199.869 188.184 C 199.870 186.948,199.857 185.966,199.838 186.001 C 199.820 186.036,198.838 186.183,197.656 186.328 M263.281 186.267 C 263.281 186.666,266.089 186.797,266.662 186.426 C 266.910 186.265,266.250 186.096,265.197 186.050 C 264.143 186.005,263.281 186.103,263.281 186.267 M312.294 186.252 C 312.417 186.375,313.401 186.510,314.481 186.552 C 315.562 186.594,316.345 186.527,316.222 186.404 C 316.099 186.281,315.114 186.146,314.034 186.104 C 312.954 186.063,312.171 186.129,312.294 186.252 M39.950 188.281 C 39.950 189.248,40.026 189.644,40.119 189.160 C 40.213 188.677,40.213 187.886,40.119 187.402 C 40.026 186.919,39.950 187.314,39.950 188.281 M219.141 186.982 C 219.141 187.198,218.745 187.558,218.262 187.782 C 217.778 188.006,217.058 188.751,216.660 189.436 C 216.027 190.528,216.164 190.456,217.762 188.858 C 218.765 187.855,219.486 186.934,219.363 186.811 C 219.241 186.689,219.141 186.765,219.141 186.982 M257.153 187.075 C 254.378 187.413,254.177 187.809,256.812 187.747 C 258.139 187.715,259.047 187.507,259.162 187.207 C 259.266 186.938,259.312 186.743,259.265 186.774 C 259.218 186.804,258.268 186.940,257.153 187.075 M81.120 187.370 C 80.416 188.074,81.229 192.969,82.050 192.969 C 82.232 192.969,82.109 192.316,81.776 191.518 C 81.412 190.648,81.249 189.475,81.368 188.588 C 81.574 187.049,81.552 186.938,81.120 187.370 M95.115 189.060 C 95.116 190.093,95.249 190.857,95.410 190.758 C 95.793 190.524,95.791 187.601,95.408 187.364 C 95.246 187.264,95.114 188.027,95.115 189.060 M54.045 188.988 C 54.068 189.853,54.222 190.476,54.387 190.374 C 54.789 190.126,54.759 188.608,54.340 187.947 C 54.123 187.605,54.019 187.975,54.045 188.988 M268.664 189.108 C 267.864 189.942,267.345 190.625,267.510 190.625 C 267.675 190.625,268.497 189.922,269.336 189.063 C 270.175 188.203,270.694 187.520,270.489 187.546 C 270.285 187.571,269.463 188.274,268.664 189.108 M65.879 188.377 C 66.116 188.760,69.040 188.762,69.274 188.379 C 69.373 188.218,68.608 188.085,67.575 188.084 C 66.542 188.083,65.779 188.215,65.879 188.377 M149.219 189.427 C 149.219 189.627,149.757 189.776,150.414 189.758 C 151.207 189.735,151.437 189.614,151.098 189.399 C 150.405 188.959,149.219 188.977,149.219 189.427 M358.415 189.426 C 358.290 189.628,358.800 189.758,359.562 189.719 C 360.317 189.680,360.935 189.517,360.936 189.355 C 360.938 188.932,358.682 188.995,358.415 189.426 M330.371 189.907 C 329.780 190.123,329.297 190.447,329.297 190.628 C 329.297 190.808,329.824 190.693,330.469 190.371 C 331.375 189.919,332.124 189.301,331.543 189.484 C 331.489 189.501,330.962 189.691,330.371 189.907 M39.844 190.918 C 39.844 191.104,40.099 191.598,40.410 192.015 C 40.957 192.747,40.969 192.742,40.754 191.888 C 40.532 191.007,39.844 190.273,39.844 190.918 M183.125 191.260 C 183.596 192.141,184.705 193.167,184.926 192.927 C 185.003 192.842,184.534 192.254,183.883 191.619 C 183.068 190.824,182.832 190.712,183.125 191.260 M327.342 191.994 C 326.839 192.530,326.605 192.969,326.824 192.969 C 327.323 192.969,328.709 191.469,328.450 191.210 C 328.344 191.105,327.846 191.457,327.342 191.994 M93.305 194.107 C 92.798 194.518,92.485 194.957,92.609 195.082 C 92.734 195.207,93.248 194.871,93.751 194.334 C 94.839 193.177,94.601 193.056,93.305 194.107 M83.010 194.534 C 83.400 194.965,83.804 195.233,83.907 195.129 C 84.170 194.867,83.196 193.750,82.704 193.750 C 82.482 193.750,82.620 194.103,83.010 194.534 M341.313 194.026 C 341.799 194.120,342.502 194.116,342.876 194.018 C 343.249 193.921,342.852 193.844,341.992 193.849 C 341.133 193.853,340.827 193.933,341.313 194.026 M190.737 195.898 C 190.740 196.973,190.816 197.366,190.905 196.772 C 190.995 196.178,190.993 195.299,190.900 194.819 C 190.807 194.338,190.734 194.824,190.737 195.898 M46.095 196.582 C 46.094 196.743,46.621 196.875,47.266 196.875 C 47.910 196.875,48.438 196.706,48.438 196.500 C 48.438 196.294,47.911 196.162,47.266 196.207 C 46.622 196.252,46.095 196.421,46.095 196.582 M86.914 196.484 C 87.047 196.699,87.672 196.875,88.304 196.875 C 88.936 196.875,89.453 196.699,89.453 196.484 C 89.453 196.270,88.828 196.094,88.063 196.094 C 87.236 196.094,86.770 196.252,86.914 196.484 M77.820 197.258 C 78.086 197.684,78.567 198.133,78.889 198.256 C 79.210 198.380,79.052 198.032,78.536 197.483 C 77.412 196.286,77.165 196.208,77.820 197.258 M199.762 201.953 C 199.762 204.854,199.824 206.040,199.899 204.590 C 199.974 203.140,199.974 200.767,199.899 199.316 C 199.824 197.866,199.762 199.053,199.762 201.953 M267.425 197.493 C 267.095 198.352,267.128 199.918,267.480 200.132 C 267.642 200.230,267.795 199.537,267.822 198.592 C 267.874 196.744,267.796 196.526,267.425 197.493 M56.250 198.242 C 55.745 198.779,55.519 199.219,55.746 199.219 C 55.974 199.219,56.448 198.779,56.800 198.242 C 57.152 197.705,57.379 197.266,57.304 197.266 C 57.229 197.266,56.755 197.705,56.250 198.242 M165.234 199.000 C 165.234 199.740,165.410 200.453,165.625 200.586 C 165.861 200.732,166.016 200.199,166.016 199.242 C 166.016 198.370,165.840 197.656,165.625 197.656 C 165.410 197.656,165.234 198.261,165.234 199.000 M169.792 197.917 C 169.383 198.326,169.487 200.000,169.922 200.000 C 170.137 200.000,170.313 199.473,170.313 198.828 C 170.313 197.615,170.233 197.475,169.792 197.917 M312.200 199.219 C 312.200 199.971,312.280 200.278,312.379 199.902 C 312.477 199.526,312.477 198.911,312.379 198.535 C 312.280 198.159,312.200 198.467,312.200 199.219 M142.839 199.870 C 142.695 200.013,142.581 200.321,142.584 200.553 C 142.588 200.810,142.711 200.787,142.896 200.495 C 143.121 200.141,145.716 199.985,152.753 199.902 L 162.305 199.790 152.702 199.700 C 147.420 199.650,142.982 199.727,142.839 199.870 M354.004 199.896 C 355.024 199.977,356.694 199.977,357.715 199.896 C 358.735 199.816,357.900 199.750,355.859 199.750 C 353.818 199.750,352.983 199.816,354.004 199.896 M362.598 199.900 C 364.263 199.973,366.987 199.973,368.652 199.900 C 370.317 199.827,368.955 199.767,365.625 199.767 C 362.295 199.767,360.933 199.827,362.598 199.900 M74.580 201.301 C 75.575 202.397,75.789 202.532,75.769 202.051 C 75.762 201.890,75.279 201.420,74.695 201.008 L 73.633 200.258 74.580 201.301 M90.430 201.563 C 91.505 202.025,91.887 202.025,91.602 201.563 C 91.469 201.348,90.975 201.184,90.504 201.199 C 89.679 201.226,89.676 201.239,90.430 201.563 M238.184 203.010 C 238.667 203.103,239.458 203.103,239.941 203.010 C 240.425 202.917,240.029 202.841,239.063 202.841 C 238.096 202.841,237.700 202.917,238.184 203.010 M37.861 204.545 C 36.990 205.492,36.981 205.540,37.747 205.142 C 38.205 204.904,38.683 204.441,38.809 204.112 C 39.129 203.280,38.950 203.361,37.861 204.545 M96.180 203.970 C 96.264 204.221,96.762 204.696,97.287 205.027 L 98.242 205.628 97.295 204.572 C 96.273 203.432,95.941 203.253,96.180 203.970 M156.445 205.360 C 155.036 207.234,154.969 207.644,156.305 206.209 C 157.027 205.434,157.881 204.701,158.203 204.579 C 158.623 204.421,158.567 204.353,158.008 204.340 C 157.578 204.330,156.875 204.789,156.445 205.360 M242.969 205.974 C 243.291 206.253,243.796 206.737,244.091 207.049 C 244.550 207.535,244.565 207.497,244.199 206.784 C 243.964 206.326,243.459 205.842,243.077 205.709 C 242.473 205.498,242.459 205.532,242.969 205.974 M48.145 206.519 C 48.521 206.618,49.136 206.618,49.512 206.519 C 49.888 206.421,49.580 206.341,48.828 206.341 C 48.076 206.341,47.769 206.421,48.145 206.519 M51.270 206.518 C 51.892 206.682,51.953 207.407,51.953 214.677 C 51.953 219.066,52.085 222.656,52.246 222.656 C 52.407 222.656,52.539 219.000,52.539 214.530 L 52.539 206.404 51.563 206.371 C 50.990 206.351,50.869 206.412,51.270 206.518 M77.655 212.531 L 77.772 218.775 67.466 218.665 C 60.783 218.593,57.161 218.692,57.161 218.945 C 57.162 219.198,60.903 219.312,67.741 219.267 L 78.320 219.198 78.270 213.084 C 78.242 209.721,78.066 206.816,77.879 206.628 C 77.686 206.434,77.589 208.984,77.655 212.531 M84.269 206.532 C 84.962 206.618,86.193 206.620,87.003 206.535 C 87.813 206.451,87.246 206.380,85.742 206.378 C 84.238 206.376,83.575 206.446,84.269 206.532 M276.953 207.813 L 275.195 208.086 276.832 208.144 C 277.733 208.177,278.578 208.027,278.711 207.813 C 278.844 207.598,278.898 207.448,278.832 207.481 C 278.765 207.513,277.920 207.662,276.953 207.813 M362.722 207.769 C 362.586 207.989,362.235 208.077,361.941 207.964 C 361.647 207.851,361.291 207.947,361.149 208.176 C 360.831 208.691,362.084 208.721,362.879 208.218 C 363.195 208.019,363.345 207.746,363.211 207.612 C 363.078 207.479,362.858 207.550,362.722 207.769 M141.767 208.738 C 142.825 209.885,143.033 209.998,142.754 209.269 C 142.649 208.996,142.171 208.533,141.692 208.241 C 140.861 207.734,140.864 207.757,141.767 208.738 M151.367 208.203 C 150.210 208.498,150.213 208.502,151.683 208.548 C 152.586 208.576,153.076 208.440,152.930 208.203 C 152.797 207.988,152.655 207.833,152.614 207.859 C 152.573 207.884,152.012 208.039,151.367 208.203 M178.040 208.295 C 178.699 208.613,179.051 208.606,179.388 208.269 C 179.735 207.921,179.523 207.819,178.496 207.839 C 177.230 207.864,177.203 207.892,178.040 208.295 M247.070 208.203 C 247.203 208.418,248.048 208.591,248.949 208.588 C 250.150 208.583,250.430 208.481,250.000 208.203 C 249.217 207.697,246.758 207.697,247.070 208.203 M294.531 208.107 C 294.531 208.322,294.795 208.717,295.117 208.984 C 295.444 209.256,295.703 209.298,295.703 209.080 C 295.703 208.865,295.439 208.471,295.117 208.203 C 294.790 207.932,294.531 207.890,294.531 208.107 M332.227 208.203 C 332.359 208.418,332.985 208.594,333.617 208.594 C 334.249 208.594,334.766 208.418,334.766 208.203 C 334.766 207.988,334.140 207.813,333.375 207.813 C 332.548 207.813,332.083 207.971,332.227 208.203 M310.656 208.691 C 309.448 210.253,309.607 210.626,310.864 209.180 C 311.331 208.643,311.560 208.203,311.373 208.203 C 311.186 208.203,310.863 208.423,310.656 208.691 M34.766 211.393 C 34.766 212.816,34.936 212.764,35.304 211.230 C 35.457 210.593,35.400 210.156,35.164 210.156 C 34.945 210.156,34.766 210.713,34.766 211.393 M94.922 222.422 C 94.922 223.053,95.721 224.142,96.367 224.390 C 96.880 224.587,96.809 224.377,96.085 223.557 C 95.553 222.954,95.073 222.388,95.020 222.298 C 94.966 222.209,94.922 222.264,94.922 222.422 M105.859 228.711 C 105.859 229.248,106.011 229.688,106.196 229.688 C 106.381 229.688,106.448 229.248,106.346 228.711 C 106.243 228.174,106.092 227.734,106.009 227.734 C 105.927 227.734,105.859 228.174,105.859 228.711 " stroke="none" fill="#0c054f" fill-rule="evenodd"></path></g></svg>