<?xml version="1.0" encoding="UTF-8"?>
<svg version="1.1" xmlns="http://www.w3.org/2000/svg" width="655" height="220">
<path d="M0 0 C3.65510736 2.67019819 6.82013141 5.79148394 10 9 C10.20625 8.443125 10.4125 7.88625 10.625 7.3125 C13.21022411 2.96462309 17.375496 -0.05194887 22 -2 C30.14657205 -3.56859462 36.78510735 -3.23141375 44.1875 0.6875 C49.36895856 4.94781037 52.24786328 9.51839135 54 16 C54.31638648 19.52448088 54.34819053 23.04098305 54.37890625 26.578125 C54.39590073 27.58591003 54.4128952 28.59369507 54.43040466 29.63201904 C54.48335841 32.83794976 54.52377047 36.04386838 54.5625 39.25 C54.60642696 42.47035037 54.6530801 45.69060091 54.70530701 48.91082764 C54.73727108 50.91176831 54.76415899 52.91279763 54.78553772 54.91387939 C54.79902756 55.81531677 54.8125174 56.71675415 54.82641602 57.64550781 C54.83592789 58.44015442 54.84543976 59.23480103 54.85523987 60.05352783 C54.88215778 62.08068734 54.88215778 62.08068734 56 64 C55.34 64.66 54.68 65.32 54 66 C54 66.33 54 66.66 54 67 C49.33333333 67 44.66666667 67 40 67 C40.33 66.34 40.66 65.68 41 65 C40.67215268 62.99909339 40.33790684 60.99923237 40 59 C39.99598436 56.8912876 40.05111158 54.78187479 40.15625 52.67578125 C40.20910156 51.48146484 40.26195312 50.28714844 40.31640625 49.05664062 C40.43784668 46.58003109 40.56022738 44.10346747 40.68359375 41.62695312 C41.7550995 27.189794 41.7550995 27.189794 37 14 C33.34374768 10.77389501 29.90655131 10.53154945 25.2109375 10.71875 C20.39644184 11.33119468 17.77016322 13.08413023 14.6875 16.75 C11.71947543 22.46619546 11.88154908 28.38934348 11.9375 34.7265625 C11.94128662 35.43726898 11.94507324 36.14797546 11.94897461 36.88021851 C11.96108281 39.12854401 11.97971054 41.3767344 12 43.625 C12.02668878 46.5963509 12.0466256 49.56763633 12.0625 52.5390625 C12.07410156 53.85084473 12.08570313 55.16262695 12.09765625 56.51416016 C12.01401111 59.49987345 11.70533274 62.10855229 11 65 C7.79984144 66.06671952 6.11455706 65.94845472 2.8125 65.5625 C1.91144531 65.46066406 1.01039063 65.35882813 0.08203125 65.25390625 C-0.60503906 65.17011719 -1.29210937 65.08632812 -2 65 C-2.00586624 64.44956024 -2.01173248 63.89912048 -2.01777649 63.33200073 C-2.08184603 57.58883811 -2.16630024 51.84622884 -2.26245117 46.10351562 C-2.29564938 43.9619884 -2.32369714 41.82037476 -2.34643555 39.67871094 C-2.38007504 36.59532946 -2.43239654 33.51273631 -2.48828125 30.4296875 C-2.49467117 29.47633514 -2.5010611 28.52298279 -2.50764465 27.54074097 C-2.62300578 22.29270482 -3.0628161 18.53442639 -6 14 C-9.77023961 10.57250944 -13.67092735 10.48492385 -18.5625 10.65234375 C-22.24866644 11.17809505 -24.28983949 12.48814391 -27 15 C-30.4512132 20.32094378 -30.46963044 25.07559649 -30.51171875 31.2109375 C-30.52966995 32.17907379 -30.54762115 33.14721008 -30.56611633 34.14468384 C-30.62007795 37.22141227 -30.65406989 40.2979868 -30.6875 43.375 C-30.72068553 45.46746926 -30.75517633 47.55991826 -30.79101562 49.65234375 C-30.87579646 54.76811789 -30.94267528 59.88384751 -31 65 C-31.77085937 65.06058594 -32.54171875 65.12117188 -33.3359375 65.18359375 C-34.33882812 65.26738281 -35.34171875 65.35117188 -36.375 65.4375 C-37.37273437 65.51871094 -38.37046875 65.59992188 -39.3984375 65.68359375 C-41.97927613 65.84965626 -41.97927613 65.84965626 -44 67 C-45.15326328 59.68934834 -45.1276612 52.48345706 -45.09765625 45.09375 C-45.09578772 43.75996962 -45.09436587 42.42618854 -45.09336853 41.09240723 C-45.0895776 37.60723933 -45.07977715 34.1221141 -45.06866455 30.63696289 C-45.05837623 27.07048113 -45.05385511 23.50399237 -45.04882812 19.9375 C-45.0381513 12.95831597 -45.02111676 5.97916004 -45 -1 C-42.23547967 -2.38226016 -39.9538637 -2.09525387 -36.875 -2.0625 C-35.77929688 -2.05347656 -34.68359375 -2.04445313 -33.5546875 -2.03515625 C-32.71164063 -2.02355469 -31.86859375 -2.01195313 -31 -2 C-30.67 0.31 -30.34 2.62 -30 5 C-29.50371094 4.59007813 -29.00742188 4.18015625 -28.49609375 3.7578125 C-19.70373925 -3.21600948 -10.23587121 -5.42963699 0 0 Z " fill="#3C287B" transform="translate(245,86)"/>
<path d="M0 0 C1.96822886 1.96822886 1.66248381 5.34808709 2 8 C2.46148437 7.60167969 2.92296875 7.20335938 3.3984375 6.79296875 C10.62862991 0.92022353 17.21359905 -1.35957311 26.5625 -1 C36.14639011 0.07987494 42.1875884 4.19159113 48.2734375 11.5625 C54.47702026 20.32049919 56.03876554 30.77121356 54.5234375 41.31640625 C52.57977252 49.84930911 49.58683482 56.05578321 43 62 C42.29875 62.70125 41.5975 63.4025 40.875 64.125 C32.68488662 69.46637829 23.4019966 69.80994508 14 68 C9.34376791 66.36662335 5.94988698 63.96241524 2 61 C1.67 69.58 1.34 78.16 1 87 C-4 88 -4 88 -12 88 C-12.33 59.62 -12.66 31.24 -13 2 C-5 -1.42857143 -5 -1.42857143 0 0 Z M20 11 C19.67 11.33 19.34 11.66 19 12 C18.113125 12.103125 17.22625 12.20625 16.3125 12.3125 C10.63290048 13.49128481 7.3195649 16.16740116 4.1875 20.9375 C0.36407649 27.61623658 0.05882504 34.95115467 1.4609375 42.47265625 C3.01409303 47.94524543 5.06213919 50.89097652 10 54 C16.3135859 57.09631799 22.16096371 57.71267178 29 56 C35.08750382 52.84351654 38.8719228 48.50245811 41 42 C41.81997742 33.57139492 41.98254384 25.20047872 37 18 C32.30792374 12.62127844 27.03199306 11.5031409 20 11 Z " fill="#3A2676" transform="translate(386,84)"/>
<path d="M0 0 C5.46176096 4.51188949 9.27530436 10.10121743 11 17 C11 18.98 11 20.96 11 23 C6.38 23 1.76 23 -3 23 C-3.2475 21.7625 -3.495 20.525 -3.75 19.25 C-4.70841611 15.4565488 -5.77930579 13.3925157 -9 11 C-13.40403157 8.48341053 -18.05794972 8.42574768 -23 9 C-27.06662662 10.55271198 -28.57519602 11.36279402 -31 15 C-31.64216183 19.05457991 -31.74905624 22.74022359 -29.625 26.3125 C-24.56936737 29.56254955 -19.02569712 31.38951594 -13.29296875 33.1171875 C-2.85757927 36.26532304 4.48011875 40.285009 10 50 C12.19933731 56.59801194 11.95008782 64.73578432 9.1015625 71.125 C5.21419908 77.7417888 0.30073264 82.46621632 -7 85 C-16.62838105 87.32843202 -26.21786161 86.72481663 -35 82 C-41.57131174 77.19007079 -44.50579495 73.80358593 -46.0625 65.8125 C-46.23910156 64.91144531 -46.41570312 64.01039063 -46.59765625 63.08203125 C-46.73042969 62.39496094 -46.86320312 61.70789063 -47 61 C-42.47806839 58.7390342 -38.96161052 58.59987012 -34 59 C-32 60.5 -32 60.5 -31 62 C-31.66 62 -32.32 62 -33 62 C-32.16796447 66.7585667 -32.16796447 66.7585667 -29.25 70.3125 C-28.5075 70.539375 -27.765 70.76625 -27 71 C-25.6078125 71.556875 -25.6078125 71.556875 -24.1875 72.125 C-18.39701909 73.71454378 -13.50930133 73.37901648 -8 71 C-5.12937346 69.15459722 -4.84830044 67.56657269 -3.6875 64.25 C-2.77008186 59.98439771 -3.14289409 57.02372948 -5 53 C-10.64311263 48.40257597 -17.23660519 46.83595075 -24.125 44.8203125 C-32.28786192 42.27970994 -39.23638066 38.32864514 -44 31 C-47.13124961 23.95468837 -46.65632208 17.242927 -44.03515625 10.171875 C-40.82213198 3.43058634 -35.90489924 -0.40017964 -29 -3 C-19.79758179 -5.98078329 -8.26370856 -4.91658629 0 0 Z " fill="#3D287D" transform="translate(355,67)"/>
<path d="M0 0 C1.83837134 1.57830905 3.38444509 3.18250073 5 5 C5 2.36 5 -0.28 5 -3 C8.96 -3 12.92 -3 17 -3 C17.33 -3.66 17.66 -4.32 18 -5 C18 17.44 18 39.88 18 63 C13.71 63 9.42 63 5 63 C5 61.02 5 59.04 5 57 C2.26763013 57 1.50714486 58.1272999 -0.5625 59.875 C-7.51376174 65.15396538 -14.48463168 65.54799925 -23.0078125 64.59375 C-31.73676748 62.86163361 -38.0684271 58.34489581 -43 51 C-48.63628893 40.55224492 -49.67614258 29.59324968 -46.75 18 C-44.64739999 11.29919063 -41.1229982 6.74814467 -36 2 C-35.319375 1.29875 -34.63875 0.5975 -33.9375 -0.125 C-23.75230827 -6.62618621 -10.01606768 -6.88887913 0 0 Z M-29.875 13.6875 C-34.92522659 19.99165528 -35.86008386 27.08454073 -35 35 C-33.74333502 41.01824711 -31.88404199 45.04625172 -27 49 C-25.948125 49.86625 -25.948125 49.86625 -24.875 50.75 C-19.62782853 53.0313789 -14.05702035 53.75249732 -8.4609375 52.375 C-2.41955013 49.95036293 1.21935121 46.63653627 4.109375 40.734375 C6.73229314 32.68155616 5.7421309 23.48426179 2 16 C0.59394927 13.56111818 0.59394927 13.56111818 -1 12 C-1.66 12 -2.32 12 -3 12 C-3.4125 11.54625 -3.825 11.0925 -4.25 10.625 C-7.30861994 7.78485291 -10.80771796 7.12959587 -14.875 6.6875 C-21.1615103 7.31615103 -25.48167917 9.03843493 -29.875 13.6875 Z " fill="#3D287C" transform="translate(172,88)"/>
<path d="M0 0 C2.77659359 2.24333084 3.90408185 3.40444576 4.48101807 6.9866333 C4.4676944 8.732034 4.4676944 8.732034 4.45410156 10.51269531 C4.45468567 11.15701508 4.45526978 11.80133484 4.45587158 12.46517944 C4.45309334 14.58671677 4.42201774 16.70683436 4.390625 18.828125 C4.38316159 20.30213656 4.37746912 21.77615806 4.37347412 23.25018311 C4.3582254 27.12365267 4.31895107 30.99651916 4.2746582 34.86975098 C4.23368852 38.82454267 4.21545954 42.77943212 4.1953125 46.734375 C4.15245511 54.48988968 4.08211257 62.2447834 4 70 C-2.435 70.495 -2.435 70.495 -9 71 C-9.495 67.535 -9.495 67.535 -10 64 C-10.66 64.4125 -11.32 64.825 -12 65.25 C-12.99 65.8275 -13.98 66.405 -15 67 C-15.56976563 67.34804687 -16.13953125 67.69609375 -16.7265625 68.0546875 C-24.23090259 72.28552944 -32.57336154 73.03159366 -40.87890625 70.78125 C-48.98806482 67.79445126 -55.23100925 62.1377439 -59.32421875 54.54296875 C-61.677982 49.16647796 -62.43260852 44.84021497 -62 39 C-62.66 38.67 -63.32 38.34 -64 38 C-61.25500672 24.98550243 -58.41421639 14.65653123 -47.24609375 6.375 C-40.35155919 2.1543458 -32.30131582 1.1858241 -24.375 2.5625 C-19.24749634 3.88841867 -15.18668582 6.85256243 -11 10 C-11 9.01 -11 8.02 -11 7 C-10.34 7 -9.68 7 -9 7 C-8.67 5.68 -8.34 4.36 -8 3 C-5.69 3.33 -3.38 3.66 -1 4 C-0.67 2.68 -0.34 1.36 0 0 Z M-42.0546875 18.7734375 C-48.10339708 25.32411468 -49.50164607 31.07907029 -49.3046875 39.8984375 C-48.64144962 46.64985899 -46.61415626 52.09755104 -41.375 56.5625 C-36.0474574 60.0417115 -30.81963136 60.54922804 -24.609375 59.65625 C-18.28432193 58.02120227 -14.52618911 54.39947707 -11 49 C-7.83007543 41.41974561 -8.17950471 33.68904814 -11.0234375 26.07421875 C-13.6144023 20.57100951 -17.2405376 17.14568207 -23 15 C-30.09467841 13.37171315 -36.35094169 13.85043256 -42.0546875 18.7734375 Z M-10 61 C-9 63 -9 63 -9 63 Z " fill="#3D287C" transform="translate(509,81)"/>
<path d="M0 0 C6.7762069 5.96982527 11.24425517 13.93106199 12 23 C12.11071872 26.00450333 12.21478791 28.9992866 12 32 C10.38756815 33.61243185 8.61946654 33.16538039 6.38842773 33.20532227 C5.40748642 33.22526749 4.4265451 33.24521271 3.4158783 33.26576233 C2.3492244 33.28247482 1.2825705 33.29918732 0.18359375 33.31640625 C-0.9025975 33.33718735 -1.98878876 33.35796844 -3.1078949 33.37937927 C-6.59269627 33.44499442 -10.07757568 33.50381511 -13.5625 33.5625 C-15.91862801 33.60567385 -18.27474799 33.64928776 -20.63085938 33.69335938 C-26.42048937 33.80068792 -32.21019775 33.90243165 -38 34 C-37.39079765 35.78269669 -36.77171661 37.56201976 -36.1484375 39.33984375 C-35.80474121 40.33105225 -35.46104492 41.32226074 -35.10693359 42.34350586 C-33.22708215 46.85490056 -30.5395589 48.3002005 -26.25 50.25 C-19.47426324 51.81363156 -13.89831316 51.71153904 -7.73046875 48.2890625 C-4.99114709 46.24848429 -3.62715414 43.98311592 -2 41 C-1.67 41.66 -1.34 42.32 -1 43 C0.32 42.01 1.64 41.02 3 40 C3 40.99 3 41.98 3 43 C5.31 42.67 7.62 42.34 10 42 C9.44952733 47.87170849 6.36151414 52.65947709 2.2421875 56.7421875 C-4.35728825 62.11261109 -12.1359905 64.62080356 -20.640625 64.2890625 C-31.15018556 63.00146733 -38.55731488 59.32196731 -45.390625 51.21875 C-51.61091563 42.64320369 -52.69829691 33.34513941 -52 23 C-50.35192022 13.3908569 -45.4170076 5.27000493 -37.78515625 -0.78515625 C-26.52252109 -8.44966289 -11.00009943 -7.68291174 0 0 Z M-34.375 12.5 C-36.94034308 16.44668166 -38 18.17575638 -38 23 C-25.79 23 -13.58 23 -1 23 C-3.75310189 12.9764086 -3.75310189 12.9764086 -11 7 C-19.72069841 4.18013345 -28.03559779 5.82694504 -34.375 12.5 Z " fill="#3A2676" transform="translate(106,89)"/>
<path d="M0 0 C7.20159019 6.35678826 11.3025546 14.41012572 12 24 C12.10628555 26.69095691 12.09301178 29.30265851 12 32 C10.38756815 33.61243185 8.61946654 33.16538039 6.38842773 33.20532227 C5.40748642 33.22526749 4.4265451 33.24521271 3.4158783 33.26576233 C2.3492244 33.28247482 1.2825705 33.29918732 0.18359375 33.31640625 C-0.9025975 33.33718735 -1.98878876 33.35796844 -3.1078949 33.37937927 C-6.59269627 33.44499442 -10.07757568 33.50381511 -13.5625 33.5625 C-15.91862801 33.60567385 -18.27474799 33.64928776 -20.63085938 33.69335938 C-26.42048937 33.80068792 -32.21019775 33.90243165 -38 34 C-37.53930547 35.44143688 -37.07346438 36.88122952 -36.60546875 38.3203125 C-36.21717896 39.52324951 -36.21717896 39.52324951 -35.82104492 40.75048828 C-34.45681907 44.48821561 -32.79674533 46.99137251 -29.28125 48.96484375 C-23.62895805 51.39846945 -17.7439148 52.25246071 -11.828125 50.2734375 C-8.27475808 48.63033926 -6.1083075 47.11887409 -3.4375 44.1875 C-1 42 -1 42 2.8125 42.1875 C3.864375 42.455625 4.91625 42.72375 6 43 C6 42.34 6 41.68 6 41 C7.32 41.33 8.64 41.66 10 42 C8.99556741 48.49456984 5.83553633 53.53067685 0.8828125 57.84375 C-7.37728267 63.67440541 -15.81175977 65.22200084 -25.734375 63.53515625 C-35.00202132 61.37185207 -41.49371596 56.80056905 -47 49 C-52.19855954 39.25270086 -53.73081687 28.65990842 -50.875 17.875 C-47.60083331 8.23609806 -41.50022238 0.79835876 -32.4375 -3.8125 C-21.52318738 -7.58289891 -9.53574619 -6.76567908 0 0 Z M-33.8125 11.25 C-36.35325665 14.44409407 -37.24688422 17.00848635 -38 21 C-37.67 21.66 -37.34 22.32 -37 23 C-25.12 23 -13.24 23 -1 23 C-3.75310189 12.9764086 -3.75310189 12.9764086 -11 7 C-19.2655774 4.30542177 -27.04801927 5.83841541 -33.8125 11.25 Z " fill="#3D287B" transform="translate(642,89)"/>
<path d="M0 0 C5.22692276 4.62419631 8.0481239 9.34065801 10 16 C10 16.66 10 17.32 10 18 C5.61636122 18.34207586 1.37267318 18.53298753 -3 18 C-5.5 15.25 -5.5 15.25 -7 12 C-10.70562751 7.96740536 -14.15188813 7.224829 -19.4375 6.90234375 C-24.88898349 7.11009846 -28.63732654 8.8795796 -32.8125 12.3125 C-37.57355969 18.1618019 -39 23.56264418 -39 31 C-38.29673384 37.84585651 -36.13472357 43.1502513 -30.9375 47.875 C-28.9410107 49.25106776 -28.9410107 49.25106776 -26 49 C-26 49.66 -26 50.32 -26 51 C-19.54405705 51.35719357 -13.71124863 51.3525427 -8 48 C-5.66369252 45.60140956 -5.66369252 45.60140956 -4 43 C-2.78125 41.35546875 -2.78125 41.35546875 -1 40 C1.91796875 39.70703125 1.91796875 39.70703125 5.1875 39.8125 C6.27417969 39.83957031 7.36085938 39.86664063 8.48046875 39.89453125 C9.72763672 39.94673828 9.72763672 39.94673828 11 40 C7.84152196 49.52304937 3.91138927 56.0624356 -4.9609375 61.1171875 C-13.57435651 65.06657176 -22.63531994 64.99985437 -31.515625 62.03515625 C-40.53845853 58.27564228 -46.96000744 52.20122661 -50.8125 43.1875 C-54.40790759 32.20866612 -53.52502414 20.51800041 -48.4375 10.1875 C-43.94089123 2.58713445 -37.28494126 -2.18624637 -29 -5 C-18.79169876 -7.09546267 -8.62287917 -6.12239576 0 0 Z " fill="#3C287B" transform="translate(574,89)"/>
<path d="M0 0 C1.06367294 0.00222061 2.12734589 0.00444122 3.22325134 0.00672913 C5.02500572 0.00684242 5.02500572 0.00684242 6.86315918 0.00695801 C8.17042465 0.01211929 9.47769012 0.01728058 10.8245697 0.02259827 C12.16835477 0.02446253 13.51214052 0.02588639 14.85592651 0.02688599 C18.39873622 0.0307105 21.94150515 0.0405402 25.48429871 0.05158997 C29.09706572 0.06180552 32.7098393 0.06638392 36.32261658 0.07142639 C43.41573384 0.08216254 50.5088167 0.09975879 57.60191345 0.12025452 C57.60191345 4.41025452 57.60191345 8.70025452 57.60191345 13.12025452 C50.34191345 13.12025452 43.08191345 13.12025452 35.60191345 13.12025452 C35.60191345 37.87025452 35.60191345 62.62025452 35.60191345 88.12025452 C31.31191345 88.12025452 27.02191345 88.12025452 22.60191345 88.12025452 C21.37344431 85.66331622 21.4878673 84.08467594 21.5042572 81.33851624 C21.50756042 80.34343048 21.51086365 79.34834473 21.51426697 78.32310486 C21.52256531 77.24296112 21.53086365 76.16281738 21.53941345 75.04994202 C21.54320007 73.93974701 21.54698669 72.829552 21.55088806 71.68571472 C21.56725608 66.92491691 21.59523919 62.16420408 21.62242126 57.40345764 C21.64057427 53.93145651 21.65263208 50.4594697 21.66441345 46.98744202 C21.67271179 45.91944366 21.68101013 44.85144531 21.68955994 43.75108337 C21.70798975 38.09363523 21.36219661 32.72172374 20.60191345 27.12025452 C21.01975875 22.39428006 21.83547816 17.80903512 22.60191345 13.12025452 C14.02191345 13.12025452 5.44191345 13.12025452 -3.39808655 13.12025452 C-3.39808655 0.17040055 -3.39808655 0.17040055 0 0 Z " fill="#3D297F" transform="translate(3.3980865478515625,62.87974548339844)"/>
<path d="M0 0 C3.3 0 6.6 0 10 0 C10.1953125 2.31119792 10.390625 4.62239583 10.5859375 6.93359375 C10.72257813 7.61550781 10.85921875 8.29742187 11 9 C11.66 9.33 12.32 9.66 13 10 C12.11724016 16.55764453 12.11724016 16.55764453 11.47767639 18.97076416 C10.97479419 21.10707778 10.842045 23.02534586 10.79467773 25.21777344 C10.77473251 26.03832214 10.75478729 26.85887085 10.73423767 27.70428467 C10.70916893 29.01855438 10.70916893 29.01855438 10.68359375 30.359375 C10.66281265 31.26375305 10.64203156 32.1681311 10.62062073 33.09991455 C10.5553406 35.98320055 10.49634048 38.8665761 10.4375 41.75 C10.39429429 43.70704044 10.35067935 45.66407188 10.30664062 47.62109375 C10.19968128 52.4139712 10.09835327 57.20693854 10 62 C6.7 62 3.4 62 0 62 C-0.144375 61.236875 -0.28875 60.47375 -0.4375 59.6875 C-0.9632594 56.91827092 -0.9632594 56.91827092 -2 54 C-2.08754798 52.32779029 -2.11765995 50.65227801 -2.11352539 48.9777832 C-2.11344986 47.95695145 -2.11337433 46.93611969 -2.11329651 45.88435364 C-2.10813522 44.78427475 -2.10297394 43.68419586 -2.09765625 42.55078125 C-2.0962413 41.4230278 -2.09482635 40.29527435 -2.09336853 39.13334656 C-2.0877647 35.52637088 -2.07521153 31.91945696 -2.0625 28.3125 C-2.05748549 25.86914152 -2.0529225 23.42578207 -2.04882812 20.98242188 C-2.03779403 14.98826013 -2.02105215 8.99413448 -2 3 C-1.34 3 -0.68 3 0 3 C0 2.01 0 1.02 0 0 Z " fill="#3C287C" transform="translate(202,87)"/>
<path d="M0 0 C1.06367294 0.00222061 2.12734589 0.00444122 3.22325134 0.00672913 C5.02500572 0.00684242 5.02500572 0.00684242 6.86315918 0.00695801 C8.17042465 0.01211929 9.47769012 0.01728058 10.8245697 0.02259827 C12.16835477 0.02446253 13.51214052 0.02588639 14.85592651 0.02688599 C18.39873622 0.0307105 21.94150515 0.0405402 25.48429871 0.05158997 C29.09706572 0.06180552 32.7098393 0.06638392 36.32261658 0.07142639 C43.41573384 0.08216254 50.5088167 0.09975879 57.60191345 0.12025452 C57.60191345 4.41025452 57.60191345 8.70025452 57.60191345 13.12025452 C50.34191345 13.12025452 43.08191345 13.12025452 35.60191345 13.12025452 C35.60191345 37.87025452 35.60191345 62.62025452 35.60191345 88.12025452 C31.31191345 88.12025452 27.02191345 88.12025452 22.60191345 88.12025452 C20.96040855 84.83724472 22.08302721 81.69480419 22.60191345 78.12025452 C22.93191345 78.12025452 23.26191345 78.12025452 23.60191345 78.12025452 C23.60191345 80.76025452 23.60191345 83.40025452 23.60191345 86.12025452 C27.23191345 86.12025452 30.86191345 86.12025452 34.60191345 86.12025452 C34.27191345 61.37025452 33.94191345 36.62025452 33.60191345 11.12025452 C40.53191345 11.12025452 47.46191345 11.12025452 54.60191345 11.12025452 C54.10691345 7.16025452 54.10691345 7.16025452 53.60191345 3.12025452 C35.12191345 3.45025452 16.64191345 3.78025452 -2.39808655 4.12025452 C-2.72808655 3.13025452 -3.05808655 2.14025452 -3.39808655 1.12025452 C-2.39808655 0.12025452 -2.39808655 0.12025452 0 0 Z " fill="#20144F" transform="translate(3.3980865478515625,62.87974548339844)"/>
<path d="M0 0 C0.33 0 0.66 0 1 0 C1.2475 1.0725 1.495 2.145 1.75 3.25 C3.08101235 7.24303706 3.64527764 8.56782629 7 11 C11.41776634 13.15156684 16.00763575 14.70093132 20.70703125 16.1171875 C31.14242073 19.26532304 38.48011875 23.285009 44 33 C46.19933731 39.59801194 45.95008782 47.73578432 43.1015625 54.125 C39.21419908 60.7417888 34.30073264 65.46621632 27 68 C23.17724623 68.96681959 19.6233348 69.10575093 15.6875 69.0625 C14.61886719 69.05347656 13.55023438 69.04445313 12.44921875 69.03515625 C11.23685547 69.01775391 11.23685547 69.01775391 10 69 C10 68.34 10 67.68 10 67 C11.34191406 66.96132812 11.34191406 66.96132812 12.7109375 66.921875 C22.06534294 66.4830756 30.84326817 65.85779516 37.5 58.625 C42.81253387 52.10787996 42.78231791 43.99920063 42 36 C40.37025054 30.20327748 37.09901714 26.21956767 32 23 C28.2435012 21.39954271 24.39200663 20.16513041 20.5 18.9375 C5.48162501 14.14339167 5.48162501 14.14339167 1.125 8.625 C-0.18502192 5.56828219 -0.22974349 3.29299001 0 0 Z " fill="#291B4E" transform="translate(321,84)"/>
<path d="M0 0 C7.20159019 6.35678826 11.3025546 14.41012572 12 24 C12 26.64 12 29.28 12 32 C-4.83 32 -21.66 32 -39 32 C-39 31.67 -39 31.34 -39 31 C-22.83 31 -6.66 31 10 31 C8.02928301 15.1350417 8.02928301 15.1350417 -0.25 2.5625 C-9.32266664 -2.59242423 -17.62406276 -4.79830543 -27.99609375 -2.26953125 C-33.6194227 -0.40017495 -37.75716977 1.87184085 -42 6 C-42 5.01 -42 4.02 -42 3 C-30.69449701 -8.02496942 -12.86058452 -9.12467528 0 0 Z " fill="#231843" transform="translate(642,89)"/>
<path d="M0 0 C5.52555026 3.23171242 9.08705023 7.88615069 11.1171875 13.9765625 C12.93503782 22.56240938 12.42360275 30.91223793 7.625 38.375 C4.62046239 41.99585301 2.11817094 43.96286056 -2.375 45.375 C-2.375 44.715 -2.375 44.055 -2.375 43.375 C-1.4675 42.7975 -0.56 42.22 0.375 41.625 C4.71639632 38.61941793 6.96221602 35.36335194 8.625 30.375 C9.24784918 21.85932432 9.61726261 13.69039471 4.625 6.375 C0.68656765 1.85738642 -4.58255457 0.89785791 -10.375 0.375 C-11.365 0.87 -11.365 0.87 -12.375 1.375 C-13.2825 1.478125 -14.19 1.58125 -15.125 1.6875 C-20.43709672 2.81121277 -23.42952057 4.9848992 -26.4765625 9.46484375 C-28.76194485 13.62560631 -29.24036213 17.63674594 -29.625 22.3125 C-29.70234375 23.09173828 -29.7796875 23.87097656 -29.859375 24.67382812 C-30.0457819 26.5728484 -30.21246666 28.47378764 -30.375 30.375 C-30.705 30.375 -31.035 30.375 -31.375 30.375 C-32.83905548 21.09676889 -31.79926258 14.51443667 -27.8125 6.0625 C-20.65520502 -1.82887651 -9.82047552 -4.37491109 0 0 Z " fill="#2A1B53" transform="translate(417.375,95.625)"/>
<path d="M0 0 C0.33 0 0.66 0 1 0 C1 22.11 1 44.22 1 67 C-2.96 67 -6.92 67 -11 67 C-11 66.67 -11 66.34 -11 66 C-7.7 66 -4.4 66 -1 66 C-1 45.54 -1 25.08 -1 4 C-3.97 4 -6.94 4 -10 4 C-10 6.97 -10 9.94 -10 13 C-10.33 13 -10.66 13 -11 13 C-11.33 9.37 -11.66 5.74 -12 2 C-8.04 2 -4.08 2 0 2 C0 1.34 0 0.68 0 0 Z " fill="#25194E" transform="translate(189,83)"/>
<path d="M0 0 C2.38103978 2.38103978 2.2586301 2.90096253 2.30297852 6.14257812 C2.31962051 6.99686401 2.33626251 7.8511499 2.35340881 8.73132324 C2.36182297 9.65529907 2.37023712 10.5792749 2.37890625 11.53125 C2.39590073 12.47810669 2.4128952 13.42496338 2.43040466 14.4005127 C2.48365658 17.43360689 2.52388199 20.46668688 2.5625 23.5 C2.60639398 26.5332422 2.65308579 29.56637678 2.70530701 32.5994873 C2.73731365 34.48913531 2.7641882 36.3788783 2.78553772 38.26867676 C2.79902756 39.12296265 2.8125174 39.97724854 2.82641602 40.85742188 C2.83592789 41.61083862 2.84543976 42.36425537 2.85523987 43.14050293 C2.88990704 45.09351764 2.88990704 45.09351764 4 47 C3.34 47.66 2.68 48.32 2 49 C2 49.33 2 49.66 2 50 C-2.66666667 50 -7.33333333 50 -12 50 C-11.67 49.34 -11.34 48.68 -11 48 C-11.32707461 45.99896694 -11.66152046 43.99913549 -12 42 C-12.02590646 39.78382045 -11.99378492 37.56645917 -11.9140625 35.3515625 C-11.87023437 34.09859375 -11.82640625 32.845625 -11.78125 31.5546875 C-11.7296875 30.25789063 -11.678125 28.96109375 -11.625 27.625 C-11.58117187 26.3359375 -11.53734375 25.046875 -11.4921875 23.71875 C-11.2595004 17.4232711 -10.9309264 11.23247334 -10 5 C-9.67 5 -9.34 5 -9 5 C-9 18.53 -9 32.06 -9 46 C-5.7 46 -2.4 46 1 46 C0.67 30.82 0.34 15.64 0 0 Z " fill="#261842" transform="translate(297,103)"/>
<path d="M0 0 C4.3434947 3.93058478 7.16873457 7.08877914 8 13 C5.95175909 11.15658318 4.72576348 9.53278223 3.3125 7.125 C-0.98588157 1.31637626 -6.94409099 -1.63833335 -14 -3 C-24.50497523 -3.90927042 -32.76502575 -1.64110826 -41 5 C-48.06653212 12.06653212 -49.7701379 21.43620392 -51 31 C-51.33 31 -51.66 31 -52 31 C-52.55418573 19.83418391 -50.38693003 11.63138045 -43 3 C-30.67520475 -7.19458372 -13.51205204 -9.63118245 0 0 Z " fill="#271A4D" transform="translate(574,89)"/>
<path d="M0 0 C2 1 2 1 3.75 4.3125 C6.0859194 8.55724906 9.20948341 11.15490453 13.921875 12.58203125 C20.29750104 13.86434701 25.51204404 13.36210899 31.23046875 10.2265625 C33.27949522 8.90400168 33.27949522 8.90400168 35.5625 6.1875 C38 4 38 4 41.8125 4.1875 C42.864375 4.455625 43.91625 4.72375 45 5 C45 4.34 45 3.68 45 3 C46.32 3.33 47.64 3.66 49 4 C47.98347664 10.57274765 44.76743904 15.61080955 39.7421875 19.94921875 C33.83722117 24.12946719 33.83722117 24.12946719 30.7265625 23.6484375 C30.15679688 23.43445313 29.58703125 23.22046875 29 23 C29.73605469 22.64808594 30.47210937 22.29617187 31.23046875 21.93359375 C38.5894033 18.21038116 43.29918098 15.10245706 46 7 C42.7 7 39.4 7 36 7 C35.34 8.32 34.68 9.64 34 11 C30.00338069 14.80630411 25.92108261 16.34893712 20.4375 16.5 C13.00383795 16.08019264 8.6599537 13.98077246 3.5625 8.5625 C0 4.56736243 0 4.56736243 0 0 Z " fill="#2B1B4F" transform="translate(603,127)"/>
<path d="M0 0 C2 2 2 2 2.24050903 3.87295532 C2.23606781 4.63240448 2.23162659 5.39185364 2.22705078 6.17431641 C2.22689972 7.03505768 2.22674866 7.89579895 2.22659302 8.78262329 C2.21627045 9.71287323 2.20594788 10.64312317 2.1953125 11.6015625 C2.1924826 12.55316254 2.18965271 13.50476257 2.18673706 14.48519897 C2.17551989 17.53192592 2.15041263 20.57836154 2.125 23.625 C2.11497218 25.68749576 2.10584599 27.74999612 2.09765625 29.8125 C2.07557554 34.87511267 2.0410353 39.9375069 2 45 C5.3 45 8.6 45 12 45 C12 36.42 12 27.84 12 19 C12.33 19 12.66 19 13 19 C13.19697084 21.97880524 13.38277673 24.95764386 13.5625 27.9375 C13.61857422 28.76830078 13.67464844 29.59910156 13.73242188 30.45507812 C14.06275821 36.11484061 13.76547933 41.38081467 13 47 C10 48 10 48 0 47 C0 31.49 0 15.98 0 0 Z " fill="#271B4B" transform="translate(243,104)"/>
<path d="M0 0 C4.57511214 0.53824849 7.43305444 2.10185673 11 5 C15.89765828 11.31044433 18 16.95260705 18 25 C13.38 25 8.76 25 4 25 C3.7525 23.7625 3.505 22.525 3.25 21.25 C2.29158389 17.4565488 1.22069421 15.3925157 -2 13 C-6.39847989 10.48658292 -11.06292973 10.41660722 -16 11 C-19.36123058 12.36939024 -21.98493949 13.98995966 -25 16 C-23.25564313 11.8064956 -21.23931865 10.59802942 -17.2109375 8.765625 C-11.98991833 6.95763956 -7.74670772 7.4204752 -2.75 9.6875 C0.68809236 11.61256154 2.95386027 13.56248526 5 17 C5.75 20.3125 5.75 20.3125 6 23 C9.3 23 12.6 23 16 23 C14.3017776 14.76213169 12.23393891 8.53133228 5.0546875 3.6875 C3.40614544 2.72640666 1.70678442 1.85339221 0 1 C0 0.67 0 0.34 0 0 Z " fill="#26194A" transform="translate(348,65)"/>
<path d="M0 0 C1.97338867 1.4519043 1.97338867 1.4519043 4 4 C4.36330441 7.04930355 4.49019971 9.72637647 4.42578125 12.76953125 C4.42285568 13.63512161 4.41993011 14.50071198 4.41691589 15.39253235 C4.40193711 18.19974374 4.35788479 21.00562964 4.3125 23.8125 C4.2955669 25.72703966 4.27994282 27.64159134 4.265625 29.55615234 C4.14481917 42.71599048 3.80843109 55.86299484 3 69 C2.67 69 2.34 69 2 69 C1.67 48.21 1.34 27.42 1 6 C-1.97 6 -4.94 6 -8 6 C-8 9.3 -8 12.6 -8 16 C-9.03125 15.0925 -10.0625 14.185 -11.125 13.25 C-14.27495425 10.54270734 -17.49498873 8.22269007 -21 6 C-20.01 5.67 -19.02 5.34 -18 5 C-15.95703125 6.21484375 -15.95703125 6.21484375 -13.8125 7.9375 C-13.09707031 8.50339844 -12.38164062 9.06929687 -11.64453125 9.65234375 C-10.83048828 10.31943359 -10.83048828 10.31943359 -10 11 C-10.33 9.68 -10.66 8.36 -11 7 C-10.34 7 -9.68 7 -9 7 C-8.67 5.68 -8.34 4.36 -8 3 C-5.69 3.33 -3.38 3.66 -1 4 C-0.67 2.68 -0.34 1.36 0 0 Z " fill="#150C37" transform="translate(509,81)"/>
<path d="M0 0 C0.33 0.66 0.66 1.32 1 2 C0.69916504 2.65766357 0.39833008 3.31532715 0.08837891 3.99291992 C-1.48669677 8.3446936 -1.35738153 12.51725489 -1.4140625 17.11328125 C-1.43342865 18.08283249 -1.4527948 19.05238373 -1.4727478 20.05131531 C-1.53237436 23.13828828 -1.5788614 26.22529888 -1.625 29.3125 C-1.66319534 31.40952118 -1.70224798 33.50652694 -1.7421875 35.60351562 C-1.83806209 40.73555131 -1.92215577 45.86766043 -2 51 C-3.15628906 51.09087891 -3.15628906 51.09087891 -4.3359375 51.18359375 C-5.33882812 51.26738281 -6.34171875 51.35117188 -7.375 51.4375 C-8.37273437 51.51871094 -9.37046875 51.59992188 -10.3984375 51.68359375 C-12.97927613 51.84965626 -12.97927613 51.84965626 -15 53 C-15.22174933 51.54364629 -15.42698698 50.08477044 -15.625 48.625 C-15.74101562 47.81289062 -15.85703125 47.00078125 -15.9765625 46.1640625 C-15.98429688 45.44992188 -15.99203125 44.73578125 -16 44 C-15.34 43.34 -14.68 42.68 -14 42 C-14 44.31 -14 46.62 -14 49 C-10.7 49 -7.4 49 -4 49 C-4.02356567 47.19196899 -4.02356567 47.19196899 -4.04760742 45.34741211 C-4.10211187 40.85415388 -4.13642452 36.3609246 -4.16479492 31.86743164 C-4.17983491 29.92662636 -4.20027214 27.9858548 -4.22631836 26.04516602 C-4.26291295 23.24747368 -4.27977448 20.45023267 -4.29296875 17.65234375 C-4.30845261 16.7916478 -4.32393646 15.93095184 -4.33988953 15.04417419 C-4.34139522 9.5931979 -3.52999376 5.84838805 -1 1 C-0.67 0.67 -0.34 0.34 0 0 Z " fill="#2C1E51" transform="translate(216,100)"/>
<path d="M0 0 C2.48701892 1.8511334 4.77075779 3.84738799 7 6 C6.67 6.99 6.34 7.98 6 9 C5.46375 8.236875 4.9275 7.47375 4.375 6.6875 C0.07963216 1.82695218 -4.07978196 0.79754858 -10.375 0.0625 C-16.31669213 -0.25484038 -20.27843831 0.32193443 -25 4 C-26.97524803 5.80198066 -28.83978614 7.64405058 -30.65234375 9.609375 C-31.09707031 10.06828125 -31.54179687 10.5271875 -32 11 C-32.33 11 -32.66 11 -33 11 C-33 7.7 -33 4.4 -33 1 C-36.3 1 -39.6 1 -43 1 C-43.33 1.99 -43.66 2.98 -44 4 C-44.33 2.35 -44.66 0.7 -45 -1 C-42.23547967 -2.38226016 -39.9538637 -2.09525387 -36.875 -2.0625 C-35.77929688 -2.05347656 -34.68359375 -2.04445313 -33.5546875 -2.03515625 C-32.71164063 -2.02355469 -31.86859375 -2.01195313 -31 -2 C-30.67 0.31 -30.34 2.62 -30 5 C-29.50371094 4.59007813 -29.00742188 4.18015625 -28.49609375 3.7578125 C-19.71774749 -3.20489858 -10.21994689 -5.44930762 0 0 Z " fill="#2C1F51" transform="translate(245,86)"/>
<path d="M0 0 C5.94 0 11.88 0 18 0 C18 0.33 18 0.66 18 1 C12.39 1 6.78 1 1 1 C1 25.75 1 50.5 1 76 C-3.29 76 -7.58 76 -12 76 C-13.6415049 72.7169902 -12.51888624 69.57454967 -12 66 C-11.67 66 -11.34 66 -11 66 C-11 68.64 -11 71.28 -11 74 C-7.37 74 -3.74 74 0 74 C0 49.58 0 25.16 0 0 Z " fill="#0D061D" transform="translate(38,75)"/>
<path d="M0 0 C0.33 0 0.66 0 1 0 C1 1.65 1 3.3 1 5 C1.72179443 4.99476318 2.44358887 4.98952637 3.18725586 4.98413086 C6.43732849 4.96342642 9.68738728 4.95036082 12.9375 4.9375 C14.07380859 4.92912109 15.21011719 4.92074219 16.38085938 4.91210938 C17.46044922 4.90888672 18.54003906 4.90566406 19.65234375 4.90234375 C21.15269165 4.89448853 21.15269165 4.89448853 22.68334961 4.88647461 C25 5 25 5 26 6 C26.16017166 8.80976518 26.25950534 11.59773596 26.31640625 14.41015625 C26.33718735 15.25219101 26.35796844 16.09422577 26.37937927 16.96177673 C26.44496812 19.66193179 26.50380276 22.36218717 26.5625 25.0625 C26.60567637 26.88868241 26.64929036 28.71485454 26.69335938 30.54101562 C26.80065894 35.02723992 26.90189966 39.5135655 27 44 C26.34 44 25.68 44 25 44 C23.54712138 31.25354332 22.43922591 19.66160524 25 7 C16.42 7 7.84 7 -1 7 C-0.67 4.69 -0.34 2.38 0 0 Z " fill="#1D0F44" transform="translate(1,69)"/>
<path d="M0 0 C0.66 0.33 1.32 0.66 2 1 C1.71632568 1.53294678 1.43265137 2.06589355 1.14038086 2.61499023 C-1.81034635 8.59605409 -2.59455308 13.44093935 -2.4375 20.0625 C-2.44813477 21.3319043 -2.44813477 21.3319043 -2.45898438 22.62695312 C-2.37665192 30.84119837 -0.10771675 37.43293561 5 44 C7.99007602 46.90948098 11.13326306 49.36407283 15 51 C13.515 51.495 13.515 51.495 12 52 C3.99909714 47.81770987 -1.30069051 40.87395291 -4.35546875 32.4765625 C-5.29998018 28.84734887 -5.27632386 25.73037214 -5 22 C-5.66 21.67 -6.32 21.34 -7 21 C-6.40615522 18.43471112 -5.80038512 15.87324546 -5.1875 13.3125 C-5.02185547 12.59126953 -4.85621094 11.87003906 -4.68554688 11.12695312 C-3.67182652 6.9381841 -2.47940583 3.60188755 0 0 Z " fill="#2B1E54" transform="translate(452,98)"/>
<path d="M0 0 C0.33 0.66 0.66 1.32 1 2 C0.525625 3.11375 0.05125 4.2275 -0.4375 5.375 C-3.25544663 12.57641916 -2.9470574 20.17925424 -0.4375 27.4375 C1.75500954 32.14761531 4.10506165 35.08058068 9 37 C13.31180658 37.95202271 17.60853613 38.55755176 22 39 C22 39.33 22 39.66 22 40 C14.4708451 40.4450732 9.09165558 40.72414107 3 36 C-2.93078055 30.20400992 -5.09184512 23.73810789 -5.4375 15.5 C-5.30164132 10.14112993 -3.94372329 3.94372329 0 0 Z " fill="#281C51" transform="translate(463,102)"/>
<path d="M0 0 C1.16297471 2.74884931 1.01882971 3.94351088 0.0625 6.8125 C-3.69927282 12.62614891 -8.06730975 16.90380921 -14.9375 18.5625 C-22.0184934 19.52759711 -27.52943256 18.31566533 -33.375 14.1875 C-36.31117456 11.78464257 -38.5480098 9.58157582 -40 6 C-39.67 5.01 -39.34 4.02 -39 3 C-38.72027344 3.53109375 -38.44054687 4.0621875 -38.15234375 4.609375 C-35.33764902 9.56903003 -32.5874545 13.14101608 -27 15 C-20.32391557 16.54763775 -14.99711173 16.42997547 -8.87109375 13.23046875 C-3.9075974 9.96637407 -2.08599142 5.31927811 0 0 Z " fill="#291950" transform="translate(177,124)"/>
<path d="M0 0 C1.30582031 -0.00515625 2.61164063 -0.0103125 3.95703125 -0.015625 C7.1875 0.25 7.1875 0.25 9.1875 2.25 C7.36025391 2.30607422 7.36025391 2.30607422 5.49609375 2.36328125 C3.8723671 2.42898117 2.24867051 2.49542709 0.625 2.5625 C-0.17486328 2.58505859 -0.97472656 2.60761719 -1.79882812 2.63085938 C-10.49151292 3.02114318 -16.77964111 5.88892858 -22.8125 12.25 C-26.21893584 17.2461059 -26.47527062 22.36592868 -26.8125 28.25 C-27.1425 28.25 -27.4725 28.25 -27.8125 28.25 C-28.32756129 21.38251618 -28.64270367 15.7125643 -24.4296875 10 C-17.44956313 2.4466287 -10.30238759 -0.04108629 0 0 Z " fill="#25194A" transform="translate(337.8125,62.75)"/>
<path d="M0 0 C0.66 0 1.32 0 2 0 C2.15855469 0.64066406 2.31710938 1.28132813 2.48046875 1.94140625 C4.80437811 10.55656194 7.41191036 15.63711961 15.125 20.375 C19.13453403 22.65397527 22.3619747 24.13261673 27.01171875 24.09765625 C27.76904297 24.09443359 28.52636719 24.09121094 29.30664062 24.08789062 C30.09232422 24.07951172 30.87800781 24.07113281 31.6875 24.0625 C32.48478516 24.05798828 33.28207031 24.05347656 34.10351562 24.04882812 C36.06904257 24.0370585 38.03453085 24.01912348 40 24 C39.67 24.66 39.34 25.32 39 26 C30.096212 27.79232096 21.74119441 27.35388829 13.8125 22.8125 C6.95764439 18.13811536 2.49094355 11.92706153 0 4 C0 2.68 0 1.36 0 0 Z " fill="#27194E" transform="translate(125,126)"/>
<path d="M0 0 C0 0.33 0 0.66 0 1 C-1.10794922 1.03867188 -1.10794922 1.03867188 -2.23828125 1.078125 C-9.77683464 1.49959431 -16.08290526 2.98514785 -23 6 C-24.0828125 6.43505859 -24.0828125 6.43505859 -25.1875 6.87890625 C-27.47188268 8.29187571 -27.95387693 9.55604007 -29 12 C-29.8208303 13.29964797 -30.65449123 14.59127022 -31.5 15.875 C-33.574944 19.14349586 -34.96702021 22.24370987 -36 26 C-36.33 26 -36.66 26 -37 26 C-37.87509498 20.45773181 -35.73044757 16.98489338 -32.83984375 12.46875 C-27.49511186 5.29705032 -21.33073571 1.18460794 -12.625 -0.75 C-8.29857647 -1.04837404 -4.27763769 -0.63049082 0 0 Z " fill="#281A4D" transform="translate(93,84)"/>
<path d="M0 0 C1.53647825 2.30471737 2.66226759 4.33093476 3.8125 6.8125 C7.83832665 14.87895413 12.85757921 19.0060001 21.0625 22.1875 C26.86373952 23.69796098 33.04197632 23.68598488 39 24 C34.25089329 27.16607114 29.74655605 26.46360308 24.24609375 25.53515625 C14.92207902 23.34355891 8.5982266 18.67756791 3 11 C0.71679216 7.14216606 -0.39684065 4.49752741 0 0 Z " fill="#2B1E4E" transform="translate(592,127)"/>
<path d="M0 0 C0.33 0 0.66 0 1 0 C0.97679687 0.68964844 0.95359375 1.37929687 0.9296875 2.08984375 C0.75655786 11.10495136 1.12996139 18.74877584 7 26 C9.65799923 28.41636294 10.35294333 29 14 29 C14 29.66 14 30.32 14 31 C17.3 31.33 20.6 31.66 24 32 C23.67 32.66 23.34 33.32 23 34 C15.95277253 33.54584534 11.00314618 32.43111834 5.375 27.875 C-1.20755723 19.90664124 -1.82315216 12.16120614 -1 2 C-0.67 1.34 -0.34 0.68 0 0 Z " fill="#271A4C" transform="translate(534,109)"/>
<path d="M0 0 C0 0.33 0 0.66 0 1 C-0.79664063 1.09796875 -1.59328125 1.1959375 -2.4140625 1.296875 C-9.99045017 2.36604893 -14.73263172 3.73263172 -20.25 9.25 C-24.5675182 16.03467146 -24.50501266 24.18441037 -25 32 C-25.33 32 -25.66 32 -26 32 C-28.05366188 23.52864473 -26.70074603 16.77518303 -23 9 C-20.625 6.0625 -20.625 6.0625 -18 4 C-17.154375 3.236875 -16.30875 2.47375 -15.4375 1.6875 C-10.36426496 -0.8029972 -5.55310139 -0.32348163 0 0 Z " fill="#251948" transform="translate(162,94)"/>
<path d="M0 0 C0.495 0.99 0.495 0.99 1 2 C-0.2065625 2.02578125 -1.413125 2.0515625 -2.65625 2.078125 C-4.27086738 2.13444886 -5.88544933 2.1917952 -7.5 2.25 C-8.29148437 2.26417969 -9.08296875 2.27835937 -9.8984375 2.29296875 C-17.48907761 2.60406056 -23.37085284 5.08994844 -29 10.25 C-29.5775 10.77078125 -30.155 11.2915625 -30.75 11.828125 C-31.1625 12.21484375 -31.575 12.6015625 -32 13 C-31.6338021 10.22910257 -31.13728913 9.13445258 -29.109375 7.1484375 C-28.33078125 6.56320313 -27.5521875 5.97796875 -26.75 5.375 C-25.98171875 4.78460938 -25.2134375 4.19421875 -24.421875 3.5859375 C-16.90245101 -1.3380724 -8.66063233 -1.69671673 0 0 Z " fill="#281A4F" transform="translate(486,84)"/>
<path d="M0 0 C8.2868958 -0.63098191 14.37259851 -0.30931235 21 5 C26.67078631 10.32258013 31.67339323 15.88316063 32.1875 23.9375 C32.0946875 24.9584375 32.0946875 24.9584375 32 26 C30.07780678 23.11671018 28.79465603 20.34008812 27.375 17.1875 C23.75792466 9.9005453 19.59243472 6.89419285 12.5625 3.1875 C8.3647841 1.78826137 4.39715399 1.28915525 0 1 C0 0.67 0 0.34 0 0 Z " fill="#201540" transform="translate(407,84)"/>
<path d="M0 0 C2.31058727 1.97245254 4.49540542 3.96139814 6.5625 6.1875 C6.2325 7.1775 5.9025 8.1675 5.5625 9.1875 C5.19898438 8.70539063 4.83546875 8.22328125 4.4609375 7.7265625 C1.19058655 3.61766003 -1.06671108 1.13528628 -6.4375 0.1875 C-12.460362 -0.40816767 -17.07910249 0.09611682 -22.4375 3.1875 C-24.34547143 5.08581081 -25.83692141 7.00489283 -27.4375 9.1875 C-27.7675 8.1975 -28.0975 7.2075 -28.4375 6.1875 C-25.87318496 1.42520065 -22.12419994 -0.37021317 -17.23046875 -2.1484375 C-11.07407963 -3.61219435 -5.56996224 -2.93688918 0 0 Z " fill="#2A1D4E" transform="translate(633.4375,95.8125)"/>
<path d="M0 0 C1.09570312 0.00902344 2.19140625 0.01804688 3.3203125 0.02734375 C4.16335938 0.03894531 5.00640625 0.05054688 5.875 0.0625 C5.215 1.3825 4.555 2.7025 3.875 4.0625 C2.59625 3.8975 1.3175 3.7325 0 3.5625 C-5.76654796 3.49883149 -8.68880271 6.4377878 -12.765625 10.21484375 C-15.3024797 12.20148658 -16.96016443 12.70898113 -20.125 13.0625 C-20.125 12.4025 -20.125 11.7425 -20.125 11.0625 C-19.32835937 10.73378906 -19.32835937 10.73378906 -18.515625 10.3984375 C-13.405637 8.10453778 -10.9972933 6.03377686 -8.125 1.0625 C-5.36047967 -0.31976016 -3.0788637 -0.03275387 0 0 Z " fill="#291C51" transform="translate(579.125,128.9375)"/>
<path d="M0 0 C1.99853097 2.99779646 2.49768888 4.79708486 3.25 8.25 C4.50471014 13.15832206 6.22236036 16.10692309 9.79296875 19.66015625 C11 21 11 21 11 23 C14.01970788 24.56629708 17.08650414 25.87625164 20.25 27.125 C21.14203125 27.47820312 22.0340625 27.83140625 22.953125 28.1953125 C23.62859375 28.46085937 24.3040625 28.72640625 25 29 C25 29.33 25 29.66 25 30 C17.62447278 29.68614778 12.26247923 26.4323263 7.19921875 21.10546875 C2.01621678 14.58491788 -0.52071968 8.33151484 0 0 Z " fill="#231845" transform="translate(522,121)"/>
<path d="M0 0 C2.69082872 0.17635452 5.32851446 0.61835921 8 1 C8 1.33 8 1.66 8 2 C5.69 2 3.38 2 1 2 C3.23867475 9.63184574 5.25256897 15.66292414 12.5 19.75 C13.99173701 20.51630326 15.49159825 21.26704422 17 22 C18.33333333 22.66666667 19.66666667 23.33333333 21 24 C15.4737542 24.85019166 12.57539372 22.75910145 8.24609375 19.703125 C7.50488281 19.14109375 6.76367188 18.5790625 6 18 C5.11183594 17.41089844 4.22367187 16.82179687 3.30859375 16.21484375 C0.31241658 13.34033875 0.10888554 11.38900744 -0.375 7.3125 C-0.52710938 6.15363281 -0.67921875 4.99476563 -0.8359375 3.80078125 C-0.89007813 2.87652344 -0.94421875 1.95226562 -1 1 C-0.67 0.67 -0.34 0.34 0 0 Z " fill="#231748" transform="translate(309,127)"/>
<path d="M0 0 C0 4.29 0 8.58 0 13 C-7.92 13 -15.84 13 -24 13 C-24 12.34 -24 11.68 -24 11 C-17.07 11 -10.14 11 -3 11 C-3 8.03 -3 5.06 -3 2 C-4.32 1.67 -5.64 1.34 -7 1 C-4.50935112 0.31292445 -2.62113708 0 0 0 Z " fill="#2E1D5F" transform="translate(61,63)"/>
<path d="M0 0 C0.66 0.33 1.32 0.66 2 1 C1.38125 1.99 0.7625 2.98 0.125 4 C-4.45593022 12.14207739 -4.51190801 20.8546974 -5 30 C-8.36072602 24.95891096 -7.60266088 19.07928919 -6.46484375 13.265625 C-5.05516343 8.18153204 -3.19766565 4.19004465 0 0 Z " fill="#2A1E54" transform="translate(597,96)"/>
<path d="M0 0 C0.33 0 0.66 0 1 0 C1.33 10.23 1.66 20.46 2 31 C1.34 31 0.68 31 0 31 C-0.3976567 27.33542667 -0.76395975 23.66834727 -1.125 20 C-1.29322266 18.45505859 -1.29322266 18.45505859 -1.46484375 16.87890625 C-2.05489973 10.70298694 -1.91943831 5.9147136 0 0 Z " fill="#271E53" transform="translate(26,82)"/>
<path d="M0 0 C7.22639257 0.57811141 11.4103777 3.05662739 16.1875 8.375 C19.88467159 12.91640762 22.53298819 16.95946713 22 23 C20 21 20 21 18.6875 17.25 C15.48323875 8.63271489 10.55458741 5.91470336 2.44921875 2.1015625 C1.64097656 1.73804687 0.83273438 1.37453125 0 1 C0 0.67 0 0.34 0 0 Z " fill="#221744" transform="translate(94,85)"/>
<path d="M0 0 C1.64232532 2.46348798 2.4636642 4.09457499 3.375 6.8125 C6.12184901 14.27408985 10.40003454 19.45791382 17.375 23.3125 C17.91125 23.539375 18.4475 23.76625 19 24 C18.01 24.33 17.02 24.66 16 25 C8.38746282 21.0207192 2.57378281 14.1755454 0 6 C-0.1875 2.5625 -0.1875 2.5625 0 0 Z " fill="#241844" transform="translate(448,125)"/>
<path d="M0 0 C-0.33 0.66 -0.66 1.32 -1 2 C-3.04464193 2.53236743 -5.11262116 2.9764357 -7.1875 3.375 C-12.46904698 4.51789213 -15.81799312 5.6543945 -20 9 C-21.66026356 10.01059521 -23.32470102 11.01453001 -25 12 C-22.85625379 6.81460341 -18.82570899 4.55169682 -14 2 C-9.41778692 0.43064754 -4.85156607 -0.31300426 0 0 Z " fill="#2B1E4F" transform="translate(624,83)"/>
<path d="M0 0 C0.33 0.99 0.66 1.98 1 3 C-5.54806367 8.65182032 -11.84702153 11.53991264 -20.5 12.3125 C-23 12 -23 12 -25 10 C-24.0821875 9.91363281 -23.164375 9.82726562 -22.21875 9.73828125 C-12.78463302 8.6581145 -6.61102586 6.85070051 0 0 Z " fill="#271B52" transform="translate(498,141)"/>
<path d="M0 0 C5.93731783 0.46873562 11.0636699 2.76134957 16 6 C18.90945178 10.02188922 19.35031351 13.0956109 19 18 C17 16 17 16 16.25 12.625 C14.66796405 8.03709574 13.24718821 7.23942651 9 5 C6.02685259 3.59830408 3.03287217 2.2670666 0 1 C0 0.67 0 0.34 0 0 Z " fill="#2A1D52" transform="translate(335,111)"/>
<path d="M0 0 C0.33 0 0.66 0 1 0 C1.61787561 9.18231807 0.52378751 15.75338429 -5.4375 22.9375 C-7.92288536 24.93793212 -9.97164881 26.04823248 -13 27 C-13 26.34 -13 25.68 -13 25 C-12.0925 24.4225 -11.185 23.845 -10.25 23.25 C-5.46360969 19.93634517 -2.6436288 15.56305131 -1 10 C-0.55410494 6.67372538 -0.24692609 3.34649826 0 0 Z " fill="#231645" transform="translate(428,114)"/>
<path d="M0 0 C1 3 1 3 -0.4375 5.9375 C-4.0657329 10.27368078 -7.80974749 12.69334007 -13.51953125 13.2421875 C-15.69634322 13.2490436 -17.8313606 13.18071995 -20 13 C-20.33 12.34 -20.66 11.68 -21 11 C-20.03578125 10.90203125 -19.0715625 10.8040625 -18.078125 10.703125 C-16.81484375 10.55359375 -15.5515625 10.4040625 -14.25 10.25 C-12.99703125 10.11078125 -11.7440625 9.9715625 -10.453125 9.828125 C-5.52713949 8.64678006 -3.89144401 6.40084058 -1.25 2.25 C-0.8375 1.5075 -0.425 0.765 0 0 Z " fill="#25184A" transform="translate(353,130)"/>
<path d="M0 0 C2.10047042 2.03251403 3.93568197 4.14921687 5.75 6.4375 C10.20175712 11.66060117 15.42155867 14.07460254 22 16 C22 16.33 22 16.66 22 17 C16.96283026 17.62964622 14.091433 16.36952977 10.03125 13.62890625 C5.49480868 9.99102927 1.03853818 5.90257774 0 0 Z " fill="#251948" transform="translate(58,134)"/>
<path d="M0 0 C0 3.96 0 7.92 0 12 C-0.33 12 -0.66 12 -1 12 C-1.33 9.03 -1.66 6.06 -2 3 C-4.97 3 -7.94 3 -11 3 C-11 3.66 -11 4.32 -11 5 C-11.66 4.67 -12.32 4.34 -13 4 C-12.67 3.01 -12.34 2.02 -12 1 C-7.63771021 -1.028972 -4.64343758 -1.10558038 0 0 Z " fill="#1E1360" transform="translate(386,84)"/>
<path d="M0 0 C3.57231298 5.35846947 3.12223971 10.765775 3 17 C1.01953125 15.80859375 1.01953125 15.80859375 -1 14 C-1.42578125 11.66015625 -1.42578125 11.66015625 -1.3125 9.0625 C-1.28800781 8.20785156 -1.26351562 7.35320312 -1.23828125 6.47265625 C-1.02076301 4.21545879 -0.62115813 2.1765785 0 0 Z " fill="#2E1F6C" transform="translate(201,117)"/>
<path d="M0 0 C2.02408755 0.09002398 4.04544287 0.24641038 6.0625 0.4375 C7.71958984 0.59025391 7.71958984 0.59025391 9.41015625 0.74609375 C10.26480469 0.82988281 11.11945313 0.91367188 12 1 C12.1953125 3.05078125 12.390625 5.1015625 12.5859375 7.15234375 C12.72257813 7.76207031 12.85921875 8.37179688 13 9 C13.66 9.33 14.32 9.66 15 10 C13.68 10.99 12.36 11.98 11 13 C11 9.7 11 6.4 11 3 C7.7 3 4.4 3 1 3 C0.67 3.99 0.34 4.98 0 6 C-0.38218767 4.34385343 -0.71395102 2.67542976 -1 1 C-0.67 0.67 -0.34 0.34 0 0 Z " fill="#1F1441" transform="translate(201,84)"/>
<path d="M0 0 C1.53647825 2.30471737 2.66226759 4.33093476 3.8125 6.8125 C6.58791046 12.43554349 10.48998927 16.6570267 15 21 C9.35748661 19.63211797 6.35629397 15.4336229 3 11 C0.65107797 7.1356444 -0.39950006 4.52766738 0 0 Z " fill="#261943" transform="translate(592,127)"/>
<path d="M0 0 C0.99 0 1.98 0 3 0 C3 2.97 3 5.94 3 9 C6.63 9.33 10.26 9.66 14 10 C14 10.33 14 10.66 14 11 C9.71 11 5.42 11 1 11 C1 9.02 1 7.04 1 5 C-0.32 4.67 -1.64 4.34 -3 4 C-1.6875 2 -1.6875 2 0 0 Z " fill="#3A2865" transform="translate(176,140)"/>
<path d="M0 0 C0.66 0.33 1.32 0.66 2 1 C1.76228882 1.85609863 1.76228882 1.85609863 1.51977539 2.72949219 C1.00638657 4.97210188 0.79834104 7.03317915 0.68359375 9.328125 C0.64169922 10.12734375 0.59980469 10.9265625 0.55664062 11.75 C0.49766602 12.9875 0.49766602 12.9875 0.4375 14.25 C0.39431641 15.09046875 0.35113281 15.9309375 0.30664062 16.796875 C0.20091457 18.86440671 0.09998705 20.93218281 0 23 C-1.4606285 20.35261084 -2 19.10551666 -2 16 C-2.66 16 -3.32 16 -4 16 C-3.67 14.68 -3.34 13.36 -3 12 C-2.67 12 -2.34 12 -2 12 C-1.34 8.04 -0.68 4.08 0 0 Z " fill="#412B88" transform="translate(525,105)"/>
<path d="M0 0 C0.33 0 0.66 0 1 0 C1 2.31 1 4.62 1 7 C2.62463842 7.05395478 4.24978541 7.09277195 5.875 7.125 C6.77992188 7.14820313 7.68484375 7.17140625 8.6171875 7.1953125 C11.18806994 7.24324836 11.18806994 7.24324836 13 5 C13 6.32 13 7.64 13 9 C6.565 9.495 6.565 9.495 0 10 C-1.125 3.375 -1.125 3.375 0 0 Z " fill="#271C60" transform="translate(500,142)"/>
<path d="M0 0 C-0.46801299 4.99213851 -2.91715737 9.12963993 -6 13 C-6.66 13 -7.32 13 -8 13 C-8 12.34 -8 11.68 -8 11 C-7.34 11 -6.68 11 -6 11 C-5.34 8.69 -4.68 6.38 -4 4 C-4.99 3.67 -5.98 3.34 -7 3 C-7 2.34 -7 1.68 -7 1 C-2.25 0 -2.25 0 0 0 Z " fill="#2E1E54" transform="translate(116,131)"/>
<path d="M0 0 C7.29728872 -0.48290881 12.85217836 -0.22181235 19 4 C19.66 4.66 20.32 5.32 21 6 C20.67 6.99 20.34 7.98 20 9 C19.113125 8.05125 18.22625 7.1025 17.3125 6.125 C12.32634987 1.75696766 6.38496799 1.55688443 0 1 C0 0.67 0 0.34 0 0 Z " fill="#291949" transform="translate(549,94)"/>
<path d="M0 0 C-1 2 -1 2 -2.78515625 2.640625 C-3.53667969 2.84171875 -4.28820312 3.0428125 -5.0625 3.25 C-10.20863448 4.84167301 -13.91454965 7.56020665 -18 11 C-18 10.01 -18 9.02 -18 8 C-12.90136324 3.02788028 -7.23854966 -0.41363141 0 0 Z " fill="#241749" transform="translate(406,84)"/>
<path d="M0 0 C5.45905517 0.38993251 8.11850498 2.20476043 12 6 C14.59294033 9.45725378 15.36966019 11.6872978 15 16 C14.34 15.01 13.68 14.02 13 13 C12.29875 11.989375 11.5975 10.97875 10.875 9.9375 C9 7 9 7 9 5 C6.06279492 3.47700477 3.0831351 2.19899698 0 1 C0 0.67 0 0.34 0 0 Z " fill="#251946" transform="translate(282,85)"/>
<path d="M0 0 C0.49886719 0.40992188 0.99773437 0.81984375 1.51171875 1.2421875 C8.01724027 6.12424853 13.98658792 7.28164158 22 8 C22 8.33 22 8.66 22 9 C13.11383146 9.52529075 7.9904858 9.18556873 1.0625 3.375 C0 2 0 2 0 0 Z " fill="#221546" transform="translate(463,133)"/>
<path d="M0 0 C0.33 0 0.66 0 1 0 C1 2.64 1 5.28 1 8 C4.63 8 8.26 8 12 8 C12.33 8.66 12.66 9.32 13 10 C8.71 10 4.42 10 0 10 C-1.6415049 6.7169902 -0.51888624 3.57454967 0 0 Z " fill="#261A3E" transform="translate(26,141)"/>
<path d="M0 0 C1.32 1.32 2.64 2.64 4 4 C0.09971775 6.60018816 -3.47434569 6.15085514 -8 6 C-8 5.01 -8 4.02 -8 3 C-5.69 3.33 -3.38 3.66 -1 4 C-0.67 2.68 -0.34 1.36 0 0 Z " fill="#34285C" transform="translate(509,81)"/>
<path d="M0 0 C0.99 0.33 1.98 0.66 3 1 C3.309375 2.134375 3.61875 3.26875 3.9375 4.4375 C4.5891884 8.03236042 4.5891884 8.03236042 6.9375 9.25 C7.618125 9.4975 8.29875 9.745 9 10 C10.75 11.625 10.75 11.625 12 13 C8.20614979 12.78320856 7.0563797 12.0563797 4.3125 9.3125 C2.08261428 6.41645345 0.92969862 3.54975836 0 0 Z " fill="#26164A" transform="translate(319,128)"/>
<path d="M0 0 C0.33 0.66 0.66 1.32 1 2 C1.99 2.33 2.98 2.66 4 3 C3.113125 3.5775 2.22625 4.155 1.3125 4.75 C-0.82821092 6.16701905 -2.75223417 7.61546432 -4.75 9.25 C-7 11 -7 11 -9 11 C-9 10.34 -9 9.68 -9 9 C-8.2575 8.5875 -7.515 8.175 -6.75 7.75 C-3.44959074 5.64973956 -1.99378652 3.32297754 0 0 Z " fill="#281B59" transform="translate(104,130)"/>
<path d="M0 0 C0.66 1.32 1.32 2.64 2 4 C-2.29 4 -6.58 4 -11 4 C-10.67 3.01 -10.34 2.02 -10 1 C-6.7 1.33 -3.4 1.66 0 2 C0 1.34 0 0.68 0 0 Z " fill="#322251" transform="translate(582,103)"/>
<path d="M0 0 C7.42857143 -0.28571429 7.42857143 -0.28571429 11 2 C10.67 2.33 10.34 2.66 10 3 C8.30858344 2.91036938 6.62040398 2.75422324 4.9375 2.5625 C3.55884766 2.40974609 3.55884766 2.40974609 2.15234375 2.25390625 C1.44207031 2.17011719 0.73179687 2.08632812 0 2 C0 1.34 0 0.68 0 0 Z " fill="#2F2063" transform="translate(230,83)"/>
<path d="M0 0 C1.23556641 0.01740234 1.23556641 0.01740234 2.49609375 0.03515625 C3.32238281 0.04417969 4.14867187 0.05320313 5 0.0625 C5.63808594 0.07410156 6.27617187 0.08570313 6.93359375 0.09765625 C6.93359375 0.75765625 6.93359375 1.41765625 6.93359375 2.09765625 C0.87890625 3.07421875 0.87890625 3.07421875 -1.06640625 3.09765625 C-1.72640625 2.43765625 -2.38640625 1.77765625 -3.06640625 1.09765625 C-2.06640625 0.09765625 -2.06640625 0.09765625 0 0 Z " fill="#36256B" transform="translate(469.06640625,148.90234375)"/>
<path d="M0 0 C5.03985731 0.44469329 7.37634988 2.71343362 11 6 C9 6 7 6 5 6 C5 5.01 5 4.02 5 3 C2.525 2.01 2.525 2.01 0 1 C0 0.67 0 0.34 0 0 Z " fill="#22185D" transform="translate(163,95)"/>
<path d="M0 0 C0.59554688 0.19980469 1.19109375 0.39960937 1.8046875 0.60546875 C0.18023131 1.58553734 -1.44489511 2.56449511 -3.0703125 3.54296875 C-3.97523438 4.08824219 -4.88015625 4.63351563 -5.8125 5.1953125 C-7.24732886 6.04444892 -8.70406698 6.85984599 -10.1953125 7.60546875 C-8.66294824 3.31484882 -4.84942721 -0.87151628 0 0 Z " fill="#261848" transform="translate(267.1953125,85.39453125)"/>
<path d="M0 0 C2.91488977 2.6234008 4.88503898 5.71816394 7 9 C6.67 9.66 6.34 10.32 6 11 C0.42857143 4.85714286 0.42857143 4.85714286 0 0 Z " fill="#211544" transform="translate(137,127)"/>
<path d="M0 0 C0 4.24645065 -1.81750806 6.38524772 -4 10 C-4.66 10 -5.32 10 -6 10 C-4.79157144 5.56909529 -3.48331435 3.01887244 0 0 Z " fill="#271A4B" transform="translate(133,93)"/>
<path d="M0 0 C4.83256305 0.41421969 6.82679218 2.46413986 10 6 C9.67 6.66 9.34 7.32 9 8 C7.87411986 7.04270084 6.7493285 6.08412105 5.625 5.125 C4.99851562 4.59132813 4.37203125 4.05765625 3.7265625 3.5078125 C2.44163349 2.38567993 1.20628025 1.20628025 0 0 Z " fill="#1A0F44" transform="translate(351,105)"/>
<path d="M0 0 C4.31392226 0.4793247 6.16569547 1.7457985 9 5 C8.67 5.99 8.34 6.98 8 8 C5.33333333 5.33333333 2.66666667 2.66666667 0 0 Z " fill="#28194F" transform="translate(167,87)"/>
<path d="M0 0 C0.66 0.33 1.32 0.66 2 1 C3.54023996 1.06950541 5.08334988 1.08452357 6.625 1.0625 C7.44226563 1.05347656 8.25953125 1.04445312 9.1015625 1.03515625 C9.72804688 1.02355469 10.35453125 1.01195312 11 1 C11 1.33 11 1.66 11 2 C7.04 2.66 3.08 3.32 -1 4 C-0.67 2.68 -0.34 1.36 0 0 Z " fill="#322062" transform="translate(571,130)"/>
<path d="M0 0 C4.31392226 0.4793247 6.16569547 1.7457985 9 5 C5.51694958 4.35499066 2.93797836 2.95865224 0 1 C0 0.67 0 0.34 0 0 Z " fill="#28194B" transform="translate(420,86)"/>
<path d="M0 0 C0.33 0.66 0.66 1.32 1 2 C1.66 2.33 2.32 2.66 3 3 C1.02 3 -0.96 3 -3 3 C-3 3.66 -3 4.32 -3 5 C-3.66 4.67 -4.32 4.34 -5 4 C-4.67 3.01 -4.34 2.02 -4 1 C-1.9375 0.3125 -1.9375 0.3125 0 0 Z " fill="#2A195B" transform="translate(378,84)"/>
<path d="M0 0 C4 1 4 1 4 1 Z " fill="#491C59" transform="translate(26,152)"/>
<path d="M0 0 C0.99 0.33 1.98 0.66 3 1 C2.01 1.33 1.02 1.66 0 2 C0 1.34 0 0.68 0 0 Z " fill="#3F003F" transform="translate(461,150)"/>
<path d="M0 0 C0.66 0 1.32 0 2 0 C1.67 0.66 1.34 1.32 1 2 C0.67 1.34 0.34 0.68 0 0 Z " fill="#2A007F" transform="translate(644,129)"/>
<path d="M0 0 C3 1 3 1 3 1 Z " fill="#0000FF" transform="translate(77,110)"/>
<path d="M0 0 C0.66 0.66 1.32 1.32 2 2 C1.34 2 0.68 2 0 2 C0 1.34 0 0.68 0 0 Z " fill="#5400A9" transform="translate(611,100)"/>
<path d="M0 0 C2 1 2 1 2 1 Z " fill="#3F003F" transform="translate(633,152)"/>
<path d="M0 0 C2 1 2 1 2 1 Z " fill="#3F003F" transform="translate(37,152)"/>
<path d="M0 0 C2 1 2 1 2 1 Z " fill="#3F003F" transform="translate(464,151)"/>
<path d="M0 0 C2 1 2 1 2 1 Z " fill="#3F003F" transform="translate(606,150)"/>
<path d="" fill="#000000" transform="translate(0,0)"/>
<path d="" fill="#000000" transform="translate(0,0)"/>
<path d="M0 0 C2 1 2 1 2 1 Z " fill="#3F003F" transform="translate(174,149)"/>
<path d="M0 0 C2 1 2 1 2 1 Z " fill="#0000FF" transform="translate(545,137)"/>
<path d="" fill="#3F00BF" transform="translate(0,0)"/>
<path d="M0 0 C2 1 2 1 2 1 Z " fill="#1F1FBF" transform="translate(641,130)"/>
<path d="M0 0 C2 1 2 1 2 1 Z " fill="#7F007F" transform="translate(111,130)"/>
<path d="" fill="#3F00BF" transform="translate(0,0)"/>
<path d="" fill="#3F00BF" transform="translate(0,0)"/>
<path d="" fill="#3F00BF" transform="translate(0,0)"/>
<path d="M0 0 C2 1 2 1 2 1 Z " fill="#6A2A94" transform="translate(347,100)"/>
<path d="M0 0 C2 1 2 1 2 1 Z " fill="#1F1FBF" transform="translate(309,98)"/>
<path d="M0 0 C2 1 2 1 2 1 Z " fill="#3F00BF" transform="translate(554,96)"/>
<path d="" fill="#0000FF" transform="translate(0,0)"/>
<path d="M0 0 C2 1 2 1 2 1 Z " fill="#00007F" transform="translate(198,86)"/>
<path d="" fill="#0000FF" transform="translate(0,0)"/>
<path d="M0 0 C2 1 2 1 2 1 Z " fill="#3F00BF" transform="translate(154,81)"/>
<path d="" fill="#3F3FBF" transform="translate(0,0)"/>
<path d="M0 0 C2 1 2 1 2 1 Z " fill="#6A157F" transform="translate(3,77)"/>
<path d="" fill="#000000" transform="translate(0,0)"/>
<path d="" fill="#000000" transform="translate(0,0)"/>
<path d="" fill="#000000" transform="translate(0,0)"/>
<path d="" fill="#000000" transform="translate(0,0)"/>
<path d="" fill="#000000" transform="translate(0,0)"/>
<path d="" fill="#7F007F" transform="translate(0,0)"/>
<path d="" fill="#000000" transform="translate(0,0)"/>
<path d="" fill="#000000" transform="translate(0,0)"/>
<path d="" fill="#000000" transform="translate(0,0)"/>
<path d="" fill="#000000" transform="translate(0,0)"/>
<path d="" fill="#000000" transform="translate(0,0)"/>
<path d="" fill="#000000" transform="translate(0,0)"/>
<path d="" fill="#7F007F" transform="translate(0,0)"/>
<path d="" fill="#333366" transform="translate(0,0)"/>
<path d="" fill="#000000" transform="translate(0,0)"/>
<path d="" fill="#555555" transform="translate(0,0)"/>
<path d="" fill="#555555" transform="translate(0,0)"/>
<path d="" fill="#555555" transform="translate(0,0)"/>
<path d="" fill="#000000" transform="translate(0,0)"/>
<path d="" fill="#3F3F7F" transform="translate(0,0)"/>
<path d="" fill="#000000" transform="translate(0,0)"/>
<path d="" fill="#000000" transform="translate(0,0)"/>
<path d="" fill="#000000" transform="translate(0,0)"/>
<path d="" fill="#000000" transform="translate(0,0)"/>
<path d="" fill="#000000" transform="translate(0,0)"/>
<path d="" fill="#000000" transform="translate(0,0)"/>
<path d="" fill="#000000" transform="translate(0,0)"/>
<path d="" fill="#7F007F" transform="translate(0,0)"/>
<path d="" fill="#000000" transform="translate(0,0)"/>
<path d="" fill="#000000" transform="translate(0,0)"/>
<path d="" fill="#000000" transform="translate(0,0)"/>
<path d="" fill="#000000" transform="translate(0,0)"/>
<path d="" fill="#0000FF" transform="translate(0,0)"/>
<path d="" fill="#0000FF" transform="translate(0,0)"/>
<path d="" fill="#000000" transform="translate(0,0)"/>
<path d="" fill="#000000" transform="translate(0,0)"/>
<path d="" fill="#555555" transform="translate(0,0)"/>
<path d="" fill="#555555" transform="translate(0,0)"/>
<path d="" fill="#000000" transform="translate(0,0)"/>
<path d="" fill="#0000FF" transform="translate(0,0)"/>
<path d="" fill="#3F3F7F" transform="translate(0,0)"/>
<path d="" fill="#0000FF" transform="translate(0,0)"/>
<path d="" fill="#000000" transform="translate(0,0)"/>
<path d="" fill="#000000" transform="translate(0,0)"/>
<path d="" fill="#000000" transform="translate(0,0)"/>
<path d="" fill="#000000" transform="translate(0,0)"/>
<path d="" fill="#555555" transform="translate(0,0)"/>
<path d="" fill="#5555AA" transform="translate(0,0)"/>
<path d="" fill="#7F007F" transform="translate(0,0)"/>
<path d="" fill="#5555AA" transform="translate(0,0)"/>
<path d="" fill="#0000FF" transform="translate(0,0)"/>
<path d="" fill="#0000FF" transform="translate(0,0)"/>
<path d="" fill="#0000FF" transform="translate(0,0)"/>
<path d="" fill="#000000" transform="translate(0,0)"/>
<path d="" fill="#0000FF" transform="translate(0,0)"/>
<path d="" fill="#3F3F7F" transform="translate(0,0)"/>
<path d="" fill="#663399" transform="translate(0,0)"/>
<path d="" fill="#0000FF" transform="translate(0,0)"/>
<path d="" fill="#0000FF" transform="translate(0,0)"/>
<path d="" fill="#0000FF" transform="translate(0,0)"/>
<path d="" fill="#0000FF" transform="translate(0,0)"/>
<path d="" fill="#0000FF" transform="translate(0,0)"/>
<path d="" fill="#000000" transform="translate(0,0)"/>
<path d="" fill="#0000FF" transform="translate(0,0)"/>
<path d="" fill="#0000FF" transform="translate(0,0)"/>
<path d="" fill="#0000FF" transform="translate(0,0)"/>
<path d="" fill="#0000FF" transform="translate(0,0)"/>
<path d="" fill="#0000FF" transform="translate(0,0)"/>
<path d="" fill="#0000FF" transform="translate(0,0)"/>
<path d="" fill="#0000FF" transform="translate(0,0)"/>
<path d="" fill="#0000FF" transform="translate(0,0)"/>
<path d="" fill="#7F007F" transform="translate(0,0)"/>
<path d="" fill="#0000FF" transform="translate(0,0)"/>
<path d="" fill="#0000FF" transform="translate(0,0)"/>
<path d="" fill="#0000FF" transform="translate(0,0)"/>
<path d="" fill="#7F007F" transform="translate(0,0)"/>
<path d="" fill="#0000FF" transform="translate(0,0)"/>
<path d="" fill="#0000FF" transform="translate(0,0)"/>
<path d="" fill="#0000FF" transform="translate(0,0)"/>
<path d="" fill="#0000FF" transform="translate(0,0)"/>
<path d="" fill="#0000FF" transform="translate(0,0)"/>
<path d="" fill="#5555AA" transform="translate(0,0)"/>
<path d="" fill="#0000FF" transform="translate(0,0)"/>
<path d="" fill="#0000FF" transform="translate(0,0)"/>
<path d="" fill="#7F007F" transform="translate(0,0)"/>
<path d="" fill="#0000FF" transform="translate(0,0)"/>
<path d="" fill="#0000FF" transform="translate(0,0)"/>
<path d="" fill="#0000FF" transform="translate(0,0)"/>
<path d="" fill="#5555AA" transform="translate(0,0)"/>
<path d="" fill="#0000FF" transform="translate(0,0)"/>
<path d="" fill="#0000FF" transform="translate(0,0)"/>
<path d="" fill="#7F007F" transform="translate(0,0)"/>
<path d="" fill="#0000FF" transform="translate(0,0)"/>
<path d="" fill="#7F007F" transform="translate(0,0)"/>
<path d="" fill="#0000FF" transform="translate(0,0)"/>
<path d="" fill="#0000FF" transform="translate(0,0)"/>
<path d="" fill="#0000FF" transform="translate(0,0)"/>
<path d="" fill="#0000FF" transform="translate(0,0)"/>
<path d="" fill="#0000FF" transform="translate(0,0)"/>
<path d="" fill="#555555" transform="translate(0,0)"/>
<path d="" fill="#7F007F" transform="translate(0,0)"/>
<path d="" fill="#5555AA" transform="translate(0,0)"/>
<path d="" fill="#7F007F" transform="translate(0,0)"/>
<path d="" fill="#0000FF" transform="translate(0,0)"/>
<path d="" fill="#0000FF" transform="translate(0,0)"/>
<path d="" fill="#0000FF" transform="translate(0,0)"/>
<path d="" fill="#7F007F" transform="translate(0,0)"/>
<path d="" fill="#0000FF" transform="translate(0,0)"/>
<path d="" fill="#5555AA" transform="translate(0,0)"/>
<path d="" fill="#5555AA" transform="translate(0,0)"/>
<path d="" fill="#0000FF" transform="translate(0,0)"/>
<path d="" fill="#7F007F" transform="translate(0,0)"/>
<path d="" fill="#0000FF" transform="translate(0,0)"/>
<path d="" fill="#0000FF" transform="translate(0,0)"/>
<path d="" fill="#0000FF" transform="translate(0,0)"/>
<path d="" fill="#663399" transform="translate(0,0)"/>
<path d="" fill="#000000" transform="translate(0,0)"/>
<path d="" fill="#0000FF" transform="translate(0,0)"/>
<path d="" fill="#0000FF" transform="translate(0,0)"/>
<path d="" fill="#7F007F" transform="translate(0,0)"/>
<path d="" fill="#0000FF" transform="translate(0,0)"/>
<path d="" fill="#0000FF" transform="translate(0,0)"/>
<path d="" fill="#5555AA" transform="translate(0,0)"/>
<path d="" fill="#7F007F" transform="translate(0,0)"/>
<path d="" fill="#0000FF" transform="translate(0,0)"/>
<path d="" fill="#0000FF" transform="translate(0,0)"/>
<path d="" fill="#000000" transform="translate(0,0)"/>
<path d="" fill="#7F007F" transform="translate(0,0)"/>
<path d="" fill="#0000FF" transform="translate(0,0)"/>
<path d="" fill="#7F007F" transform="translate(0,0)"/>
<path d="" fill="#0000FF" transform="translate(0,0)"/>
<path d="" fill="#5555AA" transform="translate(0,0)"/>
<path d="" fill="#0000FF" transform="translate(0,0)"/>
<path d="" fill="#0000FF" transform="translate(0,0)"/>
<path d="" fill="#0000FF" transform="translate(0,0)"/>
<path d="" fill="#0000FF" transform="translate(0,0)"/>
<path d="" fill="#0000FF" transform="translate(0,0)"/>
<path d="" fill="#0000FF" transform="translate(0,0)"/>
<path d="" fill="#0000FF" transform="translate(0,0)"/>
<path d="" fill="#0000FF" transform="translate(0,0)"/>
<path d="" fill="#000000" transform="translate(0,0)"/>
<path d="" fill="#7F007F" transform="translate(0,0)"/>
<path d="" fill="#7F007F" transform="translate(0,0)"/>
<path d="" fill="#7F007F" transform="translate(0,0)"/>
<path d="" fill="#000000" transform="translate(0,0)"/>
<path d="" fill="#000000" transform="translate(0,0)"/>
<path d="" fill="#552A7F" transform="translate(0,0)"/>
<path d="" fill="#555555" transform="translate(0,0)"/>
<path d="" fill="#0000FF" transform="translate(0,0)"/>
<path d="" fill="#000000" transform="translate(0,0)"/>
<path d="" fill="#0000FF" transform="translate(0,0)"/>
<path d="" fill="#000000" transform="translate(0,0)"/>
<path d="" fill="#000000" transform="translate(0,0)"/>
<path d="" fill="#0000FF" transform="translate(0,0)"/>
<path d="" fill="#0000FF" transform="translate(0,0)"/>
<path d="" fill="#0000FF" transform="translate(0,0)"/>
<path d="" fill="#5555AA" transform="translate(0,0)"/>
<path d="" fill="#000000" transform="translate(0,0)"/>
<path d="" fill="#7F7F7F" transform="translate(0,0)"/>
<path d="" fill="#7F007F" transform="translate(0,0)"/>
<path d="" fill="#0000FF" transform="translate(0,0)"/>
<path d="" fill="#7F007F" transform="translate(0,0)"/>
<path d="" fill="#5555AA" transform="translate(0,0)"/>
<path d="" fill="#0000FF" transform="translate(0,0)"/>
<path d="" fill="#0000FF" transform="translate(0,0)"/>
<path d="" fill="#0000FF" transform="translate(0,0)"/>
<path d="" fill="#5555AA" transform="translate(0,0)"/>
<path d="" fill="#000000" transform="translate(0,0)"/>
<path d="" fill="#0000FF" transform="translate(0,0)"/>
<path d="" fill="#7F007F" transform="translate(0,0)"/>
<path d="" fill="#000000" transform="translate(0,0)"/>
<path d="" fill="#000000" transform="translate(0,0)"/>
<path d="" fill="#0000FF" transform="translate(0,0)"/>
<path d="" fill="#7F7F7F" transform="translate(0,0)"/>
<path d="" fill="#0000FF" transform="translate(0,0)"/>
<path d="" fill="#0000FF" transform="translate(0,0)"/>
<path d="" fill="#5555AA" transform="translate(0,0)"/>
<path d="" fill="#0000FF" transform="translate(0,0)"/>
<path d="" fill="#7F007F" transform="translate(0,0)"/>
<path d="" fill="#7F007F" transform="translate(0,0)"/>
<path d="" fill="#5555AA" transform="translate(0,0)"/>
<path d="" fill="#7F007F" transform="translate(0,0)"/>
</svg>
